SplineFontDB: 1.0
FontName: Puritan2Bold
FullName: Puritan 2.0 Bold
FamilyName: Puritan 2.0
Weight: Bold
Copyright: This font drawn by, and copyright, Ben Weiner, 1999-2001. Modifications for version 2.0 copyright Ben Weiner, 2006-7. Licensed under the Open Font License (http://scripts.sil.org/OFL). See accompanying license and FONTLOG.
Version: 2.0a
ItalicAngle: 0
UnderlinePosition: -133
UnderlineWidth: 20
Ascent: 800
Descent: 200
Order2: 1
XUID: [1021 87 1747694147 15808902]
FSType: 1
OS2Version: 0
OS2_WeightWidthSlopeOnly: 0
OS2_UseTypoMetrics: 1
CreationTime: 988647257
ModificationTime: 988647257
PfmFamily: 81
TTFWeight: 700
TTFWidth: 5
LineGap: 0
VLineGap: 0
Panose: 0 0 7 0 0 0 0 0 0 0
OS2TypoAscent: 75
OS2TypoAOffset: 1
OS2TypoDescent: -50
OS2TypoDOffset: 1
OS2TypoLinegap: 0
OS2WinAscent: 0
OS2WinAOffset: 1
OS2WinDescent: 0
OS2WinDOffset: 1
HheadAscent: 0
HheadAOffset: 1
HheadDescent: -8
HheadDOffset: 1
OS2SubXSize: 700
OS2SubYSize: 650
OS2SubXOff: 0
OS2SubYOff: 143
OS2SupXSize: 700
OS2SupYSize: 650
OS2SupXOff: 0
OS2SupYOff: 453
OS2StrikeYSize: 50
OS2StrikeYPos: 259
OS2Vendor: 'Alts'
ScriptLang: 1
 2 grek 1 dflt latn 1 dflt 
TtfTable: prep 77
5SFP7$O[:K#mg_;!s8T+!<E0#!KFSis+NmT6q(cW7;,(XBLG:&6q(cW7;,(XBLG:&7'd($7K=sF
#R<g!/$T6]7;,)o#7!\26i[2e
EndTtf
TtfTable: fpgm 20
5QLj9G"!OX"!pA\@;$K&BOF4[
EndTtf
TtfTable: cvt  276
s#^8M!Vc_R!kJAS!,DR;!+Z(;!-A3/!1@(e#U\6D3_rc7h;*Bqj7nKY0OL3^J^GeR`?KTH#[E;]
+Ksje[]3IEnhHE]"'+Np`deZE@OkM$Y?:Y'2XM0Q4]^3u!h^l4Lpr/YIhQ0V]#C_J5RiMm]sCd1
`lUl!.cSLe4\AU!`MIVh>;u01G5r4.ZeK:d*p0GVFu0_oc\6fk?HVbbG7O%tR3D(],.C$EW:J2u
?iU]!cGqgaEF=?*eHih"+'gSH].YO;`n"c^'g_MTAA83gW%_Pem4NS7%C*b.>D+bDSHDEZmRu>n
/b4*K<tAqN[\((%nG[EH#Z.,P5&75:%&tLl`>q4i!!E:M
EndTtf
TtfTable: maxp 32
!!*'"!;umt!"&]k!!E9'!!iQi!"&]+!3-&S!!3-$
EndTtf
LangName: 1033 "" "" "" "Regular" "Puritan 2.0 Bold" "2.0a" 
Encoding: UnicodeBmp
UnicodeInterp: none
NameList: Adobe Glyph List
DisplaySize: -24
AntiAlias: 1
FitToEm: 1
WinInfo: 34 34 18
BeginChars: 65549 253
StartChar: .notdef
Encoding: 65536 -1 0
Width: 500
Flags: W
Fore
63 0 m 1,0,-1
 63 750 l 1,1,-1
 438 750 l 1,2,-1
 438 0 l 1,3,-1
 63 0 l 1,0,-1
125 63 m 1,4,-1
 375 63 l 1,5,-1
 375 688 l 1,6,-1
 125 688 l 1,7,-1
 125 63 l 1,4,-1
EndSplineSet
EndChar
StartChar: exclam
Encoding: 33 33 4
Width: 235
Flags: W
Fore
56 172 m 1,0,-1
 56 686 l 1,1,-1
 181 686 l 1,2,-1
 181 172 l 1,3,-1
 56 172 l 1,0,-1
37 44 m 256,4,5
 37 76 37 76 59 99 c 128,-1,6
 81 122 81 122 113 122 c 0,7,8
 146 122 146 122 169 99 c 128,-1,9
 192 76 192 76 192 44 c 0,10,11
 192 11 192 11 169 -11 c 128,-1,12
 146 -33 146 -33 113 -33 c 0,13,14
 81 -33 81 -33 59 -10.5 c 128,-1,15
 37 12 37 12 37 44 c 256,4,5
EndSplineSet
EndChar
StartChar: quotedbl
Encoding: 34 34 5
Width: 329
Flags: W
Fore
190 645 m 1,0,-1
 212 425 l 1,1,-1
 246 425 l 1,2,-1
 285 645 l 1,3,-1
 190 645 l 1,0,-1
49 645 m 1,4,-1
 71 425 l 1,5,-1
 104 425 l 1,6,-1
 143 645 l 1,7,-1
 49 645 l 1,4,-1
EndSplineSet
EndChar
StartChar: numbersign
Encoding: 35 35 6
Width: 536
Flags: W
Fore
373 529 m 1,0,-1
 373 495 l 1,1,-1
 444 502 l 1,2,-1
 444 419 l 1,3,-1
 372 411 l 1,4,-1
 372 324 l 1,5,-1
 284 314 l 1,6,-1
 285 402 l 1,7,-1
 249 398 l 1,8,-1
 248 311 l 1,9,-1
 160 301 l 1,10,-1
 161 389 l 1,11,-1
 69 379 l 1,12,-1
 69 462 l 1,13,-1
 161 472 l 1,14,-1
 161 507 l 1,15,-1
 70 497 l 1,16,-1
 70 580 l 1,17,-1
 162 590 l 1,18,-1
 162 658 l 1,19,-1
 250 667 l 1,20,-1
 249 600 l 1,21,-1
 286 603 l 1,22,-1
 286 671 l 1,23,-1
 374 682 l 1,24,-1
 373 613 l 1,25,-1
 445 620 l 1,26,-1
 445 537 l 1,27,-1
 373 529 l 1,0,-1
249 482 m 1,28,-1
 285 485 l 1,29,-1
 285 520 l 1,30,-1
 249 516 l 1,31,-1
 249 482 l 1,28,-1
EndSplineSet
EndChar
StartChar: dollar
Encoding: 36 36 7
Width: 536
Flags: W
Fore
328 -100 m 1,0,-1
 211 -100 l 1,1,-1
 211 -10 l 1,2,3
 122 7 122 7 72 80 c 1,4,-1
 137 159 l 1,5,6
 198 84 198 84 264 84 c 0,7,8
 298 84 298 84 321 109.5 c 128,-1,9
 344 135 344 135 344 174 c 0,10,11
 344 217 344 217 278 243 c 0,12,13
 177 285 177 285 158 298 c 0,14,15
 93 346 93 346 94 441 c 0,16,17
 95 498 95 498 128 542 c 0,18,19
 160 583 160 583 211 601 c 1,20,-1
 211 690 l 1,21,-1
 328 690 l 1,22,-1
 328 604 l 1,23,24
 379 590 379 590 443 537 c 1,25,-1
 381 460 l 1,26,27
 320 514 320 514 274 514 c 0,28,29
 246 514 246 514 228.5 493.5 c 128,-1,30
 211 473 211 473 211 436 c 256,31,32
 211 399 211 399 275 377 c 0,33,34
 367 346 367 346 393 326 c 0,35,36
 457 277 457 277 457 175 c 0,37,38
 457 32 457 32 328 -7 c 1,39,-1
 328 -100 l 1,0,-1
EndSplineSet
EndChar
StartChar: percent
Encoding: 37 37 8
Width: 536
Flags: W
Fore
22 518 m 0,0,1
 22 575 22 575 55.5 612.5 c 128,-1,2
 89 650 89 650 140 650 c 256,3,4
 191 650 191 650 224.5 612.5 c 128,-1,5
 258 575 258 575 258 518 c 0,6,7
 258 455 258 455 225 420 c 128,-1,8
 192 385 192 385 140 385 c 256,9,10
 88 385 88 385 55 420 c 128,-1,11
 22 455 22 455 22 518 c 0,0,1
3 -46 m 1,12,-1
 370 634 l 1,13,-1
 469 596 l 1,14,-1
 108 -82 l 1,15,-1
 3 -46 l 1,12,-1
270 131 m 0,16,17
 270 188 270 188 304.5 226.5 c 128,-1,18
 339 265 339 265 391 265 c 0,19,20
 442 265 442 265 476 226.5 c 128,-1,21
 510 188 510 188 510 131 c 0,22,23
 510 65 510 65 477 29.5 c 128,-1,24
 444 -6 444 -6 391 -6 c 0,25,26
 337 -6 337 -6 305 28 c 0,27,28
 270 65 270 65 270 131 c 0,16,17
115 515 m 0,29,30
 115 474 115 474 140 474 c 0,31,32
 164 474 164 474 164 515 c 0,33,34
 164 559 164 559 139 559 c 0,35,36
 115 559 115 559 115 515 c 0,29,30
366 127 m 0,37,38
 366 85 366 85 391 85 c 0,39,40
 415 85 415 85 415 127 c 0,41,42
 415 172 415 172 390 172 c 0,43,44
 366 172 366 172 366 127 c 0,37,38
EndSplineSet
EndChar
StartChar: ampersand
Encoding: 38 38 9
Width: 555
Flags: W
Fore
130 186 m 0,0,1
 130 145 130 145 153 113 c 0,2,3
 180 75 180 75 226 75 c 0,4,5
 267 75 267 75 310 120 c 1,6,7
 203 222 203 222 168 292 c 1,8,9
 130 263 130 263 130 186 c 0,0,1
378 60 m 1,10,11
 359 32 359 32 318 12 c 0,12,13
 274 -9 274 -9 230 -9 c 0,14,15
 132 -9 132 -9 76 48 c 0,16,17
 25 99 25 99 25 177 c 0,18,19
 25 295 25 295 125 363 c 1,20,21
 92 418 92 418 92 475 c 0,22,23
 92 546 92 546 141 593 c 128,-1,24
 190 640 190 640 259 640 c 0,25,26
 301 640 301 640 329 627 c 0,27,28
 363 611 363 611 399 568 c 1,29,-1
 343 506 l 1,30,31
 305 552 305 552 242 552 c 0,32,33
 201 552 201 552 201 489 c 0,34,35
 201 461 201 461 220 414 c 1,36,37
 261 430 261 430 329 432 c 1,38,-1
 345 352 l 1,39,40
 294 352 294 352 266 344 c 1,41,42
 322 264 322 264 367 213 c 1,43,44
 371 228 371 228 371 242 c 0,45,46
 371 275 371 275 362 314 c 1,47,-1
 450 330 l 1,48,-1
 454 303 l 2,49,50
 459 273 459 273 459 253 c 0,51,52
 459 202 459 202 441 145 c 1,53,54
 462 126 462 126 534 87 c 1,55,-1
 470 0 l 1,56,57
 437 12 437 12 378 60 c 1,10,11
EndSplineSet
EndChar
StartChar: quotesingle
Encoding: 39 39 10
Width: 194
Flags: W
Fore
50 646 m 1,0,-1
 79 413 l 1,1,-1
 108 413 l 1,2,-1
 144 646 l 1,3,-1
 50 646 l 1,0,-1
EndSplineSet
EndChar
StartChar: parenleft
Encoding: 40 40 11
Width: 318
Flags: W
Fore
46 323 m 0,0,1
 46 570 46 570 162 789 c 1,2,-1
 243 744 l 1,3,4
 151 500 151 500 151 323 c 0,5,6
 151 215 151 215 179 106 c 0,7,8
 192 58 192 58 245 -100 c 1,9,-1
 162 -143 l 1,10,11
 46 87 46 87 46 323 c 0,0,1
EndSplineSet
EndChar
StartChar: parenright
Encoding: 41 41 12
Width: 316
Flags: W
Fore
73 -100 m 1,0,1
 128 63 128 63 139 104 c 0,2,3
 167 212 167 212 167 319 c 0,4,5
 167 504 167 504 76 745 c 1,6,-1
 157 788 l 1,7,8
 269 575 269 575 269 326 c 0,9,10
 269 81 269 81 157 -143 c 1,11,-1
 73 -100 l 1,0,1
EndSplineSet
EndChar
StartChar: asterisk
Encoding: 42 42 13
Width: 275
Flags: W
Fore
169 500 m 1,0,-1
 171 446 l 1,1,-1
 96 446 l 1,2,-1
 98 500 l 1,3,-1
 56 462 l 1,4,-1
 14 532 l 1,5,-1
 74 569 l 1,6,-1
 15 607 l 1,7,-1
 55 677 l 1,8,-1
 99 638 l 1,9,-1
 97 694 l 1,10,-1
 172 692 l 1,11,-1
 169 640 l 1,12,-1
 210 678 l 1,13,-1
 250 607 l 1,14,-1
 193 570 l 1,15,-1
 252 532 l 1,16,-1
 210 462 l 1,17,-1
 169 500 l 1,0,-1
EndSplineSet
EndChar
StartChar: plus
Encoding: 43 43 14
Width: 498
Flags: W
Fore
295 96 m 1,0,-1
 203 96 l 1,1,-1
 203 266 l 1,2,-1
 52 266 l 1,3,-1
 52 360 l 1,4,-1
 203 360 l 1,5,-1
 203 521 l 1,6,-1
 295 521 l 1,7,-1
 295 360 l 1,8,-1
 446 360 l 1,9,-1
 446 266 l 1,10,-1
 295 266 l 1,11,-1
 295 96 l 1,0,-1
EndSplineSet
EndChar
StartChar: comma
Encoding: 44 44 15
Width: 254
Flags: W
Fore
107 -107 m 1,0,-1
 41 -94 l 1,1,2
 60 -53 60 -53 67 -1 c 0,3,4
 68 9 68 9 72 85 c 1,5,-1
 177 85 l 1,6,7
 177 49 177 49 153 -14 c 0,8,9
 131 -73 131 -73 107 -107 c 1,0,-1
EndSplineSet
EndChar
StartChar: hyphen
Encoding: 8208 45 16
AltUni: 8208
Width: 380
Flags: W
Fore
50 360 m 1,0,-1
 330 360 l 1,1,-1
 330 267 l 1,2,-1
 50 267 l 1,3,-1
 50 360 l 1,0,-1
EndSplineSet
EndChar
StartChar: period
Encoding: 46 46 17
Width: 244
Flags: W
Fore
36 77 m 256,0,1
 36 113 36 113 62 138.5 c 128,-1,2
 88 164 88 164 123 164 c 256,3,4
 158 164 158 164 184 138.5 c 128,-1,5
 210 113 210 113 210 77 c 256,6,7
 210 41 210 41 184.5 16 c 128,-1,8
 159 -9 159 -9 123 -9 c 0,9,10
 88 -9 88 -9 62 16 c 128,-1,11
 36 41 36 41 36 77 c 256,0,1
EndSplineSet
EndChar
StartChar: slash
Encoding: 47 47 18
Width: 385
Flags: W
Fore
-14 -149 m 1,0,-1
 296 707 l 1,1,-1
 416 683 l 1,2,-1
 107 -173 l 1,3,-1
 -14 -149 l 1,0,-1
EndSplineSet
EndChar
StartChar: zero
Encoding: 48 48 19
Width: 500
Flags: W
Fore
58 103 m 0,0,1
 8 188 8 188 8 315 c 0,2,3
 8 459 8 459 64 551 c 0,4,5
 129 656 129 656 249 656 c 256,6,7
 369 656 369 656 434 552 c 0,8,9
 492 459 492 459 492 315 c 0,10,11
 492 195 492 195 435 103 c 0,12,13
 364 -12 364 -12 249 -12 c 0,14,15
 126 -12 126 -12 58 103 c 0,0,1
249 85 m 0,16,17
 322 85 322 85 355 169 c 0,18,19
 378 228 378 228 378 315 c 0,20,21
 378 559 378 559 249 559 c 0,22,23
 169 559 169 559 141 470 c 0,24,25
 125 419 125 419 125 315 c 0,26,27
 125 229 125 229 147 171 c 0,28,29
 178 85 178 85 249 85 c 0,16,17
EndSplineSet
EndChar
StartChar: one
Encoding: 49 49 20
Width: 500
Flags: W
Fore
463 100 m 1,0,-1
 463 0 l 1,1,-1
 101 0 l 1,2,-1
 101 100 l 1,3,-1
 234 100 l 1,4,-1
 234 534 l 1,5,-1
 110 534 l 1,6,-1
 110 637 l 1,7,-1
 342 637 l 1,8,-1
 342 100 l 1,9,-1
 463 100 l 1,0,-1
EndSplineSet
EndChar
StartChar: two
Encoding: 50 50 21
Width: 500
Flags: W
Fore
84 99 m 1,0,-1
 264 295 l 2,1,2
 344 382 344 382 344 455 c 0,3,4
 344 501 344 501 319.5 533 c 128,-1,5
 295 565 295 565 251 565 c 0,6,7
 193 565 193 565 143 477 c 1,8,-1
 68 527 l 1,9,10
 140 658 140 658 249 658 c 0,11,12
 342 658 342 658 402.5 601 c 128,-1,13
 463 544 463 544 463 456 c 0,14,15
 463 390 463 390 420 322 c 0,16,17
 387 269 387 269 321 207 c 0,18,19
 268 159 268 159 214 111 c 1,20,-1
 480 111 l 1,21,-1
 480 0 l 1,22,-1
 84 0 l 1,23,-1
 84 99 l 1,0,-1
EndSplineSet
EndChar
StartChar: three
Encoding: 51 51 22
Width: 500
Flags: W
Fore
105 145 m 1,0,1
 180 68 180 68 244 68 c 0,2,3
 301 68 301 68 330 105 c 0,4,5
 355 136 355 136 355 183 c 0,6,7
 355 228 355 228 327 258 c 0,8,9
 296 292 296 292 242 292 c 2,10,-1
 180 292 l 1,11,-1
 180 378 l 1,12,-1
 242 378 l 2,13,14
 284 378 284 378 313.5 408 c 128,-1,15
 343 438 343 438 343 482 c 0,16,17
 343 517 343 517 315.5 544.5 c 128,-1,18
 288 572 288 572 251 572 c 0,19,20
 219 572 219 572 196 554 c 0,21,22
 181 543 181 543 151 506 c 1,23,-1
 89 563 l 1,24,25
 163 660 163 660 250 660 c 0,26,27
 321 660 321 660 378 615 c 0,28,29
 441 565 441 565 441 489 c 0,30,31
 441 436 441 436 410 400 c 0,32,33
 390 376 390 376 344 351 c 1,34,35
 395 326 395 326 428 281 c 0,36,37
 465 231 465 231 465 174 c 0,38,39
 465 109 465 109 413 49 c 0,40,41
 354 -19 354 -19 265 -19 c 0,42,43
 128 -19 128 -19 54 69 c 1,44,-1
 105 145 l 1,0,1
EndSplineSet
EndChar
StartChar: four
Encoding: 52 52 23
Width: 500
Flags: W
Fore
137 230 m 1,0,-1
 285 230 l 1,1,-1
 285 464 l 1,2,-1
 137 230 l 1,0,-1
394 0 m 1,3,-1
 285 0 l 1,4,-1
 285 141 l 1,5,-1
 16 141 l 1,6,-1
 16 217 l 1,7,-1
 300 651 l 1,8,-1
 394 651 l 1,9,-1
 394 230 l 1,10,-1
 481 230 l 1,11,-1
 481 141 l 1,12,-1
 394 141 l 1,13,-1
 394 0 l 1,3,-1
EndSplineSet
EndChar
StartChar: five
Encoding: 53 53 24
Width: 500
Flags: W
Fore
25 64 m 1,0,-1
 73 138 l 1,1,2
 135 61 135 61 224 61 c 0,3,4
 281 61 281 61 321 113 c 0,5,6
 356 159 356 159 356 207 c 0,7,8
 356 323 356 323 242 323 c 0,9,10
 222 323 222 323 188 302.5 c 128,-1,11
 154 282 154 282 135 254 c 1,12,-1
 53 274 l 1,13,-1
 53 644 l 1,14,-1
 423 644 l 1,15,-1
 423 533 l 1,16,-1
 133 533 l 1,17,-1
 133 347 l 1,18,19
 152 375 152 375 185 396 c 0,20,21
 226 422 226 422 267 422 c 0,22,23
 351 422 351 422 408 364 c 0,24,25
 468 302 468 302 468 203 c 0,26,27
 468 115 468 115 406 50 c 0,28,29
 335 -24 335 -24 217 -24 c 0,30,31
 79 -24 79 -24 25 64 c 1,0,-1
EndSplineSet
EndChar
StartChar: six
Encoding: 54 54 25
Width: 500
Flags: W
Fore
137 193 m 0,0,1
 137 137 137 137 168 100 c 0,2,3
 202 58 202 58 261 58 c 0,4,5
 308 58 308 58 343.5 103 c 128,-1,6
 379 148 379 148 379 199 c 0,7,8
 379 260 379 260 349 293 c 128,-1,9
 319 326 319 326 268 326 c 0,10,11
 213 326 213 326 177 292 c 0,12,13
 137 255 137 255 137 193 c 0,0,1
16 270 m 0,14,15
 16 438 16 438 74 537 c 0,16,17
 143 656 143 656 290 656 c 0,18,19
 360 656 360 656 452 611 c 1,20,-1
 412 528 l 1,21,22
 364 564 364 564 289 564 c 0,23,24
 211 564 211 564 169 491 c 0,25,26
 134 432 134 432 128 335 c 1,27,28
 151 380 151 380 210 405 c 0,29,30
 252 422 252 422 285 422 c 0,31,32
 370 422 370 422 425 371 c 0,33,34
 486 314 486 314 486 213 c 0,35,36
 486 116 486 116 425 49 c 0,37,38
 361 -22 361 -22 261 -22 c 0,39,40
 156 -22 156 -22 92 43 c 0,41,42
 16 120 16 120 16 270 c 0,14,15
EndSplineSet
EndChar
StartChar: seven
Encoding: 55 55 26
Width: 500
Flags: W
Fore
191 -32 m 1,0,-1
 81 -2 l 1,1,-1
 352 535 l 1,2,-1
 36 535 l 1,3,-1
 36 644 l 1,4,-1
 458 644 l 1,5,-1
 458 543 l 1,6,-1
 191 -32 l 1,0,-1
EndSplineSet
EndChar
StartChar: eight
Encoding: 56 56 27
Width: 500
Flags: W
Fore
139 179 m 0,0,1
 139 118 139 118 177 85 c 0,2,3
 208 58 208 58 248 58 c 0,4,5
 295 58 295 58 327 92.5 c 128,-1,6
 359 127 359 127 359 179 c 0,7,8
 359 268 359 268 251 311 c 1,9,10
 139 254 139 254 139 179 c 0,0,1
173 497 m 1,11,12
 185 429 185 429 251 401 c 1,13,14
 341 436 341 436 341 495 c 0,15,16
 341 531 341 531 316.5 557 c 128,-1,17
 292 583 292 583 258 583 c 0,18,19
 227 583 227 583 203 562 c 0,20,21
 177 538 177 538 173 497 c 1,11,12
36 177 m 0,22,23
 36 283 36 283 172 352 c 1,24,25
 67 421 67 421 67 494 c 0,26,27
 67 577 67 577 129 621 c 0,28,29
 181 658 181 658 258 658 c 0,30,31
 329 658 329 658 378 621 c 0,32,33
 433 579 433 579 433 503 c 0,34,35
 433 424 433 424 336 358 c 1,36,37
 472 285 472 285 472 179 c 0,38,39
 472 88 472 88 419 33 c 0,40,41
 361 -28 361 -28 252 -28 c 0,42,43
 159 -28 159 -28 101 22 c 0,44,45
 36 77 36 77 36 177 c 0,22,23
EndSplineSet
EndChar
StartChar: nine
Encoding: 57 57 28
Width: 500
Flags: W
Fore
25 56 m 1,0,-1
 85 133 l 1,1,2
 127 95 127 95 159.5 80.5 c 128,-1,3
 192 66 192 66 238 66 c 0,4,5
 309 66 309 66 345 147 c 0,6,7
 373 210 373 210 373 302 c 1,8,9
 302 218 302 218 229 218 c 0,10,11
 147 218 147 218 88 275 c 0,12,13
 24 336 24 336 24 429 c 0,14,15
 24 525 24 525 87 590.5 c 128,-1,16
 150 656 150 656 251 656 c 0,17,18
 345 656 345 656 410 588 c 0,19,20
 487 509 487 509 487 363 c 0,21,22
 487 214 487 214 441 115 c 0,23,24
 375 -26 375 -26 230 -26 c 0,25,26
 111 -26 111 -26 25 56 c 1,0,-1
132 432 m 0,27,28
 132 381 132 381 164 340 c 0,29,30
 198 296 198 296 245 296 c 0,31,32
 300 296 300 296 334 332.5 c 128,-1,33
 368 369 368 369 368 425 c 0,34,35
 368 483 368 483 341 524 c 0,36,37
 309 572 309 572 251 572 c 0,38,39
 198 572 198 572 165 532.5 c 128,-1,40
 132 493 132 493 132 432 c 0,27,28
EndSplineSet
EndChar
StartChar: colon
Encoding: 58 58 29
Width: 244
Flags: W
Fore
36 420 m 256,0,1
 36 456 36 456 62 481 c 128,-1,2
 88 506 88 506 123 506 c 0,3,4
 159 506 159 506 184.5 481 c 128,-1,5
 210 456 210 456 210 420 c 256,6,7
 210 384 210 384 184 358.5 c 128,-1,8
 158 333 158 333 123 333 c 256,9,10
 88 333 88 333 62 358.5 c 128,-1,11
 36 384 36 384 36 420 c 256,0,1
36 77 m 256,12,13
 36 113 36 113 62 138.5 c 128,-1,14
 88 164 88 164 123 164 c 256,15,16
 158 164 158 164 184 138.5 c 128,-1,17
 210 113 210 113 210 77 c 256,18,19
 210 41 210 41 184.5 16 c 128,-1,20
 159 -9 159 -9 123 -9 c 0,21,22
 88 -9 88 -9 62 16 c 128,-1,23
 36 41 36 41 36 77 c 256,12,13
EndSplineSet
EndChar
StartChar: semicolon
Encoding: 59 59 30
Width: 254
Flags: W
Fore
68 418 m 256,0,1
 68 504 68 504 137 504 c 0,2,3
 203 504 203 504 203 418 c 256,4,5
 203 332 203 332 137 332 c 0,6,7
 68 332 68 332 68 418 c 256,0,1
107 -107 m 1,8,-1
 41 -94 l 1,9,10
 60 -53 60 -53 67 -1 c 0,11,12
 68 9 68 9 72 85 c 1,13,-1
 177 85 l 1,14,15
 177 49 177 49 153 -14 c 0,16,17
 131 -73 131 -73 107 -107 c 1,8,-1
EndSplineSet
EndChar
StartChar: less
Encoding: 60 60 31
Width: 366
Flags: W
Fore
359 46 m 1,0,-1
 237 42 l 1,1,-1
 0 289 l 1,2,-1
 236 529 l 1,3,-1
 359 525 l 1,4,-1
 158 285 l 1,5,-1
 359 46 l 1,0,-1
EndSplineSet
EndChar
StartChar: equal
Encoding: 61 61 32
Width: 441
Flags: W
Fore
89 352 m 1,0,-1
 410 352 l 1,1,-1
 410 254 l 1,2,-1
 89 254 l 1,3,-1
 89 352 l 1,0,-1
89 223 m 1,4,-1
 410 223 l 1,5,-1
 410 125 l 1,6,-1
 89 125 l 1,7,-1
 89 223 l 1,4,-1
EndSplineSet
EndChar
StartChar: greater
Encoding: 62 62 33
Width: 365
Flags: W
Fore
-14 46 m 1,0,-1
 187 285 l 1,1,-1
 -16 525 l 1,2,-1
 107 529 l 1,3,-1
 343 289 l 1,4,-1
 107 42 l 1,5,-1
 -14 46 l 1,0,-1
EndSplineSet
EndChar
StartChar: question
Encoding: 63 63 34
Width: 546
Flags: W
Fore
183 60 m 0,0,1
 183 90 183 90 205 112 c 128,-1,2
 227 134 227 134 259 134 c 0,3,4
 292 134 292 134 315 112.5 c 128,-1,5
 338 91 338 91 338 60 c 256,6,7
 338 29 338 29 315 8 c 128,-1,8
 292 -13 292 -13 259 -13 c 0,9,10
 227 -13 227 -13 205 8 c 128,-1,11
 183 29 183 29 183 60 c 0,0,1
382 356 m 0,12,13
 328 316 328 316 306 251 c 0,14,15
 301 236 301 236 301 178 c 1,16,-1
 203 178 l 1,17,18
 199 197 199 197 201 227 c 0,19,20
 203 274 203 274 203 268 c 1,21,22
 203 320 203 320 225 352 c 0,23,24
 243 378 243 378 306 429 c 0,25,26
 353 467 353 467 353 509 c 0,27,28
 353 546 353 546 329 575.5 c 128,-1,29
 305 605 305 605 273 605 c 0,30,31
 193 605 193 605 157 500 c 1,32,-1
 63 539 l 1,33,34
 98 622 98 622 144 656.5 c 128,-1,35
 190 691 190 691 270 691 c 0,36,37
 368 691 368 691 422 639 c 0,38,39
 471 590 471 590 471 509 c 0,40,41
 471 457 471 457 447 420 c 0,42,43
 429 391 429 391 382 356 c 0,12,13
EndSplineSet
EndChar
StartChar: at
Encoding: 64 64 35
Width: 1010
Flags: W
Fore
626 470 m 1,0,-1
 634 510 l 1,1,-1
 724 510 l 1,2,3
 717 428 717 428 699 320 c 0,4,5
 682 225 682 225 666 129 c 1,6,7
 674 81 l 1,8,9
 680 64 680 64 719 64 c 0,10,11
 761 64 761 64 806 130 c 128,-1,12
 851 196 851 196 851 269 c 0,13,14
 851 422 851 422 757 522.5 c 128,-1,15
 663 623 663 623 513 623 c 256,16,17
 363 623 363 623 256 504 c 0,18,19
 152 389 152 389 152 238 c 0,20,21
 152 78 152 78 238 -35 c 0,22,23
 329 -157 329 -157 473 -157 c 0,24,25
 577 -157 577 -157 643 -128 c 0,26,27
 705 -100 705 -100 787 -21 c 1,28,-1
 847 -90 l 1,29,30
 747 -181 747 -181 695 -205 c 0,31,32
 617 -242 617 -242 473 -242 c 0,33,34
 269 -242 269 -242 147 -100 c 0,35,36
 33 34 33 34 33 238 c 0,37,38
 33 428 33 428 173.5 563 c 128,-1,39
 314 698 314 698 513 698 c 0,40,41
 711 698 711 698 830.5 579.5 c 128,-1,42
 950 461 950 461 950 269 c 0,43,44
 950 160 950 160 863.5 69.5 c 128,-1,45
 777 -21 777 -21 669 -21 c 0,46,47
 609 -21 609 -21 577 76 c 1,48,49
 509 -20 509 -20 424 -20 c 0,50,51
 249 -20 249 -20 249 199 c 0,52,53
 249 314 249 314 323 411 c 0,54,55
 405 520 405 520 529 520 c 0,56,57
 559 520 559 520 584 504 c 0,58,59
 626 470 l 1,0,-1
526 436 m 0,60,61
 476 436 476 436 432 390 c 0,62,63
 372 329 372 329 372 212 c 0,64,65
 372 148 372 148 384 119 c 0,66,67
 403 70 403 70 459 70 c 0,68,69
 489 70 489 70 532.5 114 c 128,-1,70
 576 158 576 158 583 199 c 2,71,-1
 617 387 l 1,72,73
 604 404 604 404 575 420 c 128,-1,74
 546 436 546 436 526 436 c 0,60,61
EndSplineSet
EndChar
StartChar: A
Encoding: 65 65 36
Width: 568
Flags: W
Fore
380 148 m 1,0,-1
 173 148 l 1,1,-1
 127 -12 l 1,2,-1
 23 2 l 1,3,-1
 231 654 l 1,4,-1
 333 654 l 1,5,-1
 543 7 l 1,6,-1
 427 -12 l 1,7,-1
 380 148 l 1,0,-1
200 241 m 1,8,-1
 353 241 l 1,9,-1
 278 501 l 1,10,-1
 200 241 l 1,8,-1
EndSplineSet
EndChar
StartChar: B
Encoding: 66 66 37
Width: 501
Flags: W
Fore
63 2 m 1,0,-1
 63 641 l 1,1,2
 71 641 71 641 157 643 c 0,3,4
 220 645 220 645 257 645 c 0,5,6
 337 645 337 645 383.5 602.5 c 128,-1,7
 430 560 430 560 430 482 c 0,8,9
 430 443 430 443 405 407.5 c 128,-1,10
 380 372 380 372 340 351 c 1,11,12
 392 347 392 347 431.5 300 c 128,-1,13
 471 253 471 253 471 192 c 0,14,15
 471 77 471 77 389 31 c 0,16,17
 329 -2 329 -2 210 -2 c 0,18,19
 183 -2 183 -2 132.5 0 c 128,-1,20
 82 2 82 2 63 2 c 1,0,-1
181 569 m 1,21,-1
 181 380 l 1,22,-1
 225 380 l 2,23,24
 270 380 270 380 297 408 c 0,25,26
 321 434 321 434 321 473 c 0,27,28
 320 571 320 571 238 571 c 0,29,30
 217 571 217 571 181 569 c 1,21,-1
181 304 m 1,31,-1
 181 81 l 1,32,-1
 248 81 l 2,33,34
 302 81 302 81 330 113 c 0,35,36
 357 142 357 142 357 193 c 0,37,38
 357 235 357 235 329 268 c 0,39,40
 297 304 297 304 246 304 c 2,41,-1
 181 304 l 1,31,-1
EndSplineSet
EndChar
StartChar: C
Encoding: 67 67 38
Width: 557
Flags: W
Fore
31 329 m 0,0,1
 31 459 31 459 100 553 c 0,2,3
 179 660 179 660 313 660 c 0,4,5
 398 660 398 660 510 591 c 1,6,-1
 468 513 l 1,7,8
 405 550 405 550 403 552 c 1,9,10
 367 569 367 569 329 569 c 0,11,12
 249 569 249 569 203 479 c 0,13,14
 166 407 166 407 166 318 c 0,15,16
 166 223 166 223 215 158 c 0,17,18
 261 96 261 96 326 96 c 0,19,20
 361 96 361 96 393 108 c 0,21,22
 417 117 417 117 470 147 c 1,23,-1
 517 69 l 1,24,25
 451 26 451 26 413 11 c 0,26,27
 365 -8 365 -8 308 -8 c 0,28,29
 172 -8 172 -8 97 98 c 0,30,31
 31 191 31 191 31 329 c 0,0,1
EndSplineSet
EndChar
StartChar: D
Encoding: 68 68 39
Width: 565
Flags: W
Fore
63 2 m 1,0,-1
 63 643 l 1,1,2
 143 647 143 647 226 647 c 0,3,4
 531 647 531 647 533 323 c 0,5,6
 534 170 534 170 456 86 c 0,7,8
 376 -2 376 -2 222 -2 c 0,9,10
 198 -2 198 -2 151 0 c 128,-1,11
 104 2 104 2 63 2 c 1,0,-1
234 569 m 0,12,13
 227 569 227 569 211 569 c 0,14,15
 196 568 196 568 185 568 c 1,16,-1
 185 87 l 1,17,-1
 240 87 l 2,18,19
 317 87 317 87 365 160 c 0,20,21
 408 225 408 225 408 313 c 0,22,23
 408 569 408 569 234 569 c 0,12,13
EndSplineSet
EndChar
StartChar: E
Encoding: 69 69 40
Width: 462
Flags: W
Fore
179 391 m 1,0,-1
 406 391 l 1,1,-1
 406 302 l 1,2,-1
 179 303 l 1,3,-1
 179 89 l 1,4,-1
 419 89 l 1,5,-1
 419 0 l 1,6,-1
 63 0 l 1,7,-1
 63 640 l 1,8,-1
 422 640 l 1,9,-1
 422 555 l 1,10,-1
 179 555 l 1,11,-1
 179 391 l 1,0,-1
EndSplineSet
EndChar
StartChar: F
Encoding: 70 70 41
Width: 463
Flags: W
Fore
179 391 m 1,0,-1
 408 391 l 1,1,-1
 408 302 l 1,2,-1
 179 302 l 1,3,-1
 179 0 l 1,4,-1
 63 0 l 1,5,-1
 63 640 l 1,6,-1
 423 640 l 1,7,-1
 423 555 l 1,8,-1
 179 555 l 1,9,-1
 179 391 l 1,0,-1
EndSplineSet
EndChar
StartChar: G
Encoding: 71 71 42
Width: 582
Flags: W
Fore
302 -6 m 0,0,1
 173 -6 173 -6 98 99 c 0,2,3
 32 191 32 191 31 323 c 0,4,5
 30 444 30 444 94 543 c 0,6,7
 170 660 170 660 299 660 c 0,8,9
 345 660 345 660 403 643 c 0,10,11
 470 622 470 622 509 590 c 1,12,-1
 468 514 l 1,13,14
 388 569 388 569 321 569 c 0,15,16
 246 569 246 569 201 478 c 0,17,18
 164 403 164 403 164 318 c 0,19,20
 164 224 164 224 205 158 c 128,-1,21
 246 92 246 92 306 92 c 0,22,23
 367 92 367 92 400 108 c 1,24,-1
 400 304 l 1,25,-1
 269 304 l 1,26,-1
 269 391 l 1,27,-1
 519 391 l 1,28,-1
 519 65 l 1,29,30
 454 25 454 25 415 12 c 0,31,32
 366 -6 366 -6 302 -6 c 0,0,1
EndSplineSet
EndChar
StartChar: H
Encoding: 72 72 43
Width: 582
Flags: W
Fore
401 302 m 1,0,-1
 182 302 l 1,1,-1
 182 0 l 1,2,-1
 63 0 l 1,3,-1
 63 640 l 1,4,-1
 182 640 l 1,5,-1
 182 391 l 1,6,-1
 401 391 l 1,7,-1
 401 640 l 1,8,-1
 519 640 l 1,9,-1
 519 0 l 1,10,-1
 401 0 l 1,11,-1
 401 302 l 1,0,-1
EndSplineSet
EndChar
StartChar: I
Encoding: 73 73 44
Width: 245
Flags: W
Fore
63 641 m 1,0,-1
 182 641 l 1,1,-1
 182 0 l 1,2,-1
 63 0 l 1,3,-1
 63 641 l 1,0,-1
EndSplineSet
EndChar
StartChar: J
Encoding: 74 74 45
Width: 247
Flags: W
Fore
13 -187 m 0,0,1
 -42 -187 -42 -187 -79 -167 c 0,2,3
 -102 -154 -102 -154 -150 -111 c 1,4,-1
 -89 -36 l 1,5,6
 -65 -65 -65 -65 -48 -76 c 0,7,8
 -26 -91 -26 -91 5 -91 c 0,9,10
 64 -91 64 -91 64 60 c 2,11,-1
 64 640 l 1,12,-1
 184 640 l 1,13,-1
 184 67 l 2,14,15
 184 -187 184 -187 13 -187 c 0,0,1
EndSplineSet
EndChar
StartChar: K
Encoding: 75 75 46
Width: 542
Flags: W
Fore
216 255 m 1,0,-1
 182 206 l 1,1,-1
 182 0 l 1,2,-1
 63 0 l 1,3,-1
 63 641 l 1,4,-1
 182 641 l 1,5,-1
 182 351 l 1,6,-1
 383 673 l 1,7,-1
 488 620 l 1,8,9
 408 510 408 510 280 330 c 1,10,11
 316 270 316 270 402 169 c 0,12,13
 472 88 472 88 542 8 c 1,14,-1
 402 -23 l 1,15,16
 304 111 304 111 216 255 c 1,0,-1
EndSplineSet
EndChar
StartChar: L
Encoding: 76 76 47
Width: 501
Flags: W
Fore
63 641 m 1,0,-1
 180 641 l 1,1,-1
 180 85 l 1,2,-1
 438 85 l 1,3,-1
 438 0 l 1,4,-1
 63 0 l 1,5,-1
 63 641 l 1,0,-1
EndSplineSet
EndChar
StartChar: M
Encoding: 77 77 48
Width: 793
Flags: W
Fore
588 427 m 1,0,-1
 436 -1 l 1,1,-1
 332 -1 l 1,2,-1
 179 431 l 1,3,-1
 179 0 l 1,4,-1
 73 0 l 1,5,-1
 73 642 l 1,6,-1
 225 642 l 1,7,-1
 399 170 l 1,8,-1
 577 642 l 1,9,-1
 719 642 l 1,10,-1
 719 0 l 1,11,-1
 588 0 l 1,12,-1
 588 427 l 1,0,-1
EndSplineSet
EndChar
StartChar: N
Encoding: 78 78 49
Width: 582
Flags: W
Fore
167 401 m 1,0,-1
 166 0 l 1,1,-1
 63 0 l 1,2,-1
 63 644 l 1,3,-1
 159 644 l 1,4,-1
 417 239 l 1,5,-1
 417 640 l 1,6,-1
 519 640 l 1,7,-1
 519 15 l 1,8,-1
 424 -15 l 1,9,10
 326 165 326 165 167 401 c 1,0,-1
EndSplineSet
EndChar
StartChar: O
Encoding: 79 79 50
Width: 644
Flags: W
Fore
32 322 m 0,0,1
 32 462 32 462 115 554 c 128,-1,2
 198 646 198 646 326 646 c 0,3,4
 453 646 453 646 533 554 c 128,-1,5
 613 462 613 462 613 322 c 0,6,7
 613 163 613 163 527 71 c 0,8,9
 446 -16 446 -16 319 -16 c 0,10,11
 193 -16 193 -16 115 71 c 0,12,13
 32 163 32 163 32 322 c 0,0,1
157 313 m 0,14,15
 157 216 157 216 203 145 c 128,-1,16
 249 74 249 74 319 74 c 0,17,18
 390 74 390 74 440 147 c 0,19,20
 488 217 488 217 488 312 c 0,21,22
 488 412 488 412 444 483 c 0,23,24
 398 558 398 558 324 558 c 256,25,26
 250 558 250 558 202 483 c 0,27,28
 157 412 157 412 157 313 c 0,14,15
EndSplineSet
EndChar
StartChar: P
Encoding: 80 80 51
Width: 475
Flags: W
Fore
179 259 m 1,0,-1
 179 0 l 1,1,-1
 63 0 l 1,2,-1
 63 641 l 1,3,-1
 251 644 l 2,4,5
 333 645 333 645 390 589.5 c 128,-1,6
 447 534 447 534 447 451 c 0,7,8
 447 374 447 374 380 315.5 c 128,-1,9
 313 257 313 257 230 257 c 0,10,11
 219 257 219 257 179 259 c 1,0,-1
179 569 m 1,12,-1
 179 327 l 1,13,-1
 211 327 l 2,14,15
 261 327 261 327 296.5 363.5 c 128,-1,16
 332 400 332 400 332 448 c 0,17,18
 332 562 332 562 223 571 c 0,19,20
 216 572 216 572 201 570.5 c 128,-1,21
 186 569 186 569 179 569 c 1,12,-1
EndSplineSet
EndChar
StartChar: Q
Encoding: 81 81 52
Width: 658
Flags: W
Fore
464 41 m 1,0,1
 385 -19 385 -19 320 -19 c 0,2,3
 194 -19 194 -19 114 69 c 0,4,5
 31 162 31 162 31 321 c 0,6,7
 31 462 31 462 114.5 554 c 128,-1,8
 198 646 198 646 327 646 c 0,9,10
 455 646 455 646 535 555.5 c 128,-1,11
 615 465 615 465 615 324 c 0,12,13
 615 194 615 194 540 122 c 1,14,-1
 668 6 l 1,15,-1
 593 -78 l 1,16,-1
 464 41 l 1,0,1
157 314 m 0,17,18
 157 217 157 217 201 146 c 0,19,20
 248 72 248 72 317 72 c 0,21,22
 360 72 360 72 395 101 c 1,23,-1
 319 164 l 1,24,-1
 397 247 l 1,25,-1
 466 185 l 1,26,27
 489 221 489 221 489 315 c 0,28,29
 489 414 489 414 446 483 c 0,30,31
 399 557 399 557 325 557 c 0,32,33
 250 557 250 557 202 483 c 0,34,35
 157 413 157 413 157 314 c 0,17,18
EndSplineSet
EndChar
StartChar: R
Encoding: 82 82 53
Width: 522
Flags: W
Fore
201 263 m 1,0,-1
 179 263 l 1,1,-1
 179 0 l 1,2,-1
 63 0 l 1,3,-1
 63 641 l 1,4,5
 90 641 90 641 166 643 c 0,6,7
 221 644 221 644 256 644 c 0,8,9
 347 644 347 644 395 594.5 c 128,-1,10
 443 545 443 545 442 458 c 0,11,12
 441 389 441 389 402 338 c 0,13,14
 367 293 367 293 313 276 c 1,15,16
 392 166 392 166 542 16 c 1,17,-1
 395 -11 l 1,18,19
 321 65 321 65 201 263 c 1,0,-1
179 569 m 1,20,-1
 179 333 l 1,21,-1
 220 333 l 2,22,23
 330 333 330 333 330 459 c 0,24,25
 330 501 330 501 313 530 c 0,26,27
 289 573 289 573 233 571 c 2,28,-1
 179 569 l 1,20,-1
EndSplineSet
EndChar
StartChar: S
Encoding: 83 83 54
Width: 454
Flags: W
Fore
24 82 m 1,0,-1
 78 159 l 1,1,2
 138 89 138 89 215 89 c 0,3,4
 320 89 320 89 319 191 c 0,5,6
 319 243 319 243 246 273 c 0,7,8
 127 323 127 323 113 333 c 0,9,10
 41 383 41 383 42 486 c 0,11,12
 43 568 43 568 107 620 c 0,13,14
 162 664 162 664 227 664 c 0,15,16
 331 664 331 664 415 593 c 1,17,-1
 375 509 l 1,18,19
 307 573 307 573 246 573 c 0,20,21
 205 573 205 573 186 557 c 0,22,23
 162 537 162 537 162 485 c 0,24,25
 162 439 162 439 232 411 c 0,26,27
 341 367 341 367 363 351 c 0,28,29
 434 298 434 298 434 193 c 0,30,31
 434 90 434 90 367 36 c 0,32,33
 309 -10 309 -10 223 -10 c 0,34,35
 89 -10 89 -10 24 82 c 1,0,-1
EndSplineSet
EndChar
StartChar: T
Encoding: 84 84 55
Width: 536
Flags: W
Fore
332 0 m 1,0,-1
 213 0 l 1,1,-1
 213 558 l 1,2,-1
 31 558 l 1,3,-1
 31 639 l 1,4,-1
 504 639 l 1,5,-1
 504 558 l 1,6,-1
 332 558 l 1,7,-1
 332 0 l 1,0,-1
EndSplineSet
EndChar
StartChar: U
Encoding: 85 85 56
Width: 611
Flags: W
Fore
298 -17 m 0,0,1
 204 -17 204 -17 139 42 c 0,2,3
 63 110 63 110 63 235 c 2,4,-1
 63 640 l 1,5,-1
 182 640 l 1,6,-1
 182 235 l 2,7,8
 182 155 182 155 227 109 c 0,9,10
 264 71 264 71 310 71 c 0,11,12
 354 71 354 71 389 110 c 0,13,14
 429 156 429 156 429 235 c 2,15,-1
 429 640 l 1,16,-1
 548 640 l 1,17,-1
 548 235 l 2,18,19
 548 110 548 110 464 41 c 0,20,21
 394 -17 394 -17 298 -17 c 0,0,1
EndSplineSet
EndChar
StartChar: V
Encoding: 86 86 57
Width: 542
Flags: W
Fore
227 -10 m 1,0,-1
 8 626 l 1,1,-1
 132 657 l 1,2,-1
 286 187 l 1,3,-1
 431 658 l 1,4,-1
 534 625 l 1,5,-1
 314 -10 l 1,6,-1
 227 -10 l 1,0,-1
EndSplineSet
EndChar
StartChar: W
Encoding: 87 87 58
Width: 789
Flags: W
Fore
529 -6 m 1,0,-1
 407 396 l 1,1,-1
 278 -6 l 1,2,-1
 190 -6 l 1,3,-1
 11 622 l 1,4,-1
 144 648 l 1,5,-1
 256 208 l 1,6,-1
 366 636 l 1,7,-1
 469 636 l 1,8,-1
 579 209 l 1,9,-1
 683 649 l 1,10,-1
 783 621 l 1,11,-1
 607 -6 l 1,12,-1
 529 -6 l 1,0,-1
EndSplineSet
EndChar
StartChar: X
Encoding: 88 88 59
Width: 552
Flags: W
Fore
275 244 m 1,0,-1
 137 -30 l 1,1,-1
 26 10 l 1,2,-1
 215 317 l 1,3,-1
 37 621 l 1,4,-1
 153 662 l 1,5,-1
 284 407 l 1,6,-1
 417 664 l 1,7,-1
 510 620 l 1,8,-1
 334 329 l 1,9,-1
 547 10 l 1,10,-1
 422 -25 l 1,11,-1
 275 244 l 1,0,-1
EndSplineSet
EndChar
StartChar: Y
Encoding: 89 89 60
Width: 503
Flags: W
Fore
310 0 m 1,0,-1
 192 0 l 1,1,-1
 192 271 l 1,2,-1
 11 621 l 1,3,-1
 134 654 l 1,4,-1
 263 371 l 1,5,-1
 399 654 l 1,6,-1
 491 621 l 1,7,-1
 310 271 l 1,8,-1
 310 0 l 1,0,-1
EndSplineSet
EndChar
StartChar: Z
Encoding: 90 90 61
Width: 544
Flags: W
Fore
478 99 m 1,0,-1
 478 0 l 1,1,-1
 61 0 l 1,2,-1
 35 74 l 1,3,-1
 342 550 l 1,4,-1
 68 548 l 1,5,-1
 68 639 l 1,6,-1
 471 639 l 1,7,-1
 494 555 l 1,8,-1
 194 99 l 1,9,-1
 478 99 l 1,0,-1
EndSplineSet
EndChar
StartChar: bracketleft
Encoding: 91 91 62
Width: 225
Flags: W
Fore
72 740 m 1,0,-1
 228 740 l 1,1,-1
 228 653 l 1,2,-1
 170 653 l 1,3,-1
 170 -9 l 1,4,-1
 235 -9 l 1,5,-1
 235 -114 l 1,6,-1
 72 -114 l 1,7,-1
 72 740 l 1,0,-1
EndSplineSet
EndChar
StartChar: backslash
Encoding: 92 92 63
Width: 385
Flags: W
Fore
6 683 m 1,0,-1
 115 707 l 1,1,-1
 394 -149 l 1,2,-1
 285 -173 l 1,3,-1
 6 683 l 1,0,-1
EndSplineSet
EndChar
StartChar: bracketright
Encoding: 93 93 64
Width: 266
Flags: W
Fore
50 -9 m 1,0,-1
 115 -9 l 1,1,-1
 115 653 l 1,2,-1
 58 653 l 1,3,-1
 58 740 l 1,4,-1
 210 740 l 1,5,-1
 210 -114 l 1,6,-1
 50 -114 l 1,7,-1
 50 -9 l 1,0,-1
EndSplineSet
EndChar
StartChar: asciicircum
Encoding: 94 94 65
Width: 536
Flags: W
Fore
165 443 m 1,0,-1
 105 515 l 1,1,-1
 267 686 l 1,2,-1
 432 515 l 1,3,-1
 372 443 l 1,4,-1
 267 562 l 1,5,-1
 165 443 l 1,0,-1
EndSplineSet
EndChar
StartChar: underscore
Encoding: 95 95 66
Width: 536
Flags: W
Fore
5 -50 m 1,0,-1
 530 -50 l 1,1,-1
 530 -109 l 1,2,-1
 5 -109 l 1,3,-1
 5 -50 l 1,0,-1
EndSplineSet
EndChar
StartChar: grave
Encoding: 96 96 67
Width: 329
Flags: W
Fore
324 626 m 1,0,-1
 109 715 l 1,1,-1
 47 637 l 1,2,-1
 261 554 l 1,3,-1
 324 626 l 1,0,-1
EndSplineSet
EndChar
StartChar: a
Encoding: 97 97 68
Width: 491
Flags: W
Fore
299 223 m 1,0,1
 269 223 269 223 226 215 c 0,2,3
 178 207 178 207 162 196 c 0,4,5
 138 181 138 181 138 137 c 0,6,7
 138 109 138 109 156 87.5 c 128,-1,8
 174 66 174 66 198 66 c 0,9,10
 259 66 259 66 298 114 c 1,11,-1
 299 223 l 1,0,1
309 54 m 1,12,13
 267 17 267 17 251 6 c 0,14,15
 218 -16 218 -16 185 -16 c 0,16,17
 125 -16 125 -16 85 23 c 0,18,19
 41 66 41 66 41 136 c 0,20,21
 41 219 41 219 89 254 c 0,22,23
 120 275 120 275 211 293 c 0,24,25
 258 302 258 302 296 306 c 1,26,-1
 296 358 l 2,27,28
 296 380 296 380 278 399.5 c 128,-1,29
 260 419 260 419 236 419 c 0,30,31
 145 419 145 419 88 351 c 1,32,-1
 45 412 l 1,33,34
 72 457 72 457 134 486 c 0,35,36
 188 512 188 512 236 512 c 0,37,38
 307 512 307 512 355.5 466 c 128,-1,39
 404 420 404 420 404 349 c 2,40,-1
 404 98 l 2,41,42
 404 92 404 92 411.5 84 c 128,-1,43
 419 76 419 76 427 76 c 0,44,45
 459 76 459 76 469 86 c 1,46,-1
 480 22 l 1,47,48
 419 -11 419 -11 382 -11 c 0,49,50
 367 -11 367 -11 343 7 c 0,51,52
 316 28 316 28 309 54 c 1,12,13
EndSplineSet
EndChar
StartChar: b
Encoding: 98 98 69
Width: 515
Flags: W
Fore
163 46 m 1,0,-1
 155 -1 l 1,1,-1
 64 -1 l 1,2,-1
 64 700 l 1,3,-1
 172 700 l 1,4,-1
 172 434 l 1,5,6
 191 468 191 468 237 494 c 0,7,8
 279 518 279 518 310 518 c 0,9,10
 389 518 389 518 437 442 c 0,11,12
 478 375 478 375 478 285 c 0,13,14
 478 -10 478 -10 282 -10 c 0,15,16
 247 -10 247 -10 163 46 c 1,0,-1
172 335 m 1,17,-1
 172 128 l 1,18,19
 187 110 187 110 218.5 95 c 128,-1,20
 250 80 250 80 274 80 c 0,21,22
 331 80 331 80 351 147 c 0,23,24
 363 187 363 187 363 271 c 0,25,26
 363 429 363 429 274 429 c 0,27,28
 218 429 218 429 172 335 c 1,17,-1
EndSplineSet
EndChar
StartChar: c
Encoding: 99 99 70
Width: 479
Flags: W
Fore
39 242 m 0,0,1
 39 376 39 376 117 449 c 0,2,3
 182 512 182 512 275 511 c 0,4,5
 332 511 332 511 427 447 c 1,6,-1
 394 378 l 1,7,8
 329 431 329 431 266 431 c 0,9,10
 212 431 212 431 182 367 c 0,11,12
 156 313 156 313 156 239 c 0,13,14
 156 162 156 162 188.5 114.5 c 128,-1,15
 221 67 221 67 273 67 c 0,16,17
 332 67 332 67 403 131 c 1,18,-1
 448 72 l 1,19,20
 409 27 409 27 369 7.5 c 128,-1,21
 329 -12 329 -12 273 -12 c 0,22,23
 142 -12 142 -12 81 91 c 0,24,25
 39 160 39 160 39 242 c 0,0,1
EndSplineSet
EndChar
StartChar: d
Encoding: 100 100 71
Width: 511
Flags: W
Fore
356 -1 m 1,0,-1
 348 49 l 1,1,2
 318 30 318 30 287 11 c 0,3,4
 245 -13 245 -13 222 -13 c 0,5,6
 131 -13 131 -13 80 73 c 0,7,8
 37 145 37 145 37 248 c 256,9,10
 37 351 37 351 81 431 c 0,11,12
 129 518 129 518 200 518 c 0,13,14
 251 518 251 518 278 506 c 0,15,16
 293 499 293 499 340 462 c 1,17,-1
 340 697 l 1,18,-1
 448 697 l 1,19,-1
 448 -1 l 1,20,-1
 356 -1 l 1,0,-1
237 429 m 0,21,22
 155 429 155 429 155 259 c 0,23,24
 155 180 155 180 177 131 c 0,25,26
 201 75 201 75 246 75 c 0,27,28
 276 75 276 75 340 127 c 1,29,-1
 340 342 l 1,30,31
 307 389 307 389 297 399 c 0,32,33
 269 429 269 429 237 429 c 0,21,22
EndSplineSet
EndChar
StartChar: e
Encoding: 101 101 72
Width: 491
Flags: W
Fore
275 68 m 0,0,1
 340 67 340 67 405 131 c 1,2,-1
 450 70 l 1,3,4
 398 20 398 20 359 3 c 0,5,6
 324 -12 324 -12 268 -12 c 0,7,8
 137 -12 137 -12 77 96 c 0,9,10
 39 166 39 166 39 247 c 0,11,12
 39 360 39 360 99 433 c 0,13,14
 163 510 163 510 272 510 c 0,15,16
 347 510 347 510 398 460 c 0,17,18
 454 405 454 405 454 313 c 2,19,-1
 454 238 l 1,20,-1
 158 238 l 1,21,22
 160 69 160 69 275 68 c 0,0,1
345 323 m 1,23,24
 350 432 350 432 265 432 c 0,25,26
 231 432 231 432 205 406 c 0,27,28
 174 376 174 376 165 323 c 1,29,-1
 345 323 l 1,23,24
EndSplineSet
EndChar
StartChar: f
Encoding: 102 102 73
Width: 324
Flags: W
Fore
234 657 m 0,0,1
 191 658 191 658 191 559 c 0,2,3
 191 546 191 546 192 525 c 128,-1,4
 193 504 193 504 193 498 c 1,5,-1
 317 498 l 1,6,-1
 317 408 l 1,7,-1
 193 408 l 1,8,-1
 193 0 l 1,9,-1
 88 0 l 1,10,-1
 88 408 l 1,11,-1
 18 408 l 1,12,-1
 18 498 l 1,13,-1
 88 498 l 1,14,-1
 88 551 l 2,15,16
 88 746 88 746 233 746 c 0,17,18
 279 746 279 746 303 732 c 0,19,20
 308 729 308 729 352 690 c 1,21,-1
 304 623 l 1,22,23
 265 656 265 656 234 657 c 0,0,1
EndSplineSet
EndChar
StartChar: g
Encoding: 103 103 74
Width: 511
Flags: W
Fore
427 323 m 0,0,1
 427 243 427 243 374 190 c 128,-1,2
 321 137 321 137 242 137 c 0,3,4
 216 137 216 137 186 146 c 1,5,6
 182 140 182 140 165 122 c 0,7,8
 153 109 153 109 153 104 c 0,9,10
 153 73 153 73 199 67 c 0,11,12
 206 66 206 66 271 66 c 0,13,14
 377 66 377 66 407 54 c 0,15,16
 469 30 469 30 469 -60 c 0,17,18
 469 -149 469 -149 367 -200 c 0,19,20
 289 -239 289 -239 208 -239 c 0,21,22
 133 -239 133 -239 87 -207 c 128,-1,23
 41 -175 41 -175 41 -117 c 0,24,25
 41 -63 41 -63 130 -6 c 1,26,27
 91 -6 91 -6 66 18 c 0,28,29
 44 39 44 39 44 68 c 0,30,31
 44 88 44 88 79 121 c 0,32,33
 124 165 124 165 128 170 c 1,34,35
 49 232 49 232 49 320 c 0,36,37
 49 394 49 394 104 449 c 128,-1,38
 159 504 159 504 240 504 c 0,39,40
 334 504 334 504 380 446 c 1,41,-1
 511 505 l 1,42,-1
 511 392 l 1,43,-1
 412 392 l 1,44,45
 427 343 427 343 427 323 c 0,0,1
158 320 m 0,46,47
 158 282 158 282 179 250 c 0,48,49
 203 213 203 213 242 213 c 0,50,51
 277 213 277 213 301 246.5 c 128,-1,52
 325 280 325 280 325 325 c 0,53,54
 325 359 325 359 301 392 c 0,55,56
 274 428 274 428 238 428 c 0,57,58
 201 428 201 428 178 391 c 0,59,60
 158 359 158 359 158 320 c 0,46,47
190 -16 m 1,61,62
 180 -19 180 -19 164 -44 c 128,-1,63
 148 -69 148 -69 148 -93 c 0,64,65
 148 -131 148 -131 163 -147 c 0,66,67
 182 -167 182 -167 233 -167 c 0,68,69
 282 -167 282 -167 324 -133 c 128,-1,70
 366 -99 366 -99 366 -63 c 0,71,72
 366 -33 366 -33 344 -23 c 0,73,74
 328 -16 328 -16 284 -16 c 2,75,-1
 190 -16 l 1,61,62
EndSplineSet
EndChar
StartChar: h
Encoding: 104 104 75
Width: 512
Flags: W
Fore
342 326 m 2,0,1
 342 420 342 420 286 420 c 0,2,3
 242 420 242 420 202 373 c 0,4,5
 170 335 170 335 170 319 c 2,6,-1
 170 0 l 1,7,-1
 63 0 l 1,8,-1
 63 696 l 1,9,-1
 170 696 l 1,10,-1
 170 406 l 1,11,12
 226 511 226 511 292 511 c 0,13,14
 350 511 350 511 398 465 c 0,15,16
 449 414 449 414 449 339 c 2,17,-1
 449 0 l 1,18,-1
 342 0 l 1,19,-1
 342 326 l 2,0,1
EndSplineSet
EndChar
StartChar: i
Encoding: 105 105 76
Width: 233
Flags: W
Fore
43 657 m 256,0,1
 43 689 43 689 65 710 c 128,-1,2
 87 731 87 731 117 731 c 0,3,4
 146 731 146 731 168 710 c 128,-1,5
 190 689 190 689 190 657 c 256,6,7
 190 625 190 625 168.5 603.5 c 128,-1,8
 147 582 147 582 117 582 c 256,9,10
 87 582 87 582 65 603.5 c 128,-1,11
 43 625 43 625 43 657 c 256,0,1
63 495 m 1,12,-1
 170 495 l 1,13,-1
 170 0 l 1,14,-1
 63 0 l 1,15,-1
 63 495 l 1,12,-1
EndSplineSet
EndChar
StartChar: j
Encoding: 106 106 77
Width: 233
Flags: W
Fore
194 658 m 256,0,1
 194 626 194 626 172 605 c 128,-1,2
 150 584 150 584 120 584 c 256,3,4
 90 584 90 584 68 605 c 128,-1,5
 46 626 46 626 46 658 c 256,6,7
 46 690 46 690 68 711 c 128,-1,8
 90 732 90 732 120 732 c 256,9,10
 150 732 150 732 172 711 c 128,-1,11
 194 690 194 690 194 658 c 256,0,1
119 -171 m 0,12,13
 83 -196 83 -196 8 -223 c 1,14,-1
 -30 -132 l 1,15,16
 54 -107 54 -107 62 -64 c 0,17,18
 63 -59 63 -59 63 -13 c 2,19,-1
 63 495 l 1,20,-1
 171 495 l 1,21,-1
 171 -55 l 2,22,23
 171 -134 171 -134 119 -171 c 0,12,13
EndSplineSet
EndChar
StartChar: k
Encoding: 107 107 78
Width: 476
Flags: W
Fore
200 222 m 1,0,-1
 170 178 l 1,1,-1
 170 -1 l 1,2,-1
 63 -1 l 1,3,-1
 63 697 l 1,4,-1
 170 697 l 1,5,-1
 170 289 l 1,6,-1
 348 536 l 1,7,-1
 442 471 l 1,8,-1
 258 275 l 1,9,-1
 475 31 l 1,10,-1
 379 -31 l 1,11,-1
 200 222 l 1,0,-1
EndSplineSet
EndChar
StartChar: l
Encoding: 108 108 79
Width: 234
Flags: W
Fore
64 698 m 1,0,-1
 170 698 l 1,1,-1
 170 0 l 1,2,-1
 64 0 l 1,3,-1
 64 698 l 1,0,-1
EndSplineSet
EndChar
StartChar: m
Encoding: 109 109 80
Width: 776
Flags: W
Fore
601 339 m 2,0,1
 601 420 601 420 547 420 c 0,2,3
 522 420 522 420 486 386 c 0,4,5
 443 345 443 345 443 297 c 2,6,-1
 443 0 l 1,7,-1
 331 0 l 1,8,-1
 331 324 l 2,9,10
 331 361 331 361 312.5 388.5 c 128,-1,11
 294 416 294 416 272 416 c 0,12,13
 242 416 242 416 206 374 c 128,-1,14
 170 332 170 332 170 306 c 2,15,-1
 170 0 l 1,16,-1
 63 0 l 1,17,-1
 63 496 l 1,18,-1
 170 496 l 1,19,-1
 170 407 l 1,20,21
 233 507 233 507 299 507 c 0,22,23
 335 507 335 507 370.5 478 c 128,-1,24
 406 449 406 449 422 412 c 1,25,26
 497 512 497 512 563 512 c 0,27,28
 631 512 631 512 674 457 c 0,29,30
 713 408 713 408 713 344 c 2,31,-1
 713 0 l 1,32,-1
 601 0 l 1,33,-1
 601 339 l 2,0,1
EndSplineSet
EndChar
StartChar: n
Encoding: 110 110 81
Width: 512
Flags: W
Fore
342 320 m 2,0,1
 342 370 342 370 324 397 c 0,2,3
 309 421 309 421 285 421 c 0,4,5
 248 421 248 421 209 378.5 c 128,-1,6
 170 336 170 336 170 303 c 2,7,-1
 170 0 l 1,8,-1
 63 0 l 1,9,-1
 63 496 l 1,10,-1
 170 496 l 1,11,-1
 170 407 l 1,12,13
 231 511 231 511 293 511 c 0,14,15
 356 511 356 511 401 462 c 0,16,17
 449 410 449 410 449 332 c 2,18,-1
 449 0 l 1,19,-1
 342 0 l 1,20,-1
 342 320 l 2,0,1
EndSplineSet
EndChar
StartChar: o
Encoding: 111 111 82
Width: 546
Flags: W
Fore
39 252 m 0,0,1
 39 380 39 380 120 452 c 0,2,3
 187 512 187 512 276 512 c 0,4,5
 364 512 364 512 429 452 c 0,6,7
 507 381 507 381 507 252 c 0,8,9
 507 164 507 164 462 91 c 0,10,11
 399 -11 399 -11 275 -11 c 0,12,13
 140 -11 140 -11 79 92 c 0,14,15
 39 160 39 160 39 252 c 0,0,1
155 246 m 0,16,17
 155 174 155 174 184 124 c 0,18,19
 216 67 216 67 271 67 c 0,20,21
 328 67 328 67 361 125 c 0,22,23
 391 176 391 176 391 251 c 0,24,25
 391 324 391 324 364 375 c 0,26,27
 333 433 333 433 280 433 c 0,28,29
 219 433 219 433 185 374 c 0,30,31
 155 322 155 322 155 246 c 0,16,17
EndSplineSet
EndChar
StartChar: p
Encoding: 112 112 83
Width: 517
Flags: W
Fore
170 28 m 1,0,-1
 170 -197 l 1,1,-1
 63 -197 l 1,2,-1
 63 496 l 1,3,-1
 170 496 l 1,4,-1
 170 414 l 1,5,6
 183 453 183 453 224 483 c 128,-1,7
 265 513 265 513 306 513 c 0,8,9
 400 513 400 513 444 433 c 0,10,11
 480 368 480 368 480 261 c 0,12,13
 480 -23 480 -23 272 -23 c 0,14,15
 242 -23 242 -23 170 28 c 1,0,-1
170 310 m 1,16,-1
 170 114 l 1,17,18
 232 68 232 68 273 68 c 0,19,20
 319 68 319 68 344 130 c 0,21,22
 364 180 364 180 364 248 c 0,23,24
 364 327 364 327 348 366 c 0,25,26
 327 421 327 421 271 421 c 0,27,28
 247 421 247 421 212 378 c 0,29,30
 180 340 180 340 170 310 c 1,16,-1
EndSplineSet
EndChar
StartChar: q
Encoding: 113 113 84
Width: 511
Flags: W
Fore
338 450 m 1,0,-1
 338 496 l 1,1,-1
 445 496 l 1,2,-1
 445 -197 l 1,3,-1
 338 -197 l 1,4,-1
 338 43 l 1,5,6
 286 6 286 6 276 0 c 0,7,8
 237 -23 237 -23 212 -23 c 0,9,10
 128 -23 128 -23 81 59 c 0,11,12
 37 134 37 134 37 252 c 0,13,14
 37 338 37 338 77 416 c 0,15,16
 124 508 124 508 198 508 c 0,17,18
 244 508 244 508 275 493 c 0,19,20
 295 484 295 484 338 450 c 1,0,-1
245 422 m 0,21,22
 152 421 152 421 152 243 c 0,23,24
 152 171 152 171 178 118 c 128,-1,25
 204 65 204 65 244 65 c 0,26,27
 258 65 258 65 288 93 c 0,28,29
 334 135 334 135 338 138 c 1,30,-1
 338 341 l 1,31,32
 329 368 329 368 300 395 c 128,-1,33
 271 422 271 422 245 422 c 0,21,22
EndSplineSet
EndChar
StartChar: r
Encoding: 114 114 85
Width: 338
Flags: W
Fore
250 384 m 0,0,1
 221 383 221 383 194 353 c 0,2,3
 170 327 170 327 170 312 c 2,4,-1
 170 0 l 1,5,-1
 63 0 l 1,6,-1
 63 496 l 1,7,-1
 170 496 l 1,8,-1
 170 415 l 1,9,10
 183 446 183 446 206 474 c 0,11,12
 233 506 233 506 256 506 c 0,13,14
 294 506 294 506 318 496 c 1,15,-1
 306 372 l 1,16,17
 289 382 289 382 280 384 c 0,18,19
 275 385 275 385 250 384 c 0,0,1
EndSplineSet
EndChar
StartChar: s
Encoding: 115 115 86
Width: 437
Flags: W
Fore
46 66 m 1,0,-1
 102 141 l 1,1,2
 155 71 155 71 219 71 c 0,3,4
 251 71 251 71 270.5 89 c 128,-1,5
 290 107 290 107 290 135 c 0,6,7
 290 185 290 185 176 218 c 0,8,9
 119 234 119 234 93 259 c 0,10,11
 59 292 59 292 59 349 c 0,12,13
 59 430 59 430 112 475 c 0,14,15
 157 514 157 514 223 514 c 2,16,-1
 225 514 l 2,17,18
 292 514 292 514 377 460 c 1,19,-1
 338 386 l 1,20,21
 280 427 280 427 232 427 c 0,22,23
 200 427 200 427 182.5 410 c 128,-1,24
 165 393 165 393 165 371 c 0,25,26
 165 344 165 344 187 335 c 0,27,28
 222 321 222 321 255 311 c 0,29,30
 399 268 399 268 399 165 c 0,31,32
 399 78 399 78 342 29 c 0,33,34
 291 -14 291 -14 215 -14 c 0,35,36
 107 -14 107 -14 46 66 c 1,0,-1
EndSplineSet
EndChar
StartChar: t
Encoding: 116 116 87
Width: 351
Flags: W
Fore
91 154 m 2,0,-1
 91 410 l 1,1,-1
 21 410 l 1,2,-1
 21 492 l 1,3,-1
 91 492 l 1,4,-1
 91 597 l 1,5,-1
 204 597 l 1,6,-1
 204 492 l 1,7,-1
 304 492 l 1,8,-1
 304 409 l 1,9,-1
 204 410 l 1,10,-1
 204 143 l 2,11,12
 204 79 204 79 241 79 c 0,13,14
 271 79 271 79 281 83 c 2,15,16
 282 83 282 83 315 102 c 1,17,-1
 339 33 l 1,18,19
 288 5 288 5 270 -1 c 0,20,21
 245 -8 245 -8 191 -8 c 0,22,23
 91 -8 91 -8 91 154 c 2,0,-1
EndSplineSet
EndChar
StartChar: u
Encoding: 117 117 88
Width: 511
Flags: W
Fore
349 0 m 1,0,1
 346 27 346 27 339 71 c 1,2,3
 270 -18 270 -18 215 -18 c 0,4,5
 153 -18 153 -18 109 31 c 0,6,7
 63 84 63 84 63 166 c 2,8,-1
 63 495 l 1,9,-1
 170 495 l 1,10,-1
 170 169 l 2,11,12
 170 75 170 75 222 75 c 0,13,14
 258 75 258 75 300 121 c 0,15,16
 339 163 339 163 339 189 c 2,17,-1
 339 495 l 1,18,-1
 446 495 l 1,19,-1
 446 0 l 1,20,-1
 349 0 l 1,0,1
EndSplineSet
EndChar
StartChar: v
Encoding: 118 118 89
Width: 464
Flags: W
Fore
196 -12 m 1,0,-1
 16 474 l 1,1,-1
 124 505 l 1,2,-1
 236 121 l 1,3,-1
 343 505 l 1,4,-1
 448 474 l 1,5,-1
 272 -12 l 1,6,-1
 196 -12 l 1,0,-1
EndSplineSet
EndChar
StartChar: w
Encoding: 119 119 90
Width: 735
Flags: W
Fore
479 -9 m 1,0,-1
 370 307 l 1,1,-1
 259 -9 l 1,2,-1
 172 -9 l 1,3,-1
 22 475 l 1,4,-1
 132 503 l 1,5,-1
 225 119 l 1,6,-1
 326 493 l 1,7,-1
 420 493 l 1,8,-1
 525 120 l 1,9,-1
 612 503 l 1,10,-1
 719 475 l 1,11,-1
 564 -9 l 1,12,-1
 479 -9 l 1,0,-1
EndSplineSet
EndChar
StartChar: x
Encoding: 120 120 91
Width: 488
Flags: W
Fore
243 183 m 1,0,-1
 99 -31 l 1,1,-1
 6 32 l 1,2,-1
 176 246 l 1,3,-1
 24 454 l 1,4,-1
 124 514 l 1,5,-1
 249 317 l 1,6,-1
 378 513 l 1,7,-1
 467 462 l 1,8,-1
 308 251 l 1,9,-1
 482 31 l 1,10,-1
 389 -33 l 1,11,-1
 243 183 l 1,0,-1
EndSplineSet
EndChar
StartChar: y
Encoding: 121 121 92
Width: 480
Flags: W
Fore
114 -196 m 0,0,1
 86 -196 86 -196 17 -172 c 1,2,-1
 49 -77 l 1,3,4
 86 -97 86 -97 119 -97 c 0,5,6
 170 -98 170 -98 205 32 c 1,7,-1
 23 473 l 1,8,-1
 137 503 l 1,9,-1
 255 137 l 1,10,-1
 363 501 l 1,11,-1
 464 476 l 1,12,-1
 265 -78 l 2,13,14
 247 -125 247 -125 212 -157 c 0,15,16
 169 -196 169 -196 114 -196 c 0,0,1
EndSplineSet
EndChar
StartChar: z
Encoding: 122 122 93
Width: 482
Flags: W
Fore
53 77 m 1,0,-1
 256 355 l 2,1,2
 266 370 266 370 295 408 c 1,3,-1
 62 408 l 1,4,-1
 62 494 l 1,5,-1
 427 494 l 1,6,-1
 427 414 l 1,7,-1
 239 152 l 2,8,9
 226 131 226 131 197 92 c 1,10,-1
 439 92 l 1,11,-1
 439 0 l 1,12,-1
 53 0 l 1,13,-1
 53 77 l 1,0,-1
EndSplineSet
EndChar
StartChar: braceleft
Encoding: 123 123 94
Width: 536
Flags: W
Fore
332 725 m 0,0,1
 293 725 293 725 284 686 c 0,2,3
 281 675 281 675 281 614 c 0,4,5
 281 589 281 589 283.5 545 c 128,-1,6
 286 501 286 501 286 487 c 0,7,8
 286 412 286 412 213 339 c 1,9,-1
 213 332 l 1,10,11
 245 303 245 303 268 258 c 0,12,13
 295 203 295 203 295 146 c 0,14,15
 295 124 295 124 291.5 67.5 c 128,-1,16
 288 11 288 11 288 -10 c 0,17,18
 288 -65 288 -65 291 -75 c 0,19,20
 296 -90 296 -90 315 -90 c 0,21,22
 358 -90 358 -90 385 -65 c 1,23,-1
 415 -184 l 1,24,25
 368 -200 368 -200 312 -197 c 0,26,27
 220 -192 220 -192 190 -106 c 0,28,29
 173 -56 173 -56 173 61 c 0,30,31
 173 75 173 75 175 114.5 c 128,-1,32
 177 154 177 154 177 177 c 0,33,34
 177 252 177 252 112 310 c 1,35,-1
 113 365 l 1,36,37
 149 407 149 407 157 420 c 0,38,39
 177 452 177 452 177 490 c 0,40,41
 177 514 177 514 174.5 558 c 128,-1,42
 172 602 172 602 172 621 c 0,43,44
 172 834 172 834 330 834 c 0,45,46
 356 834 356 834 416 819 c 1,47,-1
 396 707 l 1,48,49
 345 725 345 725 332 725 c 0,0,1
EndSplineSet
EndChar
StartChar: bar
Encoding: 124 124 95
Width: 229
Flags: W
Fore
65 686 m 1,0,-1
 193 686 l 1,1,-1
 193 -220 l 1,2,-1
 65 -220 l 1,3,-1
 65 686 l 1,0,-1
EndSplineSet
EndChar
StartChar: braceright
Encoding: 125 125 96
Width: 536
Flags: W
Fore
369 61 m 0,0,1
 369 -57 369 -57 352 -107 c 0,2,3
 323 -192 323 -192 231 -197 c 0,4,5
 174 -200 174 -200 128 -184 c 1,6,-1
 157 -65 l 1,7,8
 185 -90 185 -90 228 -90 c 0,9,10
 245 -90 245 -90 249.5 -81.5 c 128,-1,11
 254 -73 254 -73 255 -49 c 2,12,13
 255 -10 l 2,14,15
 255 11 255 11 251.5 67.5 c 128,-1,16
 248 124 248 124 248 146 c 0,17,18
 248 203 248 203 276 258 c 0,19,20
 298 303 298 303 330 332 c 1,21,-1
 330 339 l 1,22,23
 257 412 257 412 257 487 c 0,24,25
 257 501 257 501 259.5 545 c 128,-1,26
 262 589 262 589 262 614 c 0,27,28
 262 675 262 675 259 686 c 0,29,30
 250 725 250 725 211 725 c 0,31,32
 198 725 198 725 147 707 c 1,33,-1
 127 819 l 1,34,35
 187 834 187 834 213 834 c 0,36,37
 371 834 371 834 371 621 c 0,38,39
 371 602 371 602 368.5 558 c 128,-1,40
 366 514 366 514 366 490 c 0,41,42
 366 452 366 452 386 420 c 0,43,44
 394 407 394 407 430 365 c 1,45,-1
 431 310 l 1,46,47
 366 252 366 252 366 177 c 0,48,49
 366 154 366 154 367.5 114.5 c 128,-1,50
 369 75 369 75 369 61 c 0,0,1
EndSplineSet
EndChar
StartChar: asciitilde
Encoding: 126 126 97
Width: 395
Flags: W
Fore
209 403 m 0,0,1
 184 420 184 420 174 420 c 0,2,3
 162 420 162 420 149 407 c 0,4,5
 141 399 141 399 110 360 c 1,6,-1
 81 453 l 1,7,8
 125 497 125 497 176 497 c 0,9,10
 209 497 209 497 241 479 c 128,-1,11
 273 461 273 461 278 461 c 0,12,13
 289 460 289 460 309 481 c 0,14,15
 319 493 319 493 329 504 c 1,16,-1
 355 417 l 1,17,18
 310 379 310 379 271 379 c 0,19,20
 244 379 244 379 209 403 c 0,0,1
EndSplineSet
EndChar
StartChar: Adieresis
Encoding: 196 196 98
Width: 580
Flags: W
Fore
377 168 m 1,0,-1
 196 168 l 1,1,-1
 142 -12 l 1,2,-1
 29 2 l 1,3,-1
 236 654 l 1,4,-1
 338 654 l 1,5,-1
 549 7 l 1,6,-1
 433 -12 l 1,7,-1
 377 168 l 1,0,-1
223 261 m 1,8,-1
 350 261 l 1,9,-1
 287 483 l 1,10,-1
 223 261 l 1,8,-1
326 758 m 0,11,12
 326 785 326 785 342 805 c 0,13,14
 362 830 362 830 396 830 c 0,15,16
 428 830 428 830 449 805 c 0,17,18
 466 784 466 784 466 758 c 0,19,20
 466 731 466 731 449 710 c 0,21,22
 429 686 429 686 396 686 c 0,23,24
 362 686 362 686 342 710 c 0,25,26
 326 730 326 730 326 758 c 0,11,12
116 758 m 0,27,28
 116 785 116 785 132 805 c 0,29,30
 152 830 152 830 186 830 c 0,31,32
 219 830 219 830 239 805 c 0,33,34
 256 784 256 784 256 758 c 0,35,36
 256 731 256 731 239 710 c 0,37,38
 219 686 219 686 186 686 c 0,39,40
 152 686 152 686 133 710 c 0,41,42
 116 730 116 730 116 758 c 0,27,28
EndSplineSet
EndChar
StartChar: Aring
Encoding: 197 197 99
Width: 580
Flags: W
Fore
377 168 m 1,0,-1
 196 168 l 1,1,-1
 142 -12 l 1,2,-1
 29 2 l 1,3,-1
 236 654 l 1,4,-1
 338 654 l 1,5,-1
 549 7 l 1,6,-1
 433 -12 l 1,7,-1
 377 168 l 1,0,-1
223 261 m 1,8,-1
 350 261 l 1,9,-1
 287 483 l 1,10,-1
 223 261 l 1,8,-1
293 686 m 256,11,12
 253 686 253 686 227.5 710.5 c 128,-1,13
 202 735 202 735 202 773 c 0,14,15
 202 810 202 810 227.5 834.5 c 128,-1,16
 253 859 253 859 293 859 c 256,17,18
 333 859 333 859 358.5 834.5 c 128,-1,19
 384 810 384 810 384 773 c 0,20,21
 384 735 384 735 358.5 710.5 c 128,-1,22
 333 686 333 686 293 686 c 256,11,12
293 816 m 256,23,24
 260 816 260 816 260 773 c 0,25,26
 260 729 260 729 293 729 c 256,27,28
 326 729 326 729 326 773 c 0,29,30
 326 816 326 816 293 816 c 256,23,24
EndSplineSet
EndChar
StartChar: Ccedilla
Encoding: 199 199 100
Width: 570
Flags: W
Fore
348 -219 m 0,0,1
 284 -219 284 -219 261 -171 c 1,2,-1
 298 -137 l 1,3,4
 326 -169 326 -169 349 -169 c 0,5,6
 384 -169 384 -169 384 -135 c 0,7,8
 384 -96 384 -96 351 -96 c 0,9,10
 337 -96 337 -96 316 -111 c 1,11,-1
 270 -90 l 1,12,-1
 275 -6 l 1,13,14
 158 9 158 9 94 112 c 0,15,16
 37 202 37 202 37 329 c 0,17,18
 37 459 37 459 104 552 c 0,19,20
 180 659 180 659 315 660 c 0,21,22
 406 661 406 661 514 597 c 1,23,-1
 463 488 l 1,24,25
 429 511 429 511 395 533 c 0,26,27
 352 559 352 559 320 559 c 0,28,29
 239 559 239 559 193 474 c 0,30,31
 156 405 156 405 156 318 c 0,32,33
 156 222 156 222 202 158.5 c 128,-1,34
 248 95 248 95 312 95 c 0,35,36
 366 95 366 95 467 152 c 1,37,-1
 522 58 l 1,38,39
 454 21 454 21 422 10 c 0,40,41
 380 -6 380 -6 332 -8 c 1,42,-1
 329 -47 l 1,43,44
 338 -43 338 -43 354 -43 c 0,45,46
 396 -43 396 -43 422 -72 c 0,47,48
 444 -97 444 -97 444 -132 c 256,49,50
 444 -167 444 -167 419 -193 c 128,-1,51
 394 -219 394 -219 348 -219 c 0,0,1
EndSplineSet
EndChar
StartChar: Eacute
Encoding: 201 201 101
Width: 469
Flags: W
Fore
185 391 m 1,0,-1
 411 391 l 1,1,-1
 411 292 l 1,2,-1
 185 293 l 1,3,-1
 185 109 l 1,4,-1
 425 110 l 1,5,-1
 425 0 l 1,6,-1
 68 0 l 1,7,-1
 68 640 l 1,8,-1
 427 640 l 1,9,-1
 427 535 l 1,10,-1
 185 535 l 1,11,-1
 185 391 l 1,0,-1
116 756 m 1,12,-1
 330 845 l 1,13,-1
 392 767 l 1,14,-1
 178 684 l 1,15,-1
 116 756 l 1,12,-1
EndSplineSet
EndChar
StartChar: Ntilde
Encoding: 209 209 102
Width: 570
Flags: W
Fore
181 395 m 1,0,-1
 181 1 l 1,1,-1
 68 -1 l 1,2,-1
 68 644 l 1,3,-1
 164 644 l 1,4,-1
 412 259 l 1,5,-1
 412 640 l 1,6,-1
 524 640 l 1,7,-1
 524 15 l 1,8,-1
 439 -15 l 1,9,10
 362 127 362 127 181 395 c 1,0,-1
300 689 m 0,11,12
 264 712 264 712 256 712 c 0,13,14
 230 712 230 712 190 665 c 1,15,-1
 151 743 l 1,16,17
 190 793 190 793 256 795 c 0,18,19
 286 796 286 796 325 769 c 128,-1,20
 364 742 364 742 374 742 c 0,21,22
 387 742 387 742 425 773 c 1,23,-1
 462 697 l 1,24,25
 446 681 446 681 418.5 670 c 128,-1,26
 391 659 391 659 376 659 c 0,27,28
 347 659 347 659 300 689 c 0,11,12
EndSplineSet
EndChar
StartChar: Odieresis
Encoding: 214 214 103
Width: 648
Flags: W
Fore
37 322 m 0,0,1
 37 462 37 462 120 554 c 128,-1,2
 203 646 203 646 331 646 c 256,3,4
 459 646 459 646 538.5 554 c 128,-1,5
 618 462 618 462 618 322 c 0,6,7
 618 163 618 163 532 71 c 0,8,9
 451 -16 451 -16 324 -16 c 0,10,11
 198 -16 198 -16 120 71 c 0,12,13
 37 163 37 163 37 322 c 0,0,1
152 313 m 0,14,15
 152 219 152 219 202 151.5 c 128,-1,16
 252 84 252 84 324 84 c 0,17,18
 397 84 397 84 450.5 151.5 c 128,-1,19
 504 219 504 219 504 312 c 0,20,21
 504 409 504 409 454 478.5 c 128,-1,22
 404 548 404 548 329 548 c 256,23,24
 254 548 254 548 203 478.5 c 128,-1,25
 152 409 152 409 152 313 c 0,14,15
369 748 m 0,26,27
 369 775 369 775 385 795 c 0,28,29
 405 820 405 820 439 820 c 0,30,31
 471 820 471 820 492 795 c 0,32,33
 509 774 509 774 509 748 c 0,34,35
 509 721 509 721 492 700 c 0,36,37
 472 676 472 676 439 676 c 0,38,39
 405 676 405 676 385 700 c 0,40,41
 369 720 369 720 369 748 c 0,26,27
159 748 m 0,42,43
 159 775 159 775 175 795 c 0,44,45
 195 820 195 820 229 820 c 0,46,47
 262 820 262 820 282 795 c 0,48,49
 299 774 299 774 299 748 c 0,50,51
 299 721 299 721 282 700 c 0,52,53
 262 676 262 676 229 676 c 0,54,55
 195 676 195 676 176 700 c 0,56,57
 159 720 159 720 159 748 c 0,42,43
EndSplineSet
EndChar
StartChar: Udieresis
Encoding: 220 220 104
Width: 521
Flags: W
Fore
283 -17 m 0,0,1
 191 -17 191 -17 134 42 c 0,2,3
 68 108 68 108 68 235 c 2,4,-1
 68 640 l 1,5,-1
 187 640 l 1,6,-1
 187 235 l 2,7,8
 187 81 187 81 285 81 c 0,9,10
 329 81 329 81 359 115 c 0,11,12
 394 156 394 156 394 235 c 2,13,-1
 394 640 l 1,14,-1
 513 640 l 1,15,-1
 513 235 l 2,16,17
 513 109 513 109 439 41 c 0,18,19
 376 -17 376 -17 283 -17 c 0,0,1
316 748 m 0,20,21
 316 774 316 774 333 795 c 0,22,23
 352 820 352 820 386 820 c 0,24,25
 419 820 419 820 439 795 c 0,26,27
 456 774 456 774 456 748 c 0,28,29
 456 721 456 721 439 700 c 0,30,31
 419 676 419 676 386 676 c 0,32,33
 352 676 352 676 333 700 c 0,34,35
 316 720 316 720 316 748 c 0,20,21
107 748 m 0,36,37
 107 775 107 775 123 795 c 0,38,39
 143 820 143 820 177 820 c 0,40,41
 209 820 209 820 229 795 c 0,42,43
 246 774 246 774 246 748 c 0,44,45
 246 721 246 721 229 700 c 0,46,47
 210 676 210 676 177 676 c 0,48,49
 143 676 143 676 123 700 c 0,50,51
 107 720 107 720 107 748 c 0,36,37
EndSplineSet
EndChar
StartChar: aacute
Encoding: 225 225 105
Width: 491
Flags: W
Fore
126 626 m 1,0,-1
 341 715 l 1,1,-1
 403 637 l 1,2,-1
 189 554 l 1,3,-1
 126 626 l 1,0,-1
299 223 m 1,4,5
 269 223 269 223 226 215 c 0,6,7
 178 207 178 207 162 196 c 0,8,9
 138 181 138 181 138 137 c 0,10,11
 138 109 138 109 156 87.5 c 128,-1,12
 174 66 174 66 198 66 c 0,13,14
 259 66 259 66 298 114 c 1,15,-1
 299 223 l 1,4,5
309 54 m 1,16,17
 267 17 267 17 251 6 c 0,18,19
 218 -16 218 -16 185 -16 c 0,20,21
 125 -16 125 -16 85 23 c 0,22,23
 41 66 41 66 41 136 c 0,24,25
 41 219 41 219 89 254 c 0,26,27
 120 275 120 275 211 293 c 0,28,29
 258 302 258 302 296 306 c 1,30,-1
 296 358 l 2,31,32
 296 380 296 380 278 399.5 c 128,-1,33
 260 419 260 419 236 419 c 0,34,35
 145 419 145 419 88 351 c 1,36,-1
 45 412 l 1,37,38
 72 457 72 457 134 486 c 0,39,40
 188 512 188 512 236 512 c 0,41,42
 307 512 307 512 355.5 466 c 128,-1,43
 404 420 404 420 404 349 c 2,44,-1
 404 98 l 2,45,46
 404 92 404 92 411.5 84 c 128,-1,47
 419 76 419 76 427 76 c 0,48,49
 459 76 459 76 469 86 c 1,50,-1
 480 22 l 1,51,52
 419 -11 419 -11 382 -11 c 0,53,54
 367 -11 367 -11 343 7 c 0,55,56
 316 28 316 28 309 54 c 1,16,17
EndSplineSet
EndChar
StartChar: agrave
Encoding: 224 224 106
Width: 491
Flags: W
Fore
374 626 m 1,0,-1
 159 715 l 1,1,-1
 97 637 l 1,2,-1
 311 554 l 1,3,-1
 374 626 l 1,0,-1
299 223 m 1,4,5
 269 223 269 223 226 215 c 0,6,7
 178 207 178 207 162 196 c 0,8,9
 138 181 138 181 138 137 c 0,10,11
 138 109 138 109 156 87.5 c 128,-1,12
 174 66 174 66 198 66 c 0,13,14
 259 66 259 66 298 114 c 1,15,-1
 299 223 l 1,4,5
309 54 m 1,16,17
 267 17 267 17 251 6 c 0,18,19
 218 -16 218 -16 185 -16 c 0,20,21
 125 -16 125 -16 85 23 c 0,22,23
 41 66 41 66 41 136 c 0,24,25
 41 219 41 219 89 254 c 0,26,27
 120 275 120 275 211 293 c 0,28,29
 258 302 258 302 296 306 c 1,30,-1
 296 358 l 2,31,32
 296 380 296 380 278 399.5 c 128,-1,33
 260 419 260 419 236 419 c 0,34,35
 145 419 145 419 88 351 c 1,36,-1
 45 412 l 1,37,38
 72 457 72 457 134 486 c 0,39,40
 188 512 188 512 236 512 c 0,41,42
 307 512 307 512 355.5 466 c 128,-1,43
 404 420 404 420 404 349 c 2,44,-1
 404 98 l 2,45,46
 404 92 404 92 411.5 84 c 128,-1,47
 419 76 419 76 427 76 c 0,48,49
 459 76 459 76 469 86 c 1,50,-1
 480 22 l 1,51,52
 419 -11 419 -11 382 -11 c 0,53,54
 367 -11 367 -11 343 7 c 0,55,56
 316 28 316 28 309 54 c 1,16,17
EndSplineSet
EndChar
StartChar: acircumflex
Encoding: 226 226 107
Width: 491
Flags: W
Fore
115 521 m 1,0,-1
 115 609 l 1,1,-1
 253 715 l 1,2,-1
 395 609 l 1,3,-1
 395 522 l 1,4,-1
 253 599 l 1,5,-1
 115 521 l 1,0,-1
299 223 m 1,6,7
 269 223 269 223 226 215 c 0,8,9
 178 207 178 207 162 196 c 0,10,11
 138 181 138 181 138 137 c 0,12,13
 138 109 138 109 156 87.5 c 128,-1,14
 174 66 174 66 198 66 c 0,15,16
 259 66 259 66 298 114 c 1,17,-1
 299 223 l 1,6,7
309 54 m 1,18,19
 267 17 267 17 251 6 c 0,20,21
 218 -16 218 -16 185 -16 c 0,22,23
 125 -16 125 -16 85 23 c 0,24,25
 41 66 41 66 41 136 c 0,26,27
 41 219 41 219 89 254 c 0,28,29
 120 275 120 275 211 293 c 0,30,31
 258 302 258 302 296 306 c 1,32,-1
 296 358 l 2,33,34
 296 380 296 380 278 399.5 c 128,-1,35
 260 419 260 419 236 419 c 0,36,37
 145 419 145 419 88 351 c 1,38,-1
 45 412 l 1,39,40
 72 457 72 457 134 486 c 0,41,42
 188 512 188 512 236 512 c 0,43,44
 307 512 307 512 355.5 466 c 128,-1,45
 404 420 404 420 404 349 c 2,46,-1
 404 98 l 2,47,48
 404 92 404 92 411.5 84 c 128,-1,49
 419 76 419 76 427 76 c 0,50,51
 459 76 459 76 469 86 c 1,52,-1
 480 22 l 1,53,54
 419 -11 419 -11 382 -11 c 0,55,56
 367 -11 367 -11 343 7 c 0,57,58
 316 28 316 28 309 54 c 1,18,19
EndSplineSet
EndChar
StartChar: adieresis
Encoding: 228 228 108
Width: 491
Flags: W
Fore
285 598 m 0,0,1
 285 625 285 625 301 645 c 0,2,3
 321 670 321 670 355 670 c 0,4,5
 387 670 387 670 408 645 c 0,6,7
 425 624 425 624 425 598 c 0,8,9
 425 571 425 571 408 550 c 0,10,11
 388 526 388 526 355 526 c 0,12,13
 321 526 321 526 301 550 c 0,14,15
 285 570 285 570 285 598 c 0,0,1
75 598 m 0,16,17
 75 625 75 625 91 645 c 0,18,19
 111 670 111 670 145 670 c 0,20,21
 178 670 178 670 198 645 c 0,22,23
 215 624 215 624 215 598 c 0,24,25
 215 571 215 571 198 550 c 0,26,27
 178 526 178 526 145 526 c 0,28,29
 111 526 111 526 92 550 c 0,30,31
 75 570 75 570 75 598 c 0,16,17
299 223 m 1,32,33
 269 223 269 223 226 215 c 0,34,35
 178 207 178 207 162 196 c 0,36,37
 138 181 138 181 138 137 c 0,38,39
 138 109 138 109 156 87.5 c 128,-1,40
 174 66 174 66 198 66 c 0,41,42
 259 66 259 66 298 114 c 1,43,-1
 299 223 l 1,32,33
309 54 m 1,44,45
 267 17 267 17 251 6 c 0,46,47
 218 -16 218 -16 185 -16 c 0,48,49
 125 -16 125 -16 85 23 c 0,50,51
 41 66 41 66 41 136 c 0,52,53
 41 219 41 219 89 254 c 0,54,55
 120 275 120 275 211 293 c 0,56,57
 258 302 258 302 296 306 c 1,58,-1
 296 358 l 2,59,60
 296 380 296 380 278 399.5 c 128,-1,61
 260 419 260 419 236 419 c 0,62,63
 145 419 145 419 88 351 c 1,64,-1
 45 412 l 1,65,66
 72 457 72 457 134 486 c 0,67,68
 188 512 188 512 236 512 c 0,69,70
 307 512 307 512 355.5 466 c 128,-1,71
 404 420 404 420 404 349 c 2,72,-1
 404 98 l 2,73,74
 404 92 404 92 411.5 84 c 128,-1,75
 419 76 419 76 427 76 c 0,76,77
 459 76 459 76 469 86 c 1,78,-1
 480 22 l 1,79,80
 419 -11 419 -11 382 -11 c 0,81,82
 367 -11 367 -11 343 7 c 0,83,84
 316 28 316 28 309 54 c 1,44,45
EndSplineSet
EndChar
StartChar: atilde
Encoding: 227 227 109
Width: 491
Flags: W
Fore
227 579 m 0,0,1
 192 602 192 602 183 602 c 0,2,3
 157 602 157 602 117 555 c 1,4,-1
 77 633 l 1,5,6
 116 683 116 683 182 685 c 0,7,8
 212 686 212 686 251.5 659 c 128,-1,9
 291 632 291 632 301 632 c 0,10,11
 313 632 313 632 351 663 c 1,12,-1
 389 587 l 1,13,14
 373 571 373 571 345.5 560 c 128,-1,15
 318 549 318 549 303 549 c 0,16,17
 272 549 272 549 227 579 c 0,0,1
299 223 m 1,18,19
 269 223 269 223 226 215 c 0,20,21
 178 207 178 207 162 196 c 0,22,23
 138 181 138 181 138 137 c 0,24,25
 138 109 138 109 156 87.5 c 128,-1,26
 174 66 174 66 198 66 c 0,27,28
 259 66 259 66 298 114 c 1,29,-1
 299 223 l 1,18,19
309 54 m 1,30,31
 267 17 267 17 251 6 c 0,32,33
 218 -16 218 -16 185 -16 c 0,34,35
 125 -16 125 -16 85 23 c 0,36,37
 41 66 41 66 41 136 c 0,38,39
 41 219 41 219 89 254 c 0,40,41
 120 275 120 275 211 293 c 0,42,43
 258 302 258 302 296 306 c 1,44,-1
 296 358 l 2,45,46
 296 380 296 380 278 399.5 c 128,-1,47
 260 419 260 419 236 419 c 0,48,49
 145 419 145 419 88 351 c 1,50,-1
 45 412 l 1,51,52
 72 457 72 457 134 486 c 0,53,54
 188 512 188 512 236 512 c 0,55,56
 307 512 307 512 355.5 466 c 128,-1,57
 404 420 404 420 404 349 c 2,58,-1
 404 98 l 2,59,60
 404 92 404 92 411.5 84 c 128,-1,61
 419 76 419 76 427 76 c 0,62,63
 459 76 459 76 469 86 c 1,64,-1
 480 22 l 1,65,66
 419 -11 419 -11 382 -11 c 0,67,68
 367 -11 367 -11 343 7 c 0,69,70
 316 28 316 28 309 54 c 1,30,31
EndSplineSet
EndChar
StartChar: aring
Encoding: 229 229 110
Width: 491
Flags: W
Fore
240 566 m 0,0,1
 200 566 200 566 175 590.5 c 128,-1,2
 150 615 150 615 150 653 c 0,3,4
 150 690 150 690 175 714.5 c 128,-1,5
 200 739 200 739 240 739 c 0,6,7
 281 739 281 739 306 714.5 c 128,-1,8
 331 690 331 690 331 653 c 0,9,10
 331 615 331 615 306 590.5 c 128,-1,11
 281 566 281 566 240 566 c 0,0,1
240 696 m 0,12,13
 208 696 208 696 208 653 c 0,14,15
 208 609 208 609 240 609 c 0,16,17
 273 609 273 609 273 653 c 0,18,19
 273 696 273 696 240 696 c 0,12,13
299 223 m 1,20,21
 269 223 269 223 226 215 c 0,22,23
 178 207 178 207 162 196 c 0,24,25
 138 181 138 181 138 137 c 0,26,27
 138 109 138 109 156 87.5 c 128,-1,28
 174 66 174 66 198 66 c 0,29,30
 259 66 259 66 298 114 c 1,31,-1
 299 223 l 1,20,21
309 54 m 1,32,33
 267 17 267 17 251 6 c 0,34,35
 218 -16 218 -16 185 -16 c 0,36,37
 125 -16 125 -16 85 23 c 0,38,39
 41 66 41 66 41 136 c 0,40,41
 41 219 41 219 89 254 c 0,42,43
 120 275 120 275 211 293 c 0,44,45
 258 302 258 302 296 306 c 1,46,-1
 296 358 l 2,47,48
 296 380 296 380 278 399.5 c 128,-1,49
 260 419 260 419 236 419 c 0,50,51
 145 419 145 419 88 351 c 1,52,-1
 45 412 l 1,53,54
 72 457 72 457 134 486 c 0,55,56
 188 512 188 512 236 512 c 0,57,58
 307 512 307 512 355.5 466 c 128,-1,59
 404 420 404 420 404 349 c 2,60,-1
 404 98 l 2,61,62
 404 92 404 92 411.5 84 c 128,-1,63
 419 76 419 76 427 76 c 0,64,65
 459 76 459 76 469 86 c 1,66,-1
 480 22 l 1,67,68
 419 -11 419 -11 382 -11 c 0,69,70
 367 -11 367 -11 343 7 c 0,71,72
 316 28 316 28 309 54 c 1,32,33
EndSplineSet
EndChar
StartChar: ccedilla
Encoding: 231 231 111
Width: 483
Flags: W
Fore
392 -132 m 256,0,1
 392 -167 392 -167 368 -192 c 0,2,3
 341 -219 341 -219 295 -219 c 0,4,5
 232 -219 232 -219 209 -171 c 1,6,-1
 246 -137 l 1,7,8
 274 -169 274 -169 296 -169 c 0,9,10
 332 -169 332 -169 332 -135 c 0,11,12
 332 -96 332 -96 298 -96 c 0,13,14
 284 -96 284 -96 264 -111 c 1,15,-1
 217 -90 l 1,16,-1
 221 -8 l 1,17,-1
 225 -8 l 1,18,19
 122 10 122 10 73 105 c 0,20,21
 39 170 39 170 39 242 c 0,22,23
 39 376 39 376 117 449 c 0,24,25
 182 512 182 512 275 511 c 0,26,27
 332 511 332 511 427 447 c 1,28,-1
 394 378 l 1,29,30
 329 431 329 431 266 431 c 0,31,32
 212 431 212 431 182 367 c 0,33,34
 156 313 156 313 156 239 c 0,35,36
 156 162 156 162 188.5 114.5 c 128,-1,37
 221 67 221 67 273 67 c 0,38,39
 332 67 332 67 403 131 c 1,40,-1
 448 72 l 1,41,42
 378 -8 378 -8 283 -12 c 2,43,-1
 279 -12 l 1,44,-1
 276 -47 l 1,45,46
 285 -43 285 -43 301 -43 c 0,47,48
 343 -43 343 -43 369 -72 c 0,49,50
 392 -97 392 -97 392 -132 c 256,0,1
279 -12 m 1,51,-1
 276 -47 l 1,52,53
 285 -43 285 -43 301 -43 c 0,54,55
 343 -43 343 -43 369 -72 c 0,56,57
 392 -97 392 -97 392 -132 c 256,58,59
 392 -167 392 -167 368 -192 c 0,60,61
 341 -219 341 -219 295 -219 c 0,62,63
 232 -219 232 -219 209 -171 c 1,64,-1
 246 -137 l 1,65,66
 274 -169 274 -169 296 -169 c 0,67,68
 332 -169 332 -169 332 -135 c 0,69,70
 332 -96 332 -96 298 -96 c 0,71,72
 284 -96 284 -96 264 -111 c 1,73,-1
 217 -90 l 1,74,-1
 222 -8 l 1,75,-1
 279 -12 l 1,51,-1
EndSplineSet
EndChar
StartChar: eacute
Encoding: 233 233 112
Width: 497
Flags: W
Fore
126 626 m 1,0,-1
 341 715 l 1,1,-1
 373 637 l 1,2,-1
 159 554 l 1,3,-1
 126 626 l 1,0,-1
275 68 m 0,4,5
 340 67 340 67 405 131 c 1,6,-1
 450 70 l 1,7,8
 398 20 398 20 359 3 c 0,9,10
 324 -12 324 -12 268 -12 c 0,11,12
 137 -12 137 -12 77 96 c 0,13,14
 39 166 39 166 39 247 c 0,15,16
 39 360 39 360 99 433 c 0,17,18
 163 510 163 510 272 510 c 0,19,20
 347 510 347 510 398 460 c 0,21,22
 454 405 454 405 454 313 c 2,23,-1
 454 238 l 1,24,-1
 158 238 l 1,25,26
 160 69 160 69 275 68 c 0,4,5
345 323 m 1,27,28
 350 432 350 432 265 432 c 0,29,30
 231 432 231 432 205 406 c 0,31,32
 174 376 174 376 165 323 c 1,33,-1
 345 323 l 1,27,28
EndSplineSet
EndChar
StartChar: egrave
Encoding: 232 232 113
Width: 497
Flags: W
Fore
404 626 m 1,0,-1
 189 715 l 1,1,-1
 147 637 l 1,2,-1
 361 554 l 1,3,-1
 404 626 l 1,0,-1
275 68 m 0,4,5
 340 67 340 67 405 131 c 1,6,-1
 450 70 l 1,7,8
 398 20 398 20 359 3 c 0,9,10
 324 -12 324 -12 268 -12 c 0,11,12
 137 -12 137 -12 77 96 c 0,13,14
 39 166 39 166 39 247 c 0,15,16
 39 360 39 360 99 433 c 0,17,18
 163 510 163 510 272 510 c 0,19,20
 347 510 347 510 398 460 c 0,21,22
 454 405 454 405 454 313 c 2,23,-1
 454 238 l 1,24,-1
 158 238 l 1,25,26
 160 69 160 69 275 68 c 0,4,5
345 323 m 1,27,28
 350 432 350 432 265 432 c 0,29,30
 231 432 231 432 205 406 c 0,31,32
 174 376 174 376 165 323 c 1,33,-1
 345 323 l 1,27,28
EndSplineSet
EndChar
StartChar: ecircumflex
Encoding: 234 234 114
Width: 497
Flags: W
Fore
135 561 m 1,0,-1
 135 649 l 1,1,-1
 273 755 l 1,2,-1
 415 649 l 1,3,-1
 415 562 l 1,4,-1
 273 639 l 1,5,-1
 135 561 l 1,0,-1
275 68 m 0,6,7
 340 67 340 67 405 131 c 1,8,-1
 450 70 l 1,9,10
 398 20 398 20 359 3 c 0,11,12
 324 -12 324 -12 268 -12 c 0,13,14
 137 -12 137 -12 77 96 c 0,15,16
 39 166 39 166 39 247 c 0,17,18
 39 360 39 360 99 433 c 0,19,20
 163 510 163 510 272 510 c 0,21,22
 347 510 347 510 398 460 c 0,23,24
 454 405 454 405 454 313 c 2,25,-1
 454 238 l 1,26,-1
 158 238 l 1,27,28
 160 69 160 69 275 68 c 0,6,7
345 323 m 1,29,30
 350 432 350 432 265 432 c 0,31,32
 231 432 231 432 205 406 c 0,33,34
 174 376 174 376 165 323 c 1,35,-1
 345 323 l 1,29,30
EndSplineSet
EndChar
StartChar: iacute
Encoding: 237 237 116
Width: 234
Flags: W
Fore
-10 626 m 1,0,-1
 204 715 l 1,1,-1
 246 637 l 1,2,-1
 32 554 l 1,3,-1
 -10 626 l 1,0,-1
63 495 m 1,4,-1
 170 495 l 1,5,-1
 170 0 l 1,6,-1
 63 0 l 1,7,-1
 63 495 l 1,4,-1
EndSplineSet
EndChar
StartChar: idieresis
Encoding: 239 239 119
Width: 207
Flags: W
Fore
63 495 m 1,0,-1
 170 495 l 1,1,-1
 170 0 l 1,2,-1
 63 0 l 1,3,-1
 63 495 l 1,0,-1
155 628 m 0,4,5
 155 655 155 655 171 675 c 0,6,7
 191 700 191 700 225 700 c 0,8,9
 258 700 258 700 278 675 c 0,10,11
 295 654 295 654 295 628 c 0,12,13
 295 601 295 601 278 580 c 0,14,15
 258 556 258 556 225 556 c 0,16,17
 191 556 191 556 172 580 c 0,18,19
 155 600 155 600 155 628 c 0,4,5
-55 628 m 0,20,21
 -55 654 -55 654 -38 675 c 0,22,23
 -19 700 -19 700 15 700 c 0,24,25
 48 700 48 700 68 675 c 0,26,27
 85 654 85 654 85 628 c 0,28,29
 85 601 85 601 68 580 c 0,30,31
 48 556 48 556 15 556 c 0,32,33
 -19 556 -19 556 -38 580 c 0,34,35
 -55 600 -55 600 -55 628 c 0,20,21
EndSplineSet
EndChar
StartChar: ntilde
Encoding: 241 241 120
Width: 486
Flags: W
Fore
248 579 m 0,0,1
 213 602 213 602 204 602 c 0,2,3
 178 602 178 602 138 555 c 1,4,-1
 98 633 l 1,5,6
 137 683 137 683 203 685 c 0,7,8
 233 686 233 686 272.5 659 c 128,-1,9
 312 632 312 632 322 632 c 0,10,11
 334 632 334 632 372 663 c 1,12,-1
 410 587 l 1,13,14
 394 571 394 571 366.5 560 c 128,-1,15
 339 549 339 549 324 549 c 0,16,17
 293 549 293 549 248 579 c 0,0,1
342 320 m 2,18,19
 342 370 342 370 324 397 c 0,20,21
 309 421 309 421 285 421 c 0,22,23
 248 421 248 421 209 378.5 c 128,-1,24
 170 336 170 336 170 303 c 2,25,-1
 170 0 l 1,26,-1
 63 0 l 1,27,-1
 63 496 l 1,28,-1
 170 496 l 1,29,-1
 170 407 l 1,30,31
 231 511 231 511 293 511 c 0,32,33
 356 511 356 511 401 462 c 0,34,35
 449 410 449 410 449 332 c 2,36,-1
 449 0 l 1,37,-1
 342 0 l 1,38,-1
 342 320 l 2,18,19
EndSplineSet
EndChar
StartChar: oacute
Encoding: 243 243 121
Width: 543
Flags: W
Fore
168 626 m 1,0,-1
 383 715 l 1,1,-1
 445 637 l 1,2,-1
 231 554 l 1,3,-1
 168 626 l 1,0,-1
39 252 m 0,4,5
 39 380 39 380 120 452 c 0,6,7
 187 512 187 512 276 512 c 0,8,9
 364 512 364 512 429 452 c 0,10,11
 507 381 507 381 507 252 c 0,12,13
 507 164 507 164 462 91 c 0,14,15
 399 -11 399 -11 275 -11 c 0,16,17
 140 -11 140 -11 79 92 c 0,18,19
 39 160 39 160 39 252 c 0,4,5
155 246 m 0,20,21
 155 174 155 174 184 124 c 0,22,23
 216 67 216 67 271 67 c 0,24,25
 328 67 328 67 361 125 c 0,26,27
 391 176 391 176 391 251 c 0,28,29
 391 324 391 324 364 375 c 0,30,31
 333 433 333 433 280 433 c 0,32,33
 219 433 219 433 185 374 c 0,34,35
 155 322 155 322 155 246 c 0,20,21
EndSplineSet
EndChar
StartChar: ograve
Encoding: 242 242 122
Width: 543
Flags: W
Fore
387 556 m 1,0,-1
 178 646 l 1,1,-1
 225 711 l 1,2,-1
 435 615 l 1,3,-1
 387 556 l 1,0,-1
39 252 m 0,4,5
 39 380 39 380 120 452 c 0,6,7
 187 512 187 512 276 512 c 0,8,9
 364 512 364 512 429 452 c 0,10,11
 507 381 507 381 507 252 c 0,12,13
 507 164 507 164 462 91 c 0,14,15
 399 -11 399 -11 275 -11 c 0,16,17
 140 -11 140 -11 79 92 c 0,18,19
 39 160 39 160 39 252 c 0,4,5
155 246 m 0,20,21
 155 174 155 174 184 124 c 0,22,23
 216 67 216 67 271 67 c 0,24,25
 328 67 328 67 361 125 c 0,26,27
 391 176 391 176 391 251 c 0,28,29
 391 324 391 324 364 375 c 0,30,31
 333 433 333 433 280 433 c 0,32,33
 219 433 219 433 185 374 c 0,34,35
 155 322 155 322 155 246 c 0,20,21
EndSplineSet
EndChar
StartChar: ocircumflex
Encoding: 244 244 123
Width: 543
Flags: W
Fore
145 521 m 1,0,-1
 145 609 l 1,1,-1
 283 715 l 1,2,-1
 425 609 l 1,3,-1
 425 522 l 1,4,-1
 283 599 l 1,5,-1
 145 521 l 1,0,-1
39 252 m 0,6,7
 39 380 39 380 120 452 c 0,8,9
 187 512 187 512 276 512 c 0,10,11
 364 512 364 512 429 452 c 0,12,13
 507 381 507 381 507 252 c 0,14,15
 507 164 507 164 462 91 c 0,16,17
 399 -11 399 -11 275 -11 c 0,18,19
 140 -11 140 -11 79 92 c 0,20,21
 39 160 39 160 39 252 c 0,6,7
155 246 m 0,22,23
 155 174 155 174 184 124 c 0,24,25
 216 67 216 67 271 67 c 0,26,27
 328 67 328 67 361 125 c 0,28,29
 391 176 391 176 391 251 c 0,30,31
 391 324 391 324 364 375 c 0,32,33
 333 433 333 433 280 433 c 0,34,35
 219 433 219 433 185 374 c 0,36,37
 155 322 155 322 155 246 c 0,22,23
EndSplineSet
EndChar
StartChar: otilde
Encoding: 245 245 125
Width: 543
Flags: W
Fore
279 579 m 0,0,1
 243 602 243 602 235 602 c 0,2,3
 209 602 209 602 169 555 c 1,4,-1
 130 633 l 1,5,6
 169 683 169 683 235 685 c 0,7,8
 265 686 265 686 304 659 c 128,-1,9
 343 632 343 632 353 632 c 0,10,11
 366 632 366 632 404 663 c 1,12,-1
 441 587 l 1,13,14
 425 571 425 571 397.5 560 c 128,-1,15
 370 549 370 549 355 549 c 0,16,17
 326 549 326 549 279 579 c 0,0,1
39 252 m 0,18,19
 39 380 39 380 120 452 c 0,20,21
 187 512 187 512 276 512 c 0,22,23
 364 512 364 512 429 452 c 0,24,25
 507 381 507 381 507 252 c 0,26,27
 507 164 507 164 462 91 c 0,28,29
 399 -11 399 -11 275 -11 c 0,30,31
 140 -11 140 -11 79 92 c 0,32,33
 39 160 39 160 39 252 c 0,18,19
155 246 m 0,34,35
 155 174 155 174 184 124 c 0,36,37
 216 67 216 67 271 67 c 0,38,39
 328 67 328 67 361 125 c 0,40,41
 391 176 391 176 391 251 c 0,42,43
 391 324 391 324 364 375 c 0,44,45
 333 433 333 433 280 433 c 0,46,47
 219 433 219 433 185 374 c 0,48,49
 155 322 155 322 155 246 c 0,34,35
EndSplineSet
EndChar
StartChar: uacute
Encoding: 250 250 126
Width: 482
Flags: W
Fore
126 626 m 1,0,-1
 341 715 l 1,1,-1
 403 637 l 1,2,-1
 189 554 l 1,3,-1
 126 626 l 1,0,-1
349 0 m 1,4,5
 346 27 346 27 339 71 c 1,6,7
 270 -18 270 -18 215 -18 c 0,8,9
 153 -18 153 -18 109 31 c 0,10,11
 63 84 63 84 63 166 c 2,12,-1
 63 495 l 1,13,-1
 170 495 l 1,14,-1
 170 169 l 2,15,16
 170 75 170 75 222 75 c 0,17,18
 258 75 258 75 300 121 c 0,19,20
 339 163 339 163 339 189 c 2,21,-1
 339 495 l 1,22,-1
 446 495 l 1,23,-1
 446 0 l 1,24,-1
 349 0 l 1,4,5
EndSplineSet
EndChar
StartChar: ugrave
Encoding: 249 249 127
Width: 482
Flags: W
Fore
355 556 m 1,0,-1
 147 646 l 1,1,-1
 193 711 l 1,2,-1
 404 615 l 1,3,-1
 355 556 l 1,0,-1
349 0 m 1,4,5
 346 27 346 27 339 71 c 1,6,7
 270 -18 270 -18 215 -18 c 0,8,9
 153 -18 153 -18 109 31 c 0,10,11
 63 84 63 84 63 166 c 2,12,-1
 63 495 l 1,13,-1
 170 495 l 1,14,-1
 170 169 l 2,15,16
 170 75 170 75 222 75 c 0,17,18
 258 75 258 75 300 121 c 0,19,20
 339 163 339 163 339 189 c 2,21,-1
 339 495 l 1,22,-1
 446 495 l 1,23,-1
 446 0 l 1,24,-1
 349 0 l 1,4,5
EndSplineSet
EndChar
StartChar: ucircumflex
Encoding: 251 251 128
Width: 482
Flags: W
Fore
125 521 m 1,0,-1
 125 609 l 1,1,-1
 263 715 l 1,2,-1
 405 609 l 1,3,-1
 405 522 l 1,4,-1
 263 599 l 1,5,-1
 125 521 l 1,0,-1
349 0 m 1,6,7
 346 27 346 27 339 71 c 1,8,9
 270 -18 270 -18 215 -18 c 0,10,11
 153 -18 153 -18 109 31 c 0,12,13
 63 84 63 84 63 166 c 2,14,-1
 63 495 l 1,15,-1
 170 495 l 1,16,-1
 170 169 l 2,17,18
 170 75 170 75 222 75 c 0,19,20
 258 75 258 75 300 121 c 0,21,22
 339 163 339 163 339 189 c 2,23,-1
 339 495 l 1,24,-1
 446 495 l 1,25,-1
 446 0 l 1,26,-1
 349 0 l 1,6,7
EndSplineSet
EndChar
StartChar: dagger
Encoding: 8224 8224 130
Width: 221
Flags: W
Fore
135 534 m 1,0,-1
 135 333 l 1,1,-1
 71 333 l 1,2,-1
 71 534 l 1,3,-1
 23 534 l 1,4,-1
 23 600 l 1,5,-1
 71 600 l 1,6,-1
 71 655 l 1,7,-1
 135 655 l 1,8,-1
 135 600 l 1,9,-1
 192 600 l 1,10,-1
 192 534 l 1,11,-1
 135 534 l 1,0,-1
EndSplineSet
EndChar
StartChar: degree
Encoding: 176 176 131
Width: 273
Flags: W
Fore
278 582 m 256,0,1
 278 524 278 524 238 483 c 128,-1,2
 198 442 198 442 138 442 c 256,3,4
 78 442 78 442 36.5 483 c 128,-1,5
 -5 524 -5 524 -5 582 c 256,6,7
 -5 640 -5 640 36.5 681 c 128,-1,8
 78 722 78 722 138 722 c 256,9,10
 198 722 198 722 238 681 c 128,-1,11
 278 640 278 640 278 582 c 256,0,1
68 582 m 256,12,13
 68 552 68 552 88 532 c 128,-1,14
 108 512 108 512 138 512 c 256,15,16
 168 512 168 512 186.5 532 c 128,-1,17
 205 552 205 552 205 582 c 256,18,19
 205 612 205 612 186.5 632 c 128,-1,20
 168 652 168 652 138 652 c 256,21,22
 108 652 108 652 88 632 c 128,-1,23
 68 612 68 612 68 582 c 256,12,13
EndSplineSet
EndChar
StartChar: cent
Encoding: 162 162 132
Width: 479
Flags: W
Fore
38 242 m 0,0,1
 38 355 38 355 89 425 c 0,2,3
 134 486 134 486 208 505 c 1,4,-1
 208 590 l 1,5,-1
 326 590 l 1,6,-1
 326 506 l 1,7,8
 379 494 379 494 437 447 c 1,9,-1
 388 371 l 1,10,11
 337 412 337 412 324 420 c 0,12,13
 297 436 297 436 269 436 c 0,14,15
 219 436 219 436 186 374 c 0,16,17
 155 316 155 316 155 239 c 0,18,19
 155 164 155 164 189 115.5 c 128,-1,20
 223 67 223 67 266 67 c 0,21,22
 297 67 297 67 326 86 c 0,23,24
 348 99 348 99 391 140 c 1,25,-1
 449 69 l 1,26,27
 390 8 390 8 326 -10 c 1,28,-1
 326 -89 l 1,29,-1
 208 -89 l 1,30,-1
 208 -11 l 1,31,32
 110 11 110 11 67 106 c 0,33,34
 38 169 38 169 38 242 c 0,0,1
EndSplineSet
EndChar
StartChar: sterling
Encoding: 163 163 133
Width: 476
Flags: W
Fore
293 26 m 0,0,1
 246 26 246 26 72 -18 c 1,2,-1
 57 82 l 1,3,4
 75 86 75 86 92 91 c 0,5,6
 115 97 115 97 125 107 c 0,7,8
 150 132 150 132 150 179 c 0,9,10
 150 242 150 242 141 293 c 1,11,-1
 74 293 l 1,12,-1
 74 386 l 1,13,-1
 128 386 l 1,14,15
 118 440 118 440 118 467 c 0,16,17
 118 547 118 547 159 599 c 0,18,19
 205 656 205 656 286 656 c 0,20,21
 347 656 347 656 417 615 c 1,22,-1
 373 534 l 1,23,24
 305 568 305 568 291 568 c 0,25,26
 260 568 260 568 239 535.5 c 128,-1,27
 218 503 218 503 218 463 c 0,28,29
 218 448 218 448 230 386 c 1,30,-1
 356 386 l 1,31,-1
 356 293 l 1,32,-1
 250 293 l 1,33,34
 254 250 254 250 254 196 c 0,35,36
 254 150 254 150 223 114 c 1,37,38
 260 119 260 119 307 119 c 0,39,40
 368 119 368 119 445 98 c 1,41,-1
 424 -12 l 1,42,43
 410 -8 410 -8 351 13 c 0,44,45
 315 26 315 26 293 26 c 0,0,1
EndSplineSet
EndChar
StartChar: section
Encoding: 167 167 134
Width: 392
Flags: W
Fore
50 -23 m 1,0,-1
 99 56 l 1,1,2
 145 3 145 3 191 3 c 0,3,4
 208 3 208 3 219.5 15.5 c 128,-1,5
 231 28 231 28 231 38 c 0,6,7
 231 55 231 55 216 62 c 0,8,9
 213 64 213 64 187 71 c 0,10,11
 169 75 169 75 136 87 c 0,12,13
 70 112 70 112 70 183 c 0,14,15
 70 233 70 233 99 267 c 1,16,17
 70 294 70 294 70 340 c 0,18,19
 70 402 70 402 110 437 c 0,20,21
 145 467 145 467 193 466 c 0,22,23
 242 465 242 465 309 422 c 1,24,-1
 275 341 l 1,25,26
 216 381 216 381 191 381 c 0,27,28
 164 381 164 381 160 367 c 0,29,30
 158 361 158 361 158 346 c 0,31,32
 158 335 158 335 224 320 c 0,33,34
 321 289 321 289 321 207 c 0,35,36
 321 155 321 155 295 123 c 1,37,38
 321 96 321 96 321 50 c 0,39,40
 322 -17 322 -17 279 -54 c 0,41,42
 242 -87 242 -87 186 -87 c 0,43,44
 113 -87 113 -87 50 -23 c 1,0,-1
158 189 m 0,45,46
 158 182 158 182 192 172 c 2,47,-1
 212 166 l 1,48,49
 231 179 231 179 231 195 c 256,50,51
 231 211 231 211 216 219 c 0,52,53
 210 222 210 222 182 230 c 1,54,55
 158 226 158 226 158 189 c 0,45,46
EndSplineSet
EndChar
StartChar: bullet
Encoding: 8226 8226 135
Width: 282
Flags: W
Fore
140 190 m 0,0,1
 102 190 102 190 75 218.5 c 128,-1,2
 48 247 48 247 48 291 c 0,3,4
 48 334 48 334 75 362.5 c 128,-1,5
 102 391 102 391 140 391 c 0,6,7
 177 391 177 391 204 362.5 c 128,-1,8
 231 334 231 334 231 291 c 256,9,10
 231 248 231 248 204 219 c 128,-1,11
 177 190 177 190 140 190 c 0,0,1
EndSplineSet
EndChar
StartChar: paragraph
Encoding: 182 182 136
Width: 507
Flags: W
Fore
338 0 m 1,0,-1
 338 642 l 1,1,-1
 437 642 l 1,2,-1
 437 0 l 1,3,-1
 338 0 l 1,0,-1
211 0 m 1,4,-1
 211 317 l 1,5,6
 49 317 49 317 50 483 c 0,7,8
 50 569 50 569 91 607 c 0,9,10
 129 642 129 642 209 642 c 2,11,-1
 310 642 l 1,12,-1
 310 0 l 1,13,-1
 211 0 l 1,4,-1
EndSplineSet
EndChar
StartChar: germandbls
Encoding: 223 223 137
Width: 549
Flags: W
Fore
178 61 m 1,0,-1
 228 140 l 1,1,2
 257 99 257 99 287 88 c 0,3,4
 300 83 300 83 334 83 c 0,5,6
 361 83 361 83 378 106 c 0,7,8
 391 124 391 124 391 149 c 0,9,10
 391 181 391 181 357 200 c 0,11,12
 345 206 345 206 297 222 c 0,13,14
 185 259 185 259 185 379 c 0,15,16
 185 419 185 419 220 464 c 0,17,18
 261 517 261 517 317 517 c 0,19,20
 339 517 339 517 362 508 c 1,21,22
 365 513 365 513 365 524 c 0,23,24
 365 532 365 532 364 546 c 128,-1,25
 363 560 363 560 363 563 c 0,26,27
 363 586 363 586 330 601 c 0,28,29
 301 615 301 615 261 615 c 256,30,31
 221 615 221 615 191.5 582 c 128,-1,32
 162 549 162 549 162 500 c 2,33,-1
 162 -1 l 1,34,-1
 52 -1 l 1,35,-1
 52 500 l 2,36,37
 52 593 52 593 104 651 c 0,38,39
 161 715 161 715 266 715 c 0,40,41
 355 715 355 715 405 664.5 c 128,-1,42
 455 614 455 614 455 527 c 0,43,44
 455 460 455 460 421 401 c 1,45,46
 362 423 362 423 338 423 c 0,47,48
 292 423 292 423 292 374 c 0,49,50
 292 356 292 356 315 345 c 0,51,52
 321 342 321 342 368 327 c 0,53,54
 447 302 447 302 480 249 c 0,55,56
 503 212 503 212 503 155 c 0,57,58
 503 84 503 84 450.5 34.5 c 128,-1,59
 398 -15 398 -15 329 -15 c 0,60,61
 272 -15 272 -15 249 -4 c 0,62,63
 222 9 222 9 178 61 c 1,0,-1
EndSplineSet
EndChar
StartChar: registered
Encoding: 174 174 138
Width: 796
Flags: W
Fore
133 316 m 1,0,-1
 132 316 l 1,1,2
 132 206 132 206 210 128 c 128,-1,3
 288 50 288 50 398 50 c 256,4,5
 508 50 508 50 586 128 c 128,-1,6
 664 206 664 206 664 316 c 256,7,8
 664 426 664 426 586 504 c 128,-1,9
 508 582 508 582 398 582 c 256,10,11
 288 582 288 582 210.5 504 c 128,-1,12
 133 426 133 426 133 316 c 1,0,-1
67 316 m 256,13,14
 67 453 67 453 164 550 c 128,-1,15
 261 647 261 647 398 647 c 256,16,17
 535 647 535 647 632 550 c 128,-1,18
 729 453 729 453 729 316 c 256,19,20
 729 179 729 179 632 82 c 128,-1,21
 535 -15 535 -15 398 -15 c 256,22,23
 261 -15 261 -15 164 82 c 128,-1,24
 67 179 67 179 67 316 c 256,13,14
491 108 m 1,25,26
 457 142 457 142 415 202 c 0,27,28
 388 241 388 241 352 300 c 1,29,-1
 323 299 l 1,30,-1
 323 114 l 1,31,-1
 266 114 l 1,32,-1
 266 524 l 1,33,34
 363 526 363 526 395 526 c 0,35,36
 507 525 507 525 506 413 c 0,37,38
 505 322 505 322 408 304 c 1,39,40
 442 257 442 257 477 211 c 0,41,42
 501 180 501 180 562 121 c 1,43,-1
 491 108 l 1,25,26
379 487 m 2,44,-1
 323 486 l 1,45,-1
 323 342 l 1,46,-1
 365 342 l 2,47,48
 416 342 416 342 437 362 c 0,49,50
 454 380 454 380 454 420 c 0,51,52
 454 488 454 488 379 487 c 2,44,-1
EndSplineSet
EndChar
StartChar: copyright
Encoding: 169 169 139
Width: 796
Flags: W
Fore
396 102 m 0,0,1
 309 102 309 102 260 169 c 0,2,3
 217 228 217 228 217 318 c 0,4,5
 217 403 217 403 261 462 c 0,6,7
 311 529 311 529 398 530 c 0,8,9
 458 530 458 530 519 495 c 1,10,-1
 495 444 l 1,11,12
 436 480 436 480 401 480 c 0,13,14
 337 480 337 480 302 419 c 0,15,16
 275 371 275 371 275 310 c 0,17,18
 275 242 275 242 310 197.5 c 128,-1,19
 345 153 345 153 396 153 c 0,20,21
 449 153 449 153 498 181 c 1,22,-1
 523 139 l 1,23,24
 453 102 453 102 396 102 c 0,0,1
132 316 m 256,25,26
 132 206 132 206 210 128 c 128,-1,27
 288 50 288 50 398 50 c 256,28,29
 508 50 508 50 586 128 c 128,-1,30
 664 206 664 206 664 316 c 256,31,32
 664 426 664 426 586 504 c 128,-1,33
 508 582 508 582 398 582 c 256,34,35
 288 582 288 582 210 504 c 128,-1,36
 132 426 132 426 132 316 c 256,25,26
67 316 m 256,37,38
 67 453 67 453 164 550 c 128,-1,39
 261 647 261 647 398 647 c 256,40,41
 535 647 535 647 632 550 c 128,-1,42
 729 453 729 453 729 316 c 256,43,44
 729 179 729 179 632 82 c 128,-1,45
 535 -15 535 -15 398 -15 c 256,46,47
 261 -15 261 -15 164 82 c 128,-1,48
 67 179 67 179 67 316 c 256,37,38
EndSplineSet
EndChar
StartChar: trademark
Encoding: 8482 8482 140
Width: 641
Flags: W
Fore
174 315 m 1,0,-1
 110 315 l 1,1,-1
 110 590 l 1,2,-1
 15 590 l 1,3,-1
 15 642 l 1,4,-1
 263 642 l 1,5,-1
 263 590 l 1,6,-1
 174 590 l 1,7,-1
 174 315 l 1,0,-1
555 514 m 1,8,-1
 479 315 l 1,9,-1
 425 315 l 1,10,-1
 348 516 l 1,11,-1
 348 315 l 1,12,-1
 288 315 l 1,13,-1
 288 644 l 1,14,-1
 366 644 l 1,15,-1
 455 415 l 1,16,-1
 544 644 l 1,17,-1
 619 644 l 1,18,-1
 619 315 l 1,19,-1
 555 315 l 1,20,-1
 555 514 l 1,8,-1
EndSplineSet
EndChar
StartChar: acute
Encoding: 180 180 141
Width: 329
Flags: W
Fore
47 626 m 1,0,-1
 262 715 l 1,1,-1
 294 637 l 1,2,-1
 80 554 l 1,3,-1
 47 626 l 1,0,-1
EndSplineSet
EndChar
StartChar: dieresis
Encoding: 168 168 142
Width: 306
Flags: W
Fore
185 628 m 0,0,1
 185 655 185 655 201 675 c 0,2,3
 221 700 221 700 255 700 c 0,4,5
 288 700 288 700 308 675 c 0,6,7
 325 654 325 654 325 628 c 0,8,9
 325 601 325 601 308 580 c 0,10,11
 288 556 288 556 255 556 c 0,12,13
 221 556 221 556 202 580 c 0,14,15
 185 600 185 600 185 628 c 0,0,1
-25 628 m 0,16,17
 -25 654 -25 654 -8 675 c 0,18,19
 11 700 11 700 45 700 c 0,20,21
 78 700 78 700 98 675 c 0,22,23
 115 654 115 654 115 628 c 0,24,25
 115 601 115 601 98 580 c 0,26,27
 78 556 78 556 45 556 c 0,28,29
 11 556 11 556 -8 580 c 0,30,31
 -25 600 -25 600 -25 628 c 0,16,17
EndSplineSet
EndChar
StartChar: notequal
Encoding: 8800 8800 143
Width: 441
Flags: W
Fore
92 12 m 1,0,-1
 129 125 l 1,1,-1
 51 125 l 1,2,-1
 51 223 l 1,3,-1
 161 223 l 1,4,-1
 176 266 l 1,5,-1
 51 266 l 1,6,-1
 51 364 l 1,7,-1
 208 364 l 1,8,-1
 266 539 l 1,9,-1
 355 507 l 1,10,-1
 307 364 l 1,11,-1
 389 364 l 1,12,-1
 389 266 l 1,13,-1
 275 266 l 1,14,-1
 260 223 l 1,15,-1
 389 223 l 1,16,-1
 389 125 l 1,17,-1
 228 125 l 1,18,-1
 180 -20 l 1,19,-1
 92 12 l 1,0,-1
EndSplineSet
EndChar
StartChar: AE
Encoding: 198 198 144
Width: 862
Flags: W
Fore
227 271 m 1,0,-1
 351 271 l 1,1,-1
 288 493 l 1,2,-1
 227 271 l 1,0,-1
565 391 m 1,3,-1
 805 391 l 1,4,-1
 805 292 l 1,5,-1
 565 292 l 1,6,-1
 565 99 l 1,7,-1
 819 99 l 1,8,-1
 819 -1 l 1,9,-1
 434 -1 l 1,10,-1
 381 168 l 1,11,-1
 195 168 l 1,12,-1
 140 -12 l 1,13,-1
 23 2 l 1,14,-1
 237 654 l 1,15,-1
 341 654 l 1,16,-1
 442 310 l 1,17,-1
 442 641 l 1,18,-1
 822 641 l 1,19,-1
 822 545 l 1,20,-1
 565 545 l 1,21,-1
 565 391 l 1,3,-1
EndSplineSet
EndChar
StartChar: Oslash
Encoding: 216 216 145
Width: 644
Flags: W
Fore
32 322 m 0,0,1
 32 462 32 462 115 554 c 128,-1,2
 198 646 198 646 326 646 c 0,3,4
 348 646 348 646 367 643 c 1,5,-1
 380 687 l 1,6,-1
 489 653 l 1,7,-1
 474 604 l 1,8,9
 539 563 539 563 576 489 c 128,-1,10
 613 415 613 415 613 322 c 0,11,12
 613 163 613 163 527 71 c 0,13,14
 446 -16 446 -16 319 -16 c 0,15,16
 308 -16 308 -16 288 -14 c 1,17,-1
 270 -74 l 1,18,-1
 161 -40 l 1,19,-1
 179 19 l 1,20,21
 32 103 32 103 32 322 c 0,0,1
318 84 m 1,22,-1
 319 84 l 2,23,24
 392 84 392 84 445.5 151.5 c 128,-1,25
 499 219 499 219 499 312 c 0,26,27
 499 420 499 420 440 490 c 1,28,-1
 318 84 l 1,22,-1
147 313 m 0,29,30
 147 203 147 203 213 132 c 1,31,-1
 338 547 l 1,32,33
 333 548 333 548 324 548 c 0,34,35
 248 548 248 548 197.5 478.5 c 128,-1,36
 147 409 147 409 147 313 c 0,29,30
EndSplineSet
EndChar
StartChar: infinity
Encoding: 8734 8734 146
Width: 536
Flags: W
Fore
268 304 m 1,0,1
 223 264 223 264 161 264 c 0,2,3
 98 264 98 264 53.5 303 c 128,-1,4
 9 342 9 342 9 398 c 0,5,6
 9 453 9 453 53.5 492 c 128,-1,7
 98 531 98 531 161 531 c 0,8,9
 223 531 223 531 268 492 c 1,10,11
 312 531 312 531 375 531 c 0,12,13
 437 531 437 531 481.5 492 c 128,-1,14
 526 453 526 453 526 398 c 256,15,16
 526 343 526 343 481.5 303.5 c 128,-1,17
 437 264 437 264 375 264 c 0,18,19
 311 264 311 264 268 304 c 1,0,1
312 399 m 0,20,21
 312 376 312 376 330 359.5 c 128,-1,22
 348 343 348 343 375 343 c 256,23,24
 402 343 402 343 420 359.5 c 128,-1,25
 438 376 438 376 438 399 c 0,26,27
 438 421 438 421 420 437.5 c 128,-1,28
 402 454 402 454 375 454 c 256,29,30
 348 454 348 454 330 437.5 c 128,-1,31
 312 421 312 421 312 399 c 0,20,21
97 399 m 0,32,33
 97 373 97 373 116 358.5 c 128,-1,34
 135 344 135 344 161 344 c 0,35,36
 186 344 186 344 205 358.5 c 128,-1,37
 224 373 224 373 224 399 c 0,38,39
 224 421 224 421 205.5 437.5 c 128,-1,40
 187 454 187 454 161 454 c 0,41,42
 134 454 134 454 115.5 437.5 c 128,-1,43
 97 421 97 421 97 399 c 0,32,33
EndSplineSet
EndChar
StartChar: plusminus
Encoding: 177 177 147
Width: 501
Flags: W
Fore
295 89 m 1,0,-1
 202 89 l 1,1,-1
 202 260 l 1,2,-1
 52 260 l 1,3,-1
 52 355 l 1,4,-1
 202 355 l 1,5,-1
 202 517 l 1,6,-1
 295 517 l 1,7,-1
 295 355 l 1,8,-1
 446 355 l 1,9,-1
 446 260 l 1,10,-1
 295 260 l 1,11,-1
 295 89 l 1,0,-1
65 49 m 1,12,-1
 441 49 l 1,13,-1
 441 -38 l 1,14,-1
 65 -38 l 1,15,-1
 65 49 l 1,12,-1
EndSplineSet
EndChar
StartChar: lessequal
Encoding: 8804 8804 148
Width: 250
Flags: W
Fore
261 116 m 1,0,-1
 159 111 l 1,1,-1
 13 282 l 1,2,-1
 159 448 l 1,3,-1
 261 444 l 1,4,-1
 137 279 l 1,5,-1
 261 116 l 1,0,-1
21 77 m 1,6,-1
 242 77 l 1,7,-1
 242 4 l 1,8,-1
 21 4 l 1,9,-1
 21 77 l 1,6,-1
EndSplineSet
EndChar
StartChar: greaterequal
Encoding: 8805 8805 149
Width: 250
Flags: W
Fore
3 116 m 1,0,-1
 126 279 l 1,1,-1
 3 444 l 1,2,-1
 104 448 l 1,3,-1
 250 282 l 1,4,-1
 104 111 l 1,5,-1
 3 116 l 1,0,-1
21 77 m 1,6,-1
 242 77 l 1,7,-1
 242 4 l 1,8,-1
 21 4 l 1,9,-1
 21 77 l 1,6,-1
EndSplineSet
EndChar
StartChar: yen
Encoding: 165 165 150
Width: 531
Flags: W
Fore
193 287 m 1,0,-1
 21 641 l 1,1,-1
 145 641 l 1,2,-1
 255 416 l 1,3,-1
 365 641 l 1,4,-1
 489 641 l 1,5,-1
 318 287 l 1,6,-1
 394 287 l 1,7,-1
 394 204 l 1,8,-1
 315 204 l 1,9,-1
 315 155 l 1,10,-1
 394 155 l 1,11,-1
 394 72 l 1,12,-1
 315 72 l 1,13,-1
 315 2 l 1,14,-1
 196 2 l 1,15,-1
 196 72 l 1,16,-1
 114 72 l 1,17,-1
 114 155 l 1,18,-1
 196 155 l 1,19,-1
 196 204 l 1,20,-1
 114 204 l 1,21,-1
 114 287 l 1,22,-1
 193 287 l 1,0,-1
EndSplineSet
EndChar
StartChar: mu
Encoding: 956 181 151
AltUni: 956
Width: 508
Flags: W
Fore
347 29 m 1,0,-1
 338 19 l 2,1,2
 292 -32 292 -32 245 -32 c 0,3,4
 205 -32 205 -32 171 -10 c 1,5,-1
 171 -196 l 1,6,-1
 68 -196 l 1,7,-1
 68 486 l 1,8,-1
 171 486 l 1,9,-1
 171 144 l 2,10,11
 171 71 171 71 260 71 c 0,12,13
 288 71 288 71 313 98.5 c 128,-1,14
 338 126 338 126 338 149 c 2,15,-1
 338 487 l 1,16,-1
 448 487 l 1,17,-1
 448 117 l 2,18,19
 447 49 447 49 475 31 c 0,20,21
 494 18 494 18 517 -7 c 1,22,-1
 433 -72 l 1,23,24
 368 -34 368 -34 347 29 c 1,0,-1
EndSplineSet
EndChar
StartChar: partialdiff
Encoding: 8706 8706 152
Width: 552
Flags: W
Fore
43 238 m 0,0,1
 42 376 42 376 111 446 c 0,2,3
 172 508 172 508 277 508 c 0,4,5
 345 508 345 508 398 452 c 1,6,7
 390 478 390 478 373 513 c 0,8,9
 353 551 353 551 339 561 c 0,10,11
 306 586 306 586 245 586 c 0,12,13
 176 586 176 586 101 552 c 1,14,-1
 70 665 l 1,15,16
 150 689 150 689 226 689 c 0,17,18
 334 689 334 689 394 645 c 0,19,20
 510 560 510 560 510 298 c 0,21,22
 510 152 510 152 462 76 c 0,23,24
 404 -17 404 -17 270 -17 c 0,25,26
 165 -17 165 -17 101 64 c 0,27,28
 44 137 44 137 43 238 c 0,0,1
276 416 m 0,29,30
 223 416 223 416 192 373.5 c 128,-1,31
 161 331 161 331 161 251 c 0,32,33
 161 181 161 181 194 133.5 c 128,-1,34
 227 86 227 86 280 86 c 0,35,36
 406 86 406 86 406 266 c 0,37,38
 406 305 406 305 401 342 c 1,39,40
 347 416 347 416 276 416 c 0,29,30
EndSplineSet
EndChar
StartChar: summation
Encoding: 8721 8721 153
Width: 491
Flags: W
Fore
92 91 m 1,0,-1
 281 339 l 1,1,-1
 91 536 l 1,2,-1
 104 633 l 1,3,-1
 448 633 l 1,4,-1
 448 528 l 1,5,-1
 249 528 l 1,6,-1
 422 349 l 1,7,-1
 241 109 l 1,8,-1
 448 110 l 1,9,-1
 448 0 l 1,10,-1
 92 0 l 1,11,-1
 92 91 l 1,0,-1
EndSplineSet
EndChar
StartChar: product
Encoding: 8719 8719 154
Width: 595
Flags: W
Fore
388 0 m 1,0,-1
 388 529 l 1,1,-1
 246 529 l 1,2,-1
 246 0 l 1,3,-1
 123 0 l 1,4,-1
 123 642 l 1,5,-1
 511 642 l 1,6,-1
 511 0 l 1,7,-1
 388 0 l 1,0,-1
EndSplineSet
EndChar
StartChar: pi
Encoding: 960 960 155
Width: 518
Flags: W
Fore
346 410 m 1,0,-1
 222 410 l 1,1,-1
 222 0 l 1,2,-1
 106 0 l 1,3,-1
 106 410 l 1,4,-1
 69 410 l 1,5,-1
 69 508 l 1,6,-1
 462 508 l 1,7,-1
 462 0 l 1,8,-1
 346 0 l 1,9,-1
 346 410 l 1,0,-1
EndSplineSet
EndChar
StartChar: integral
Encoding: 8747 8747 156
Width: 303
Flags: W
Fore
225 595 m 0,0,1
 180 595 180 595 180 523 c 0,2,3
 180 479 180 479 225 318 c 0,4,5
 272 150 272 150 272 63 c 0,6,7
 272 -21 272 -21 240 -73 c 0,8,9
 199 -140 199 -140 111 -140 c 0,10,11
 90 -140 90 -140 18 -116 c 1,12,-1
 43 4 l 1,13,14
 91 -24 91 -24 114 -24 c 0,15,16
 155 -24 155 -24 155 79 c 0,17,18
 155 116 155 116 109 273 c 0,19,20
 61 437 61 437 61 524 c 0,21,22
 61 604 61 604 97 654 c 0,23,24
 140 713 140 713 227 713 c 0,25,26
 265 713 265 713 325 677 c 1,27,-1
 274 567 l 1,28,29
 240 595 240 595 225 595 c 0,0,1
EndSplineSet
EndChar
StartChar: Omega
Encoding: 8486 937 159
AltUni: 8486
Width: 646
Flags: W
Fore
417 99 m 1,0,-1
 565 99 l 1,1,-1
 565 0 l 1,2,-1
 335 0 l 1,3,-1
 335 203 l 1,4,5
 394 203 394 203 434 254 c 0,6,7
 470 299 470 299 470 347 c 0,8,9
 470 546 470 546 317 547 c 0,10,11
 241 547 241 547 198 494.5 c 128,-1,12
 155 442 155 442 155 347 c 0,13,14
 155 295 155 295 185 254 c 0,15,16
 223 203 223 203 290 203 c 1,17,-1
 290 0 l 1,18,-1
 61 0 l 1,19,-1
 61 99 l 1,20,-1
 205 99 l 1,21,-1
 205 125 l 1,22,23
 137 143 137 143 88.5 213 c 128,-1,24
 40 283 40 283 40 357 c 0,25,26
 40 495 40 495 116 568 c 0,27,28
 188 637 188 637 318 637 c 0,29,30
 447 637 447 637 516.5 566 c 128,-1,31
 586 495 586 495 586 357 c 0,32,33
 586 283 586 283 536 212 c 128,-1,34
 486 141 486 141 417 125 c 1,35,-1
 417 99 l 1,0,-1
EndSplineSet
EndChar
StartChar: ae
Encoding: 230 230 160
Width: 775
Flags: W
Fore
541 429 m 0,0,1
 487 429 487 429 462 402 c 0,2,3
 443 382 443 382 427 325 c 1,4,-1
 615 325 l 1,5,-1
 615 326 l 2,6,7
 615 429 615 429 541 429 c 0,0,1
281 -1 m 0,8,9
 241 -16 241 -16 190 -16 c 0,10,11
 128 -16 128 -16 86 23 c 0,12,13
 41 65 41 65 41 136 c 0,14,15
 41 219 41 219 92 257 c 0,16,17
 125 281 125 281 216 303 c 0,18,19
 255 312 255 312 304 319 c 1,20,-1
 304 358 l 2,21,22
 304 379 304 379 286 394 c 128,-1,23
 268 409 268 409 243 409 c 0,24,25
 197 409 197 409 113 341 c 1,26,-1
 52 422 l 1,27,28
 93 459 93 459 154 487 c 0,29,30
 211 512 211 512 243 512 c 0,31,32
 333 512 333 512 383 446 c 1,33,34
 447 507 447 507 547 507 c 0,35,36
 624 507 624 507 675 452 c 128,-1,37
 726 397 726 397 726 304 c 2,38,-1
 726 239 l 1,39,-1
 426 239 l 1,40,41
 428 68 428 68 551 68 c 0,42,43
 605 68 605 68 664 146 c 1,44,-1
 718 75 l 1,45,46
 648 -12 648 -12 544 -12 c 0,47,48
 430 -12 430 -12 369 58 c 1,49,50
 316 12 316 12 281 -1 c 0,8,9
251 205 m 0,51,52
 196 195 196 195 182 189 c 0,53,54
 147 173 147 173 147 134 c 0,55,56
 146 80 146 80 201 80 c 0,57,58
 234 80 234 80 265 94 c 0,59,60
 304 111 304 111 304 140 c 2,61,-1
 304 214 l 1,62,63
 298 213 298 213 251 205 c 0,51,52
EndSplineSet
EndChar
StartChar: oslash
Encoding: 248 248 161
Width: 546
Flags: W
Fore
416 549 m 1,0,-1
 395 478 l 1,1,2
 507 409 507 409 507 252 c 0,3,4
 507 164 507 164 462 91 c 0,5,6
 399 -11 399 -11 275 -11 c 0,7,8
 257 -11 257 -11 249 -10 c 1,9,-1
 230 -74 l 1,10,-1
 123 -40 l 1,11,-1
 142 25 l 1,12,13
 84 63 84 63 58 139 c 0,14,15
 39 192 39 192 39 252 c 0,16,17
 39 380 39 380 120 452 c 0,18,19
 187 512 187 512 276 512 c 2,20,-1
 287 512 l 1,21,-1
 308 583 l 1,22,-1
 416 549 l 1,0,-1
263 432 m 1,23,24
 210 424 210 424 181 366 c 0,25,26
 155 316 155 316 155 246 c 0,27,28
 155 186 155 186 176 139 c 1,29,-1
 263 432 l 1,23,24
391 251 m 0,30,31
 391 323 391 323 364 375 c 1,32,-1
 272 67 l 1,33,34
 329 68 329 68 362 125 c 0,35,36
 391 177 391 177 391 251 c 0,30,31
EndSplineSet
EndChar
StartChar: questiondown
Encoding: 191 191 162
Width: 459
Flags: W
Fore
166 333 m 0,0,1
 179 390 179 390 170 489 c 1,2,-1
 277 489 l 1,3,4
 285 442 285 442 285 395 c 0,5,6
 285 243 285 243 209 173 c 0,7,8
 166 133 166 133 165 133 c 1,9,10
 141 106 141 106 141 80 c 0,11,12
 141 44 141 44 161.5 24 c 128,-1,13
 182 4 182 4 213 4 c 0,14,15
 284 4 284 4 318 109 c 1,16,-1
 413 59 l 1,17,18
 380 -25 380 -25 336 -63 c 0,19,20
 289 -103 289 -103 217 -103 c 0,21,22
 133 -103 133 -103 81 -43 c 0,23,24
 34 11 34 11 34 81 c 0,25,26
 34 183 34 183 110 241 c 0,27,28
 152 273 152 273 166 333 c 0,0,1
295 608 m 256,29,30
 295 577 295 577 274.5 555.5 c 128,-1,31
 254 534 254 534 225 534 c 256,32,33
 196 534 196 534 175 555.5 c 128,-1,34
 154 577 154 577 154 608 c 0,35,36
 154 638 154 638 175 659.5 c 128,-1,37
 196 681 196 681 225 681 c 256,38,39
 254 681 254 681 274.5 660 c 128,-1,40
 295 639 295 639 295 608 c 256,29,30
EndSplineSet
EndChar
StartChar: exclamdown
Encoding: 161 161 163
Width: 235
Flags: W
Fore
172 501 m 1,0,-1
 172 -103 l 1,1,-1
 48 -103 l 1,2,-1
 48 501 l 1,3,-1
 172 501 l 1,0,-1
192 649 m 256,4,5
 192 617 192 617 169.5 594 c 128,-1,6
 147 571 147 571 114 571 c 0,7,8
 82 571 82 571 59.5 594 c 128,-1,9
 37 617 37 617 37 649 c 256,10,11
 37 681 37 681 59.5 703.5 c 128,-1,12
 82 726 82 726 114 726 c 0,13,14
 147 726 147 726 169.5 703.5 c 128,-1,15
 192 681 192 681 192 649 c 256,4,5
EndSplineSet
EndChar
StartChar: logicalnot
Encoding: 172 172 164
Width: 613
Flags: W
Fore
443 225 m 1,0,-1
 88 225 l 1,1,-1
 88 343 l 1,2,-1
 558 343 l 1,3,-1
 558 28 l 1,4,-1
 443 28 l 1,5,-1
 443 225 l 1,0,-1
EndSplineSet
EndChar
StartChar: radical
Encoding: 8730 8730 165
Width: 503
Flags: W
Fore
135 -10 m 1,0,-1
 51 308 l 1,1,-1
 152 364 l 1,2,-1
 178 224 l 1,3,-1
 257 639 l 1,4,-1
 363 639 l 1,5,-1
 231 -10 l 1,6,-1
 135 -10 l 1,0,-1
EndSplineSet
EndChar
StartChar: florin
Encoding: 402 402 166
Width: 361
Flags: W
Fore
267 606 m 0,0,1
 217 606 217 606 208 499 c 1,2,-1
 334 499 l 1,3,-1
 325 399 l 1,4,-1
 202 399 l 1,5,-1
 156 -122 l 1,6,-1
 48 -123 l 1,7,-1
 95 397 l 1,8,-1
 23 396 l 1,9,-1
 33 497 l 1,10,-1
 103 498 l 1,11,12
 124 709 124 709 273 711 c 0,13,14
 319 711 319 711 348 697 c 0,15,16
 353 694 353 694 410 654 c 1,17,-1
 351 570 l 1,18,19
 296 606 296 606 267 606 c 0,0,1
EndSplineSet
EndChar
StartChar: approxequal
Encoding: 8946 8776 167
AltUni: 8946
Width: 536
Flags: W
Fore
261 285 m 0,0,1
 235 306 235 306 225 306 c 0,2,3
 213 306 213 306 200 291 c 0,4,5
 194 284 194 284 163 238 c 1,6,-1
 126 336 l 1,7,8
 177 397 177 397 228 397 c 0,9,10
 260 397 260 397 292 375.5 c 128,-1,11
 324 354 324 354 330 354 c 0,12,13
 335 354 335 354 357 378 c 0,14,15
 367 390 367 390 378 402 c 1,16,-1
 416 307 l 1,17,18
 368 257 368 257 323 257 c 0,19,20
 295 257 295 257 261 285 c 0,0,1
261 107 m 0,21,22
 234 128 234 128 225 128 c 0,23,24
 213 128 213 128 200 113 c 0,25,26
 193 105 193 105 163 61 c 1,27,-1
 126 158 l 1,28,29
 177 219 177 219 228 219 c 0,30,31
 260 219 260 219 292 198 c 128,-1,32
 324 177 324 177 330 177 c 0,33,34
 335 177 335 177 357 200 c 0,35,36
 367 212 367 212 378 224 c 1,37,-1
 416 129 l 1,38,39
 368 79 368 79 323 79 c 0,40,41
 297 79 297 79 261 107 c 0,21,22
EndSplineSet
EndChar
StartChar: Delta
Encoding: 8710 916 168
AltUni: 8710
Width: 689
Flags: W
Fore
320 657 m 1,0,-1
 426 657 l 1,1,-1
 649 0 l 1,2,-1
 77 0 l 1,3,-1
 320 657 l 1,0,-1
235 90 m 1,4,-1
 492 90 l 1,5,-1
 372 490 l 1,6,-1
 235 90 l 1,4,-1
EndSplineSet
EndChar
StartChar: guillemotleft
Encoding: 171 171 169
Width: 390
Flags: W
Fore
419 126 m 1,0,-1
 312 122 l 1,1,-1
 156 289 l 1,2,-1
 312 451 l 1,3,-1
 419 447 l 1,4,-1
 288 286 l 1,5,-1
 419 126 l 1,0,-1
261 126 m 1,6,-1
 154 122 l 1,7,-1
 -1 289 l 1,8,-1
 154 451 l 1,9,-1
 261 447 l 1,10,-1
 131 286 l 1,11,-1
 261 126 l 1,6,-1
EndSplineSet
EndChar
StartChar: guillemotright
Encoding: 187 187 170
Width: 393
Flags: W
Fore
141 126 m 1,0,-1
 273 286 l 1,1,-1
 141 447 l 1,2,-1
 250 451 l 1,3,-1
 404 289 l 1,4,-1
 250 122 l 1,5,-1
 141 126 l 1,0,-1
-17 126 m 1,6,-1
 115 286 l 1,7,-1
 -16 447 l 1,8,-1
 92 451 l 1,9,-1
 246 289 l 1,10,-1
 92 122 l 1,11,-1
 -17 126 l 1,6,-1
EndSplineSet
EndChar
StartChar: ellipsis
Encoding: 8230 8230 171
Width: 900
Flags: W
Fore
603 53 m 0,0,1
 603 95 603 95 630 120 c 0,2,3
 654 142 654 142 690 142 c 256,4,5
 726 142 726 142 751 118.5 c 128,-1,6
 776 95 776 95 776 53 c 0,7,8
 776 12 776 12 751 -12 c 128,-1,9
 726 -36 726 -36 690 -36 c 0,10,11
 655 -36 655 -36 629 -12 c 128,-1,12
 603 12 603 12 603 53 c 0,0,1
364 53 m 0,13,14
 364 95 364 95 391 120 c 0,15,16
 415 142 415 142 451 142 c 256,17,18
 487 142 487 142 512 118.5 c 128,-1,19
 537 95 537 95 537 53 c 0,20,21
 537 12 537 12 512 -12 c 128,-1,22
 487 -36 487 -36 451 -36 c 0,23,24
 416 -36 416 -36 390 -12 c 128,-1,25
 364 12 364 12 364 53 c 0,13,14
125 53 m 0,26,27
 125 95 125 95 152 120 c 0,28,29
 176 142 176 142 212 142 c 256,30,31
 248 142 248 142 273 118.5 c 128,-1,32
 298 95 298 95 298 53 c 0,33,34
 298 12 298 12 273 -12 c 128,-1,35
 248 -36 248 -36 212 -36 c 0,36,37
 177 -36 177 -36 151 -12 c 128,-1,38
 125 12 125 12 125 53 c 0,26,27
EndSplineSet
EndChar
StartChar: Agrave
Encoding: 192 192 173
Width: 580
Flags: W
Fore
377 168 m 1,0,-1
 196 168 l 1,1,-1
 142 -12 l 1,2,-1
 29 2 l 1,3,-1
 236 654 l 1,4,-1
 338 654 l 1,5,-1
 549 7 l 1,6,-1
 433 -12 l 1,7,-1
 377 168 l 1,0,-1
223 261 m 1,8,-1
 350 261 l 1,9,-1
 287 483 l 1,10,-1
 223 261 l 1,8,-1
365 686 m 1,11,-1
 156 776 l 1,12,-1
 203 841 l 1,13,-1
 413 745 l 1,14,-1
 365 686 l 1,11,-1
EndSplineSet
EndChar
StartChar: Atilde
Encoding: 195 195 174
Width: 580
Flags: W
Fore
377 168 m 1,0,-1
 196 168 l 1,1,-1
 142 -12 l 1,2,-1
 29 2 l 1,3,-1
 236 654 l 1,4,-1
 338 654 l 1,5,-1
 549 7 l 1,6,-1
 433 -12 l 1,7,-1
 377 168 l 1,0,-1
223 261 m 1,8,-1
 350 261 l 1,9,-1
 287 483 l 1,10,-1
 223 261 l 1,8,-1
279 719 m 0,11,12
 243 742 243 742 235 742 c 0,13,14
 209 742 209 742 169 695 c 1,15,-1
 130 773 l 1,16,17
 169 823 169 823 235 825 c 0,18,19
 265 826 265 826 304 799 c 128,-1,20
 343 772 343 772 353 772 c 0,21,22
 366 772 366 772 404 803 c 1,23,-1
 441 727 l 1,24,25
 425 711 425 711 397.5 700 c 128,-1,26
 370 689 370 689 355 689 c 0,27,28
 326 689 326 689 279 719 c 0,11,12
EndSplineSet
EndChar
StartChar: Otilde
Encoding: 213 213 175
Width: 648
Flags: W
Fore
37 322 m 0,0,1
 37 462 37 462 120 554 c 128,-1,2
 203 646 203 646 331 646 c 256,3,4
 459 646 459 646 538.5 554 c 128,-1,5
 618 462 618 462 618 322 c 0,6,7
 618 163 618 163 532 71 c 0,8,9
 451 -16 451 -16 324 -16 c 0,10,11
 198 -16 198 -16 120 71 c 0,12,13
 37 163 37 163 37 322 c 0,0,1
152 313 m 0,14,15
 152 219 152 219 202 151.5 c 128,-1,16
 252 84 252 84 324 84 c 0,17,18
 397 84 397 84 450.5 151.5 c 128,-1,19
 504 219 504 219 504 312 c 0,20,21
 504 409 504 409 454 478.5 c 128,-1,22
 404 548 404 548 329 548 c 256,23,24
 254 548 254 548 203 478.5 c 128,-1,25
 152 409 152 409 152 313 c 0,14,15
300 699 m 0,26,27
 264 722 264 722 256 722 c 0,28,29
 230 722 230 722 190 675 c 1,30,-1
 151 753 l 1,31,32
 190 803 190 803 256 805 c 0,33,34
 286 806 286 806 325 779 c 128,-1,35
 364 752 364 752 374 752 c 0,36,37
 387 752 387 752 425 783 c 1,38,-1
 462 707 l 1,39,40
 446 691 446 691 418.5 680 c 128,-1,41
 391 669 391 669 376 669 c 0,42,43
 347 669 347 669 300 699 c 0,26,27
EndSplineSet
EndChar
StartChar: OE
Encoding: 338 338 176
Width: 1028
Flags: W
Fore
585 157 m 1,0,1
 489 -3 489 -3 336 -3 c 0,2,3
 207 -3 207 -3 126 87 c 0,4,5
 42 181 42 181 42 340 c 0,6,7
 42 480 42 480 126 568.5 c 128,-1,8
 210 657 210 657 342 657 c 0,9,10
 492 657 492 657 585 510 c 1,11,-1
 585 639 l 1,12,-1
 964 639 l 1,13,-1
 964 534 l 1,14,-1
 677 534 l 1,15,-1
 677 390 l 1,16,-1
 955 390 l 1,17,-1
 955 291 l 1,18,-1
 677 291 l 1,19,-1
 677 107 l 1,20,-1
 964 107 l 1,21,-1
 964 0 l 1,22,-1
 585 0 l 1,23,-1
 585 157 l 1,0,1
161 331 m 256,24,25
 161 236 161 236 212 167 c 128,-1,26
 263 98 263 98 336 98 c 0,27,28
 410 98 410 98 464 167 c 128,-1,29
 518 236 518 236 518 331 c 0,30,31
 518 427 518 427 468.5 492.5 c 128,-1,32
 419 558 419 558 341 558 c 256,33,34
 263 558 263 558 212 492 c 128,-1,35
 161 426 161 426 161 331 c 256,24,25
EndSplineSet
EndChar
StartChar: oe
Encoding: 339 339 177
Width: 1033
Flags: W
Fore
209 246 m 0,0,1
 209 176 209 176 239 128 c 0,2,3
 272 76 272 76 330 76 c 0,4,5
 390 76 390 76 424 129 c 0,6,7
 454 178 454 178 454 251 c 0,8,9
 454 323 454 323 425 370 c 0,10,11
 394 423 394 423 339 423 c 0,12,13
 275 423 275 423 240 369 c 0,14,15
 209 321 209 321 209 246 c 0,0,1
736 68 m 0,16,17
 806 68 806 68 862 148 c 1,18,-1
 924 68 l 1,19,20
 838 -12 838 -12 729 -12 c 0,21,22
 648 -12 648 -12 600 25 c 0,23,24
 565 52 565 52 538 109 c 1,25,26
 473 -11 473 -11 334 -11 c 0,27,28
 194 -11 194 -11 131 92 c 0,29,30
 89 160 89 160 89 252 c 0,31,32
 89 380 89 380 173 452 c 0,33,34
 242 512 242 512 335 512 c 0,35,36
 395 512 395 512 449 483 c 0,37,38
 510 451 510 451 543 390 c 1,39,40
 607 507 607 507 743 507 c 0,41,42
 821 507 821 507 870 458 c 0,43,44
 924 406 924 406 924 313 c 2,45,-1
 924 238 l 1,46,-1
 629 238 l 1,47,48
 635 68 635 68 736 68 c 0,16,17
820 323 m 1,49,50
 818 363 818 363 799 393 c 0,51,52
 776 429 776 429 736 429 c 0,53,54
 649 429 649 429 642 323 c 1,55,-1
 820 323 l 1,49,50
EndSplineSet
EndChar
StartChar: endash
Encoding: 8211 8211 178
Width: 500
Flags: W
Fore
34 363 m 1,0,-1
 466 363 l 1,1,-1
 466 292 l 1,2,-1
 34 292 l 1,3,-1
 34 363 l 1,0,-1
EndSplineSet
EndChar
StartChar: emdash
Encoding: 8212 8212 179
Width: 1000
Flags: W
Fore
27 363 m 1,0,-1
 973 363 l 1,1,-1
 973 292 l 1,2,-1
 27 292 l 1,3,-1
 27 363 l 1,0,-1
EndSplineSet
EndChar
StartChar: quotedblleft
Encoding: 8220 8220 180
Width: 429
Flags: W
Fore
321 675 m 1,0,-1
 387 672 l 1,1,2
 368 631 368 631 361 579 c 0,3,4
 360 569 360 569 356 493 c 1,5,-1
 251 493 l 1,6,7
 251 529 251 529 275 587 c 0,8,9
 296 640 296 640 321 675 c 1,0,-1
121 675 m 1,10,-1
 187 672 l 1,11,12
 168 631 168 631 161 579 c 0,13,14
 160 569 160 569 156 493 c 1,15,-1
 51 493 l 1,16,17
 51 529 51 529 75 587 c 0,18,19
 96 640 96 640 121 675 c 1,10,-1
EndSplineSet
EndChar
StartChar: quotedblright
Encoding: 8221 8221 181
Width: 429
Flags: W
Fore
117 483 m 1,0,-1
 51 496 l 1,1,2
 70 537 70 537 77 589 c 0,3,4
 78 599 78 599 82 675 c 1,5,-1
 187 675 l 1,6,7
 187 639 187 639 163 576 c 0,8,9
 141 517 141 517 117 483 c 1,0,-1
317 483 m 1,10,-1
 251 496 l 1,11,12
 270 537 270 537 277 589 c 0,13,14
 278 599 278 599 282 675 c 1,15,-1
 387 675 l 1,16,17
 387 639 387 639 363 576 c 0,18,19
 341 517 341 517 317 483 c 1,10,-1
EndSplineSet
EndChar
StartChar: quoteleft
Encoding: 8216 8216 182
Width: 138
Flags: W
Fore
71 675 m 1,0,-1
 137 672 l 1,1,2
 118 631 118 631 111 579 c 0,3,4
 110 569 110 569 106 493 c 1,5,-1
 1 493 l 1,6,7
 1 529 1 529 25 587 c 0,8,9
 46 640 46 640 71 675 c 1,0,-1
EndSplineSet
EndChar
StartChar: quoteright
Encoding: 8217 8217 183
Width: 138
Flags: W
Fore
67 493 m 1,0,-1
 1 506 l 1,1,2
 20 547 20 547 27 599 c 0,3,4
 28 609 28 609 32 685 c 1,5,-1
 137 685 l 1,6,7
 137 649 137 649 113 586 c 0,8,9
 91 527 91 527 67 493 c 1,0,-1
EndSplineSet
EndChar
StartChar: divide
Encoding: 247 247 184
Width: 496
Flags: W
Fore
190 480 m 0,0,1
 190 513 190 513 211 536 c 128,-1,2
 232 559 232 559 262 559 c 0,3,4
 293 559 293 559 314 536 c 128,-1,5
 335 513 335 513 335 480 c 0,6,7
 335 448 335 448 314 425 c 128,-1,8
 293 402 293 402 262 402 c 0,9,10
 232 402 232 402 211 425 c 128,-1,11
 190 448 190 448 190 480 c 0,0,1
52 360 m 1,12,-1
 456 360 l 1,13,-1
 456 260 l 1,14,-1
 52 260 l 1,15,-1
 52 360 l 1,12,-1
190 142 m 0,16,17
 190 174 190 174 211 197 c 128,-1,18
 232 220 232 220 262 220 c 0,19,20
 293 220 293 220 314 197 c 128,-1,21
 335 174 335 174 335 142 c 0,22,23
 335 109 335 109 314 86 c 128,-1,24
 293 63 293 63 262 63 c 0,25,26
 232 63 232 63 211 86 c 128,-1,27
 190 109 190 109 190 142 c 0,16,17
EndSplineSet
EndChar
StartChar: lozenge
Encoding: 9674 9674 185
Width: 576
Flags: W
Fore
12 333 m 1,0,-1
 275 589 l 1,1,-1
 537 333 l 1,2,-1
 275 78 l 1,3,-1
 12 333 l 1,0,-1
159 332 m 1,4,-1
 278 217 l 1,5,-1
 396 332 l 1,6,-1
 278 448 l 1,7,-1
 159 332 l 1,4,-1
EndSplineSet
EndChar
StartChar: ydieresis
Encoding: 255 255 186
Width: 467
Flags: W
Fore
119 -196 m 0,0,1
 94 -196 94 -196 22 -172 c 1,2,-1
 54 -77 l 1,3,4
 91 -97 91 -97 124 -97 c 0,5,6
 154 -97 154 -97 179 -39 c 0,7,8
 194 5 194 5 208 48 c 1,9,-1
 28 473 l 1,10,-1
 134 503 l 1,11,-1
 261 137 l 1,12,-1
 369 501 l 1,13,-1
 469 476 l 1,14,-1
 270 -78 l 2,15,16
 253 -125 253 -125 217 -157 c 0,17,18
 174 -196 174 -196 119 -196 c 0,0,1
273 598 m 0,19,20
 273 624 273 624 290 645 c 0,21,22
 309 670 309 670 343 670 c 0,23,24
 376 670 376 670 396 645 c 0,25,26
 413 624 413 624 413 598 c 0,27,28
 413 571 413 571 396 550 c 0,29,30
 376 526 376 526 343 526 c 0,31,32
 309 526 309 526 290 550 c 0,33,34
 273 570 273 570 273 598 c 0,19,20
64 598 m 0,35,36
 64 625 64 625 80 645 c 0,37,38
 100 670 100 670 134 670 c 0,39,40
 166 670 166 670 186 645 c 0,41,42
 203 624 203 624 203 598 c 0,43,44
 203 571 203 571 186 550 c 0,45,46
 167 526 167 526 134 526 c 0,47,48
 100 526 100 526 80 550 c 0,49,50
 64 570 64 570 64 598 c 0,35,36
EndSplineSet
EndChar
StartChar: Ydieresis
Encoding: 376 376 187
Width: 482
Flags: W
Fore
316 0 m 1,0,-1
 197 0 l 1,1,-1
 197 271 l 1,2,-1
 26 621 l 1,3,-1
 136 654 l 1,4,-1
 259 375 l 1,5,-1
 380 654 l 1,6,-1
 486 621 l 1,7,-1
 316 271 l 1,8,-1
 316 0 l 1,0,-1
306 758 m 0,9,10
 306 785 306 785 322 805 c 0,11,12
 342 830 342 830 376 830 c 0,13,14
 408 830 408 830 429 805 c 0,15,16
 446 784 446 784 446 758 c 0,17,18
 446 731 446 731 429 710 c 0,19,20
 409 686 409 686 376 686 c 0,21,22
 342 686 342 686 322 710 c 0,23,24
 306 730 306 730 306 758 c 0,9,10
96 758 m 0,25,26
 96 785 96 785 112 805 c 0,27,28
 132 830 132 830 166 830 c 0,29,30
 199 830 199 830 219 805 c 0,31,32
 236 784 236 784 236 758 c 0,33,34
 236 731 236 731 219 710 c 0,35,36
 199 686 199 686 166 686 c 0,37,38
 132 686 132 686 113 710 c 0,39,40
 96 730 96 730 96 758 c 0,25,26
EndSplineSet
EndChar
StartChar: fraction
Encoding: 8260 8260 188
Width: 537
Flags: W
Fore
53 126 m 1,0,-1
 416 594 l 1,1,-1
 520 528 l 1,2,-1
 157 60 l 1,3,-1
 53 126 l 1,0,-1
EndSplineSet
EndChar
StartChar: currency
Encoding: 164 164 189
Width: 489
Flags: W
Fore
244 349 m 1,0,-1
 244 304 l 1,1,-1
 406 304 l 1,2,-1
 406 226 l 1,3,-1
 244 226 l 1,4,-1
 244 109 l 1,5,-1
 419 110 l 1,6,-1
 419 0 l 1,7,-1
 127 0 l 1,8,-1
 127 226 l 1,9,-1
 36 226 l 1,10,-1
 36 304 l 1,11,-1
 127 304 l 1,12,-1
 127 350 l 1,13,-1
 36 350 l 1,14,-1
 36 437 l 1,15,-1
 127 437 l 1,16,-1
 127 640 l 1,17,-1
 422 640 l 1,18,-1
 422 535 l 1,19,-1
 244 535 l 1,20,-1
 244 437 l 1,21,-1
 406 437 l 1,22,-1
 406 349 l 1,23,-1
 244 349 l 1,0,-1
EndSplineSet
EndChar
StartChar: guilsinglleft
Encoding: 8249 8249 190
Width: 319
Flags: W
Fore
297 126 m 1,0,-1
 195 122 l 1,1,-1
 49 289 l 1,2,-1
 195 451 l 1,3,-1
 297 447 l 1,4,-1
 173 286 l 1,5,-1
 297 126 l 1,0,-1
EndSplineSet
EndChar
StartChar: guilsinglright
Encoding: 8250 8250 191
Width: 317
Flags: W
Fore
30 126 m 1,0,-1
 153 286 l 1,1,-1
 30 447 l 1,2,-1
 131 451 l 1,3,-1
 277 289 l 1,4,-1
 131 122 l 1,5,-1
 30 126 l 1,0,-1
EndSplineSet
EndChar
StartChar: fi
Encoding: 61441 61441 192
Width: 484
Flags: W
Fore
247 657 m 0,0,1
 208 658 208 658 197 593 c 0,2,3
 192 562 192 562 194 498 c 1,4,-1
 432 498 l 1,5,-1
 432 0 l 1,6,-1
 321 0 l 1,7,-1
 321 408 l 1,8,-1
 193 408 l 1,9,-1
 193 0 l 1,10,-1
 88 0 l 1,11,-1
 88 408 l 1,12,-1
 18 408 l 1,13,-1
 18 498 l 1,14,-1
 88 498 l 1,15,-1
 88 552 l 2,16,17
 88 621 88 621 117 674 c 0,18,19
 159 748 159 748 247 748 c 0,20,21
 294 748 294 748 323 735 c 0,22,23
 328 732 328 732 387 694 c 1,24,-1
 331 621 l 1,25,26
 278 656 278 656 247 657 c 0,0,1
EndSplineSet
EndChar
StartChar: fl
Encoding: 61442 61442 193
Width: 529
Flags: W
Fore
355 640 m 1,0,-1
 355 699 l 1,1,-1
 465 699 l 1,2,-1
 465 1 l 1,3,-1
 355 1 l 1,4,-1
 355 582 l 1,5,6
 312 628 312 628 248 628 c 0,7,8
 193 628 193 628 193 559 c 2,9,-1
 193 498 l 1,10,-1
 282 498 l 1,11,-1
 282 408 l 1,12,-1
 193 408 l 1,13,-1
 193 0 l 1,14,-1
 88 0 l 1,15,-1
 88 408 l 1,16,-1
 18 408 l 1,17,-1
 18 498 l 1,18,-1
 88 498 l 1,19,-1
 88 522 l 2,20,21
 88 718 88 718 227 718 c 0,22,23
 287 718 287 718 355 640 c 1,0,-1
EndSplineSet
EndChar
StartChar: daggerdbl
Encoding: 8225 8225 194
Width: 221
Flags: W
Fore
141 383 m 1,0,-1
 141 245 l 1,1,-1
 64 245 l 1,2,-1
 64 383 l 1,3,-1
 4 383 l 1,4,-1
 4 442 l 1,5,-1
 64 442 l 1,6,-1
 64 522 l 1,7,-1
 4 522 l 1,8,-1
 4 580 l 1,9,-1
 64 580 l 1,10,-1
 64 655 l 1,11,-1
 141 655 l 1,12,-1
 141 580 l 1,13,-1
 203 580 l 1,14,-1
 203 522 l 1,15,-1
 141 522 l 1,16,-1
 141 442 l 1,17,-1
 203 442 l 1,18,-1
 203 383 l 1,19,-1
 141 383 l 1,0,-1
EndSplineSet
EndChar
StartChar: periodcentered
Encoding: 8729 183 195
AltUni: 8729
Width: 236
Flags: W
Fore
41 413 m 256,0,1
 41 453 41 453 66.5 482.5 c 128,-1,2
 92 512 92 512 128 512 c 0,3,4
 165 512 165 512 189.5 483 c 128,-1,5
 214 454 214 454 214 413 c 0,6,7
 214 373 214 373 189.5 343.5 c 128,-1,8
 165 314 165 314 128 314 c 0,9,10
 92 314 92 314 66.5 343.5 c 128,-1,11
 41 373 41 373 41 413 c 256,0,1
EndSplineSet
EndChar
StartChar: quotesinglbase
Encoding: 8218 8218 196
Width: 214
Flags: W
Fore
67 -107 m 1,0,-1
 1 -94 l 1,1,2
 20 -53 20 -53 27 -1 c 0,3,4
 28 9 28 9 32 85 c 1,5,-1
 137 85 l 1,6,7
 137 49 137 49 113 -14 c 0,8,9
 91 -73 91 -73 67 -107 c 1,0,-1
EndSplineSet
EndChar
StartChar: quotedblbase
Encoding: 8222 8222 197
Width: 417
Flags: W
Fore
117 -117 m 1,0,-1
 51 -104 l 1,1,2
 70 -63 70 -63 77 -11 c 0,3,4
 78 -1 78 -1 82 75 c 1,5,-1
 187 75 l 1,6,7
 187 39 187 39 163 -24 c 0,8,9
 141 -83 141 -83 117 -117 c 1,0,-1
317 -117 m 1,10,-1
 251 -104 l 1,11,12
 270 -63 270 -63 277 -11 c 0,13,14
 278 -1 278 -1 282 75 c 1,15,-1
 387 75 l 1,16,17
 387 39 387 39 363 -24 c 0,18,19
 341 -83 341 -83 317 -117 c 1,10,-1
EndSplineSet
EndChar
StartChar: perthousand
Encoding: 8240 8240 198
Width: 886
Flags: W
Fore
598 124 m 0,0,1
 598 180 598 180 633 218 c 128,-1,2
 668 256 668 256 720 256 c 256,3,4
 772 256 772 256 806.5 218 c 128,-1,5
 841 180 841 180 841 124 c 0,6,7
 841 59 841 59 807.5 24.5 c 128,-1,8
 774 -10 774 -10 720 -10 c 256,9,10
 666 -10 666 -10 632 25 c 128,-1,11
 598 60 598 60 598 124 c 0,0,1
22 518 m 0,12,13
 22 574 22 574 56.5 612 c 128,-1,14
 91 650 91 650 143 650 c 0,15,16
 196 650 196 650 230.5 612.5 c 128,-1,17
 265 575 265 575 265 518 c 0,18,19
 265 455 265 455 231 420 c 128,-1,20
 197 385 197 385 143 385 c 0,21,22
 90 385 90 385 56 420 c 128,-1,23
 22 455 22 455 22 518 c 0,12,13
333 124 m 0,24,25
 333 180 333 180 368.5 218 c 128,-1,26
 404 256 404 256 456 256 c 256,27,28
 508 256 508 256 542.5 218 c 128,-1,29
 577 180 577 180 577 124 c 0,30,31
 577 59 577 59 543.5 24.5 c 128,-1,32
 510 -10 510 -10 456 -10 c 0,33,34
 401 -10 401 -10 367 25 c 128,-1,35
 333 60 333 60 333 124 c 0,24,25
23 -46 m 1,36,-1
 402 634 l 1,37,-1
 504 596 l 1,38,-1
 131 -82 l 1,39,-1
 23 -46 l 1,36,-1
695 121 m 0,40,41
 695 79 695 79 720 79 c 256,42,43
 745 79 745 79 745 121 c 0,44,45
 745 135 745 135 739 148 c 0,46,47
 731 165 731 165 719 165 c 0,48,49
 695 165 695 165 695 121 c 0,40,41
118 515 m 0,50,51
 118 474 118 474 143 474 c 256,52,53
 168 474 168 474 168 515 c 0,54,55
 168 559 168 559 142 559 c 0,56,57
 118 559 118 559 118 515 c 0,50,51
431 121 m 0,58,59
 431 79 431 79 456 79 c 256,60,61
 481 79 481 79 481 121 c 0,62,63
 481 135 481 135 475 148 c 0,64,65
 467 165 467 165 455 165 c 0,66,67
 431 165 431 165 431 121 c 0,58,59
EndSplineSet
EndChar
StartChar: Acircumflex
Encoding: 194 194 199
Width: 568
Flags: W
Fore
377 168 m 1,0,-1
 196 168 l 1,1,-1
 142 -12 l 1,2,-1
 29 2 l 1,3,-1
 236 654 l 1,4,-1
 338 654 l 1,5,-1
 549 7 l 1,6,-1
 433 -12 l 1,7,-1
 377 168 l 1,0,-1
223 261 m 1,8,-1
 350 261 l 1,9,-1
 287 483 l 1,10,-1
 223 261 l 1,8,-1
146 661 m 1,11,-1
 146 759 l 1,12,-1
 283 865 l 1,13,-1
 425 759 l 1,14,-1
 425 662 l 1,15,-1
 284 749 l 1,16,-1
 146 661 l 1,11,-1
EndSplineSet
EndChar
StartChar: Ecircumflex
Encoding: 202 202 200
Width: 489
Flags: W
Fore
185 391 m 1,0,-1
 411 391 l 1,1,-1
 411 292 l 1,2,-1
 185 293 l 1,3,-1
 185 109 l 1,4,-1
 425 110 l 1,5,-1
 425 0 l 1,6,-1
 68 0 l 1,7,-1
 68 640 l 1,8,-1
 427 640 l 1,9,-1
 427 535 l 1,10,-1
 185 535 l 1,11,-1
 185 391 l 1,0,-1
125 681 m 1,12,-1
 125 769 l 1,13,-1
 263 875 l 1,14,-1
 405 769 l 1,15,-1
 405 682 l 1,16,-1
 263 759 l 1,17,-1
 125 681 l 1,12,-1
EndSplineSet
EndChar
StartChar: Aacute
Encoding: 193 193 201
Width: 568
Flags: W
Fore
377 168 m 1,0,-1
 196 168 l 1,1,-1
 142 -12 l 1,2,-1
 29 2 l 1,3,-1
 236 654 l 1,4,-1
 338 654 l 1,5,-1
 549 7 l 1,6,-1
 433 -12 l 1,7,-1
 377 168 l 1,0,-1
223 261 m 1,8,-1
 350 261 l 1,9,-1
 287 483 l 1,10,-1
 223 261 l 1,8,-1
146 746 m 1,11,-1
 361 835 l 1,12,-1
 423 757 l 1,13,-1
 209 674 l 1,14,-1
 146 746 l 1,11,-1
EndSplineSet
EndChar
StartChar: Edieresis
Encoding: 203 203 202
Width: 489
Flags: W
Fore
185 391 m 1,0,-1
 411 391 l 1,1,-1
 411 292 l 1,2,-1
 185 293 l 1,3,-1
 185 109 l 1,4,-1
 425 110 l 1,5,-1
 425 0 l 1,6,-1
 68 0 l 1,7,-1
 68 640 l 1,8,-1
 427 640 l 1,9,-1
 427 535 l 1,10,-1
 185 535 l 1,11,-1
 185 391 l 1,0,-1
295 758 m 0,12,13
 295 784 295 784 312 805 c 0,14,15
 331 830 331 830 365 830 c 0,16,17
 398 830 398 830 418 805 c 0,18,19
 435 784 435 784 435 758 c 0,20,21
 435 731 435 731 418 710 c 0,22,23
 398 686 398 686 365 686 c 0,24,25
 331 686 331 686 312 710 c 0,26,27
 295 730 295 730 295 758 c 0,12,13
86 758 m 0,28,29
 86 785 86 785 102 805 c 0,30,31
 122 830 122 830 156 830 c 0,32,33
 188 830 188 830 208 805 c 0,34,35
 225 784 225 784 225 758 c 0,36,37
 225 731 225 731 208 710 c 0,38,39
 189 686 189 686 156 686 c 0,40,41
 122 686 122 686 102 710 c 0,42,43
 86 730 86 730 86 758 c 0,28,29
EndSplineSet
EndChar
StartChar: Egrave
Encoding: 200 200 203
Width: 489
Flags: W
Fore
185 391 m 1,0,-1
 411 391 l 1,1,-1
 411 292 l 1,2,-1
 185 293 l 1,3,-1
 185 109 l 1,4,-1
 425 110 l 1,5,-1
 425 0 l 1,6,-1
 68 0 l 1,7,-1
 68 640 l 1,8,-1
 427 640 l 1,9,-1
 427 535 l 1,10,-1
 185 535 l 1,11,-1
 185 391 l 1,0,-1
334 686 m 1,12,-1
 126 776 l 1,13,-1
 172 841 l 1,14,-1
 383 745 l 1,15,-1
 334 686 l 1,12,-1
EndSplineSet
EndChar
StartChar: Iacute
Encoding: 205 205 204
Width: 215
Flags: W
Fore
48 642 m 1,0,-1
 177 642 l 1,1,-1
 177 0 l 1,2,-1
 48 0 l 1,3,-1
 48 642 l 1,0,-1
-21 746 m 1,4,-1
 194 835 l 1,5,-1
 256 757 l 1,6,-1
 42 674 l 1,7,-1
 -21 746 l 1,4,-1
EndSplineSet
EndChar
StartChar: Icircumflex
Encoding: 206 206 205
Width: 215
Flags: W
Fore
42 642 m 1,0,-1
 171 642 l 1,1,-1
 171 0 l 1,2,-1
 42 0 l 1,3,-1
 42 642 l 1,0,-1
-31 681 m 1,4,-1
 -31 769 l 1,5,-1
 107 875 l 1,6,-1
 249 769 l 1,7,-1
 249 682 l 1,8,-1
 107 759 l 1,9,-1
 -31 681 l 1,4,-1
EndSplineSet
EndChar
StartChar: Idieresis
Encoding: 207 207 206
Width: 215
Flags: W
Fore
48 642 m 1,0,-1
 177 642 l 1,1,-1
 177 0 l 1,2,-1
 48 0 l 1,3,-1
 48 642 l 1,0,-1
148 748 m 0,4,5
 148 774 148 774 165 795 c 0,6,7
 184 820 184 820 218 820 c 0,8,9
 251 820 251 820 271 795 c 0,10,11
 288 774 288 774 288 748 c 0,12,13
 288 721 288 721 271 700 c 0,14,15
 251 676 251 676 218 676 c 0,16,17
 184 676 184 676 165 700 c 0,18,19
 148 720 148 720 148 748 c 0,4,5
-61 748 m 0,20,21
 -61 775 -61 775 -45 795 c 0,22,23
 -25 820 -25 820 9 820 c 0,24,25
 41 820 41 820 61 795 c 0,26,27
 78 774 78 774 78 748 c 0,28,29
 78 721 78 721 61 700 c 0,30,31
 42 676 42 676 9 676 c 0,32,33
 -25 676 -25 676 -45 700 c 0,34,35
 -61 720 -61 720 -61 748 c 0,20,21
EndSplineSet
EndChar
StartChar: Igrave
Encoding: 204 204 207
Width: 215
Flags: W
Fore
48 642 m 1,0,-1
 177 642 l 1,1,-1
 177 0 l 1,2,-1
 48 0 l 1,3,-1
 48 642 l 1,0,-1
198 686 m 1,4,-1
 -11 776 l 1,5,-1
 36 841 l 1,6,-1
 246 745 l 1,7,-1
 198 686 l 1,4,-1
EndSplineSet
EndChar
StartChar: Oacute
Encoding: 211 211 208
Width: 644
Flags: W
Fore
37 322 m 0,0,1
 37 462 37 462 120 554 c 128,-1,2
 203 646 203 646 331 646 c 256,3,4
 459 646 459 646 538.5 554 c 128,-1,5
 618 462 618 462 618 322 c 0,6,7
 618 163 618 163 532 71 c 0,8,9
 451 -16 451 -16 324 -16 c 0,10,11
 198 -16 198 -16 120 71 c 0,12,13
 37 163 37 163 37 322 c 0,0,1
152 313 m 0,14,15
 152 219 152 219 202 151.5 c 128,-1,16
 252 84 252 84 324 84 c 0,17,18
 397 84 397 84 450.5 151.5 c 128,-1,19
 504 219 504 219 504 312 c 0,20,21
 504 409 504 409 454 478.5 c 128,-1,22
 404 548 404 548 329 548 c 256,23,24
 254 548 254 548 203 478.5 c 128,-1,25
 152 409 152 409 152 313 c 0,14,15
189 746 m 1,26,-1
 404 835 l 1,27,-1
 466 757 l 1,28,-1
 252 674 l 1,29,-1
 189 746 l 1,26,-1
EndSplineSet
EndChar
StartChar: Ocircumflex
Encoding: 212 212 209
Width: 644
Flags: W
Fore
37 322 m 0,0,1
 37 462 37 462 120 554 c 128,-1,2
 203 646 203 646 331 646 c 256,3,4
 459 646 459 646 538.5 554 c 128,-1,5
 618 462 618 462 618 322 c 0,6,7
 618 163 618 163 532 71 c 0,8,9
 451 -16 451 -16 324 -16 c 0,10,11
 198 -16 198 -16 120 71 c 0,12,13
 37 163 37 163 37 322 c 0,0,1
152 313 m 0,14,15
 152 219 152 219 202 151.5 c 128,-1,16
 252 84 252 84 324 84 c 0,17,18
 397 84 397 84 450.5 151.5 c 128,-1,19
 504 219 504 219 504 312 c 0,20,21
 504 409 504 409 454 478.5 c 128,-1,22
 404 548 404 548 329 548 c 256,23,24
 254 548 254 548 203 478.5 c 128,-1,25
 152 409 152 409 152 313 c 0,14,15
195 661 m 1,26,-1
 195 759 l 1,27,-1
 333 865 l 1,28,-1
 475 759 l 1,29,-1
 475 662 l 1,30,-1
 333 749 l 1,31,-1
 195 661 l 1,26,-1
EndSplineSet
EndChar
StartChar: apple
Encoding: 61440 61440 210
Width: 549
Flags: W
Fore
302 453 m 1,0,-1
 302 481 l 1,1,-1
 338 481 l 1,2,-1
 338 515 l 1,3,-1
 367 515 l 1,4,-1
 367 481 l 1,5,-1
 403 481 l 1,6,-1
 403 453 l 1,7,-1
 367 453 l 1,8,-1
 367 420 l 1,9,-1
 338 420 l 1,10,-1
 338 453 l 1,11,-1
 302 453 l 1,0,-1
157 187 m 1,12,-1
 157 215 l 1,13,-1
 192 215 l 1,14,-1
 192 248 l 1,15,-1
 222 248 l 1,16,-1
 222 215 l 1,17,-1
 257 215 l 1,18,-1
 257 187 l 1,19,-1
 222 187 l 1,20,-1
 222 153 l 1,21,-1
 192 153 l 1,22,-1
 192 187 l 1,23,-1
 157 187 l 1,12,-1
222 276 m 1,24,-1
 240 276 l 1,25,-1
 240 253 l 1,26,-1
 222 253 l 1,27,-1
 222 276 l 1,24,-1
241 291 m 1,28,-1
 255 291 l 1,29,-1
 255 281 l 1,30,-1
 241 281 l 1,31,-1
 241 291 l 1,28,-1
256 309 m 1,32,-1
 301 309 l 1,33,-1
 301 296 l 1,34,-1
 256 296 l 1,35,-1
 256 309 l 1,32,-1
237 357 m 1,36,-1
 252 357 l 1,37,-1
 252 316 l 1,38,-1
 237 316 l 1,39,-1
 237 357 l 1,36,-1
335 392 m 1,40,-1
 318 392 l 1,41,-1
 318 415 l 1,42,-1
 335 415 l 1,43,-1
 335 392 l 1,40,-1
317 377 m 1,44,-1
 303 377 l 1,45,-1
 303 387 l 1,46,-1
 317 387 l 1,47,-1
 317 377 l 1,44,-1
301 359 m 1,48,-1
 256 359 l 1,49,-1
 256 372 l 1,50,-1
 301 372 l 1,51,-1
 301 359 l 1,48,-1
320 311 m 1,52,-1
 306 311 l 1,53,-1
 306 353 l 1,54,-1
 320 353 l 1,55,-1
 320 311 l 1,52,-1
EndSplineSet
EndChar
StartChar: Ograve
Encoding: 210 210 211
Width: 644
Flags: W
Fore
37 322 m 0,0,1
 37 462 37 462 120 554 c 128,-1,2
 203 646 203 646 331 646 c 256,3,4
 459 646 459 646 538.5 554 c 128,-1,5
 618 462 618 462 618 322 c 0,6,7
 618 163 618 163 532 71 c 0,8,9
 451 -16 451 -16 324 -16 c 0,10,11
 198 -16 198 -16 120 71 c 0,12,13
 37 163 37 163 37 322 c 0,0,1
152 313 m 0,14,15
 152 219 152 219 202 151.5 c 128,-1,16
 252 84 252 84 324 84 c 0,17,18
 397 84 397 84 450.5 151.5 c 128,-1,19
 504 219 504 219 504 312 c 0,20,21
 504 409 504 409 454 478.5 c 128,-1,22
 404 548 404 548 329 548 c 256,23,24
 254 548 254 548 203 478.5 c 128,-1,25
 152 409 152 409 152 313 c 0,14,15
408 686 m 1,26,-1
 199 776 l 1,27,-1
 246 841 l 1,28,-1
 456 745 l 1,29,-1
 408 686 l 1,26,-1
EndSplineSet
EndChar
StartChar: Uacute
Encoding: 218 218 212
Width: 571
Flags: W
Fore
283 -17 m 0,0,1
 191 -17 191 -17 134 42 c 0,2,3
 68 108 68 108 68 235 c 2,4,-1
 68 640 l 1,5,-1
 187 640 l 1,6,-1
 187 235 l 2,7,8
 187 81 187 81 285 81 c 0,9,10
 329 81 329 81 359 115 c 0,11,12
 394 156 394 156 394 235 c 2,13,-1
 394 640 l 1,14,-1
 513 640 l 1,15,-1
 513 235 l 2,16,17
 513 109 513 109 439 41 c 0,18,19
 376 -17 376 -17 283 -17 c 0,0,1
147 746 m 1,20,-1
 362 835 l 1,21,-1
 424 757 l 1,22,-1
 210 674 l 1,23,-1
 147 746 l 1,20,-1
EndSplineSet
EndChar
StartChar: Ucircumflex
Encoding: 219 219 213
Width: 571
Flags: W
Fore
283 -17 m 0,0,1
 191 -17 191 -17 134 42 c 0,2,3
 68 108 68 108 68 235 c 2,4,-1
 68 640 l 1,5,-1
 187 640 l 1,6,-1
 187 235 l 2,7,8
 187 81 187 81 285 81 c 0,9,10
 329 81 329 81 359 115 c 0,11,12
 394 156 394 156 394 235 c 2,13,-1
 394 640 l 1,14,-1
 513 640 l 1,15,-1
 513 235 l 2,16,17
 513 109 513 109 439 41 c 0,18,19
 376 -17 376 -17 283 -17 c 0,0,1
145 671 m 1,20,-1
 145 759 l 1,21,-1
 283 865 l 1,22,-1
 425 759 l 1,23,-1
 425 672 l 1,24,-1
 283 749 l 1,25,-1
 145 671 l 1,20,-1
EndSplineSet
EndChar
StartChar: Ugrave
Encoding: 217 217 214
Width: 571
Flags: W
Fore
283 -17 m 0,0,1
 191 -17 191 -17 134 42 c 0,2,3
 68 108 68 108 68 235 c 2,4,-1
 68 640 l 1,5,-1
 187 640 l 1,6,-1
 187 235 l 2,7,8
 187 81 187 81 285 81 c 0,9,10
 329 81 329 81 359 115 c 0,11,12
 394 156 394 156 394 235 c 2,13,-1
 394 640 l 1,14,-1
 513 640 l 1,15,-1
 513 235 l 2,16,17
 513 109 513 109 439 41 c 0,18,19
 376 -17 376 -17 283 -17 c 0,0,1
366 686 m 1,20,-1
 157 776 l 1,21,-1
 204 841 l 1,22,-1
 414 745 l 1,23,-1
 366 686 l 1,20,-1
EndSplineSet
EndChar
StartChar: dotlessi
Encoding: 305 305 215
Width: 233
Flags: W
Fore
63 495 m 1,0,-1
 170 495 l 1,1,-1
 170 0 l 1,2,-1
 63 0 l 1,3,-1
 63 495 l 1,0,-1
EndSplineSet
EndChar
StartChar: circumflex
Encoding: 710 710 216
Width: 337
Flags: W
Fore
35 521 m 1,0,-1
 35 609 l 1,1,-1
 173 715 l 1,2,-1
 315 609 l 1,3,-1
 315 522 l 1,4,-1
 173 599 l 1,5,-1
 35 521 l 1,0,-1
EndSplineSet
EndChar
StartChar: tilde
Encoding: 732 732 217
Width: 375
Flags: W
Fore
190 579 m 0,0,1
 155 602 155 602 146 602 c 0,2,3
 120 602 120 602 80 555 c 1,4,-1
 40 633 l 1,5,6
 81 683 81 683 146 685 c 0,7,8
 176 686 176 686 214.5 659 c 128,-1,9
 253 632 253 632 264 632 c 0,10,11
 278 632 278 632 314 663 c 1,12,-1
 352 587 l 1,13,14
 336 571 336 571 308.5 560 c 128,-1,15
 281 549 281 549 266 549 c 0,16,17
 235 549 235 549 190 579 c 0,0,1
EndSplineSet
EndChar
StartChar: macron
Encoding: 713 175 218
AltUni: 713
Width: 406
Flags: W
Fore
105 659 m 1,0,-1
 339 659 l 1,1,-1
 339 594 l 1,2,-1
 105 594 l 1,3,-1
 105 659 l 1,0,-1
EndSplineSet
EndChar
StartChar: breve
Encoding: 728 728 219
Width: 345
Flags: W
Fore
26 642 m 1,0,-1
 102 651 l 1,1,2
 126 604 126 604 170 604 c 0,3,4
 211 604 211 604 233 652 c 1,5,-1
 308 642 l 1,6,7
 272 538 272 538 171 538 c 0,8,9
 64 538 64 538 26 642 c 1,0,-1
EndSplineSet
EndChar
StartChar: dotaccent
Encoding: 729 729 220
Width: 237
Flags: W
Fore
55 576 m 0,0,1
 55 605 55 605 76 624.5 c 128,-1,2
 97 644 97 644 128 644 c 0,3,4
 158 644 158 644 179.5 624 c 128,-1,5
 201 604 201 604 201 576 c 256,6,7
 201 548 201 548 180 528 c 128,-1,8
 159 508 159 508 128 508 c 256,9,10
 97 508 97 508 76 528 c 128,-1,11
 55 548 55 548 55 576 c 0,0,1
EndSplineSet
EndChar
StartChar: ring
Encoding: 730 730 221
Width: 305
Flags: W
Fore
172 576 m 256,0,1
 132 576 132 576 106.5 600.5 c 128,-1,2
 81 625 81 625 81 663 c 0,3,4
 81 700 81 700 106.5 724.5 c 128,-1,5
 132 749 132 749 172 749 c 256,6,7
 212 749 212 749 237.5 724.5 c 128,-1,8
 263 700 263 700 263 663 c 0,9,10
 263 625 263 625 237.5 600.5 c 128,-1,11
 212 576 212 576 172 576 c 256,0,1
172 706 m 256,12,13
 139 706 139 706 139 663 c 0,14,15
 139 619 139 619 172 619 c 256,16,17
 205 619 205 619 205 663 c 0,18,19
 205 706 205 706 172 706 c 256,12,13
EndSplineSet
EndChar
StartChar: cedilla
Encoding: 184 184 222
Width: 205
Flags: W
Fore
11 -176 m 1,0,-1
 52 -147 l 1,1,2
 82 -182 82 -182 111 -182 c 0,3,4
 119 -182 119 -182 127 -166.5 c 128,-1,5
 135 -151 135 -151 135 -142 c 0,6,7
 135 -129 135 -129 127.5 -117.5 c 128,-1,8
 120 -106 120 -106 114 -106 c 0,9,10
 85 -106 85 -106 78 -122 c 1,11,-1
 21 -105 l 1,12,-1
 27 4 l 1,13,-1
 107 5 l 1,14,-1
 104 -36 l 1,15,-1
 107 -36 l 2,16,17
 149 -36 149 -36 175 -67 c 0,18,19
 197 -94 197 -94 197 -130 c 0,20,21
 197 -169 197 -169 178 -200 c 0,22,23
 154 -239 154 -239 110 -239 c 0,24,25
 39 -239 39 -239 11 -176 c 1,0,-1
EndSplineSet
EndChar
StartChar: hungarumlaut
Encoding: 733 733 223
Width: 362
Flags: W
Fore
176 561 m 1,0,-1
 286 675 l 1,1,-1
 387 675 l 1,2,-1
 276 561 l 1,3,-1
 176 561 l 1,0,-1
18 561 m 1,4,-1
 129 675 l 1,5,-1
 229 675 l 1,6,-1
 119 561 l 1,7,-1
 18 561 l 1,4,-1
EndSplineSet
EndChar
StartChar: caron
Encoding: 711 711 225
Width: 337
Flags: W
Fore
315 725 m 1,0,-1
 315 627 l 1,1,-1
 178 521 l 1,2,-1
 35 627 l 1,3,-1
 35 724 l 1,4,-1
 177 637 l 1,5,-1
 315 725 l 1,0,-1
EndSplineSet
EndChar
StartChar: Lslash
Encoding: 321 321 226
Width: 501
Flags: W
Fore
58 367 m 1,0,-1
 58 641 l 1,1,-1
 176 641 l 1,2,-1
 176 413 l 1,3,-1
 238 437 l 1,4,-1
 238 323 l 1,5,-1
 176 299 l 1,6,-1
 176 105 l 1,7,-1
 438 105 l 1,8,-1
 438 0 l 1,9,-1
 58 0 l 1,10,-1
 58 254 l 1,11,-1
 6 234 l 1,12,-1
 6 347 l 1,13,-1
 58 367 l 1,0,-1
EndSplineSet
EndChar
StartChar: lslash
Encoding: 322 322 227
Width: 282
Flags: W
Fore
179 0 m 1,0,-1
 69 0 l 1,1,-1
 69 287 l 1,2,-1
 15 256 l 1,3,-1
 16 372 l 1,4,-1
 69 402 l 1,5,-1
 69 642 l 1,6,-1
 178 642 l 1,7,-1
 178 464 l 1,8,-1
 243 500 l 1,9,-1
 244 385 l 1,10,-1
 178 348 l 1,11,-1
 179 0 l 1,0,-1
EndSplineSet
EndChar
StartChar: Zcaron
Encoding: 381 381 230
Width: 544
Flags: W
Fore
483 99 m 1,0,-1
 483 0 l 1,1,-1
 77 0 l 1,2,-1
 68 86 l 1,3,-1
 347 550 l 1,4,-1
 84 548 l 1,5,-1
 84 639 l 1,6,-1
 476 639 l 1,7,-1
 487 558 l 1,8,-1
 209 99 l 1,9,-1
 483 99 l 1,0,-1
466 865 m 1,10,-1
 466 767 l 1,11,-1
 329 661 l 1,12,-1
 186 767 l 1,13,-1
 186 864 l 1,14,-1
 328 777 l 1,15,-1
 466 865 l 1,10,-1
EndSplineSet
EndChar
StartChar: zcaron
Encoding: 382 382 231
Width: 482
Flags: W
Fore
58 77 m 1,0,-1
 261 355 l 2,1,2
 271 370 271 370 300 408 c 1,3,-1
 67 408 l 1,4,-1
 67 494 l 1,5,-1
 432 494 l 1,6,-1
 432 414 l 1,7,-1
 244 152 l 2,8,9
 231 131 231 131 202 92 c 1,10,-1
 444 92 l 1,11,-1
 444 0 l 1,12,-1
 58 0 l 1,13,-1
 58 77 l 1,0,-1
444 725 m 1,14,-1
 444 627 l 1,15,-1
 307 521 l 1,16,-1
 164 627 l 1,17,-1
 164 724 l 1,18,-1
 306 637 l 1,19,-1
 444 725 l 1,14,-1
EndSplineSet
EndChar
StartChar: brokenbar
Encoding: 166 166 232
Width: 182
Flags: W
Fore
54 278 m 1,0,-1
 131 278 l 1,1,-1
 131 -18 l 1,2,-1
 54 -18 l 1,3,-1
 54 278 l 1,0,-1
54 656 m 1,4,-1
 131 656 l 1,5,-1
 131 360 l 1,6,-1
 54 360 l 1,7,-1
 54 656 l 1,4,-1
EndSplineSet
EndChar
StartChar: Eth
Encoding: 208 208 233
Width: 565
Flags: W
Fore
242 353 m 1,0,-1
 242 251 l 1,1,-1
 179 251 l 1,2,-1
 179 107 l 1,3,-1
 243 107 l 2,4,5
 322 107 322 107 367 170 c 0,6,7
 407 227 407 227 407 313 c 0,8,9
 407 429 407 429 371 486 c 0,10,11
 330 549 330 549 238 549 c 0,12,13
 231 549 231 549 210 549 c 0,14,15
 190 548 190 548 179 548 c 1,16,-1
 179 353 l 1,17,-1
 242 353 l 1,0,-1
59 353 m 1,18,-1
 59 643 l 1,19,20
 140 647 140 647 213 647 c 0,21,22
 375 647 375 647 452 572 c 0,23,24
 532 493 532 493 533 323 c 0,25,26
 534 170 534 170 455 86 c 0,27,28
 374 -2 374 -2 219 -2 c 0,29,30
 194 -2 194 -2 147 0 c 128,-1,31
 100 2 100 2 59 2 c 1,32,-1
 59 251 l 1,33,-1
 6 251 l 1,34,-1
 6 353 l 1,35,-1
 59 353 l 1,18,-1
EndSplineSet
EndChar
StartChar: eth
Encoding: 240 240 234
Width: 579
Flags: W
Fore
281 448 m 0,0,1
 222 448 222 448 187 390 c 0,2,3
 155 336 155 336 155 251 c 0,4,5
 155 180 155 180 191 120 c 0,6,7
 230 56 230 56 283 56 c 0,8,9
 347 56 347 56 381 116 c 0,10,11
 410 168 410 168 411 248 c 0,12,13
 412 346 412 346 412 345 c 1,14,15
 337 448 337 448 281 448 c 0,0,1
291 619 m 1,16,17
 278 639 278 639 235 683 c 1,18,-1
 310 736 l 1,19,20
 369 678 369 678 409 619 c 1,21,-1
 543 619 l 1,22,-1
 543 546 l 1,23,-1
 468 546 l 1,24,25
 493 491 493 491 510 407 c 0,26,27
 526 329 526 329 525 279 c 0,28,29
 521 -17 521 -17 263 -17 c 0,30,31
 158 -17 158 -17 93 70 c 0,32,33
 36 146 36 146 36 249 c 0,34,35
 36 388 36 388 112 459 c 0,36,37
 178 521 178 521 283 521 c 0,38,39
 309 521 309 521 393 464 c 1,40,41
 393 486 393 486 370 515 c 0,42,43
 357 530 357 530 343 546 c 1,44,-1
 203 546 l 1,45,-1
 203 619 l 1,46,-1
 291 619 l 1,16,17
EndSplineSet
EndChar
StartChar: Yacute
Encoding: 221 221 235
Width: 503
Flags: W
Fore
316 0 m 1,0,-1
 197 0 l 1,1,-1
 197 271 l 1,2,-1
 26 621 l 1,3,-1
 136 654 l 1,4,-1
 259 375 l 1,5,-1
 380 654 l 1,6,-1
 486 621 l 1,7,-1
 316 271 l 1,8,-1
 316 0 l 1,0,-1
137 696 m 1,9,-1
 351 785 l 1,10,-1
 413 707 l 1,11,-1
 199 624 l 1,12,-1
 137 696 l 1,9,-1
EndSplineSet
EndChar
StartChar: Thorn
Encoding: 222 222 236
Width: 543
Flags: W
Fore
174 180 m 1,0,-1
 174 -108 l 1,1,-1
 60 -108 l 1,2,-1
 60 700 l 1,3,-1
 174 700 l 1,4,-1
 174 619 l 1,5,6
 239 677 239 677 277 677 c 0,7,8
 379 677 379 677 440 590 c 0,9,10
 493 514 493 514 494 407 c 0,11,12
 495 266 495 266 431 195 c 0,13,14
 375 133 375 133 279 133 c 0,15,16
 253 133 253 133 226.5 148.5 c 128,-1,17
 200 164 200 164 174 180 c 1,0,-1
174 510 m 1,18,-1
 174 280 l 1,19,20
 189 258 189 258 217.5 242 c 128,-1,21
 246 226 246 226 274 226 c 0,22,23
 326 226 326 226 354 278 c 0,24,25
 378 324 378 324 378 395 c 0,26,27
 378 468 378 468 351 518 c 0,28,29
 319 576 319 576 260 576 c 0,30,31
 206 576 206 576 174 510 c 1,18,-1
EndSplineSet
EndChar
StartChar: thorn
Encoding: 254 254 237
Width: 522
Flags: W
Fore
203 -4 m 0,0,1
 197 -1 197 -1 176 13 c 2,2,-1
 173 15 l 1,3,-1
 173 -195 l 1,4,-1
 60 -195 l 1,5,-1
 60 685 l 1,6,-1
 173 685 l 1,7,-1
 173 432 l 1,8,9
 217 474 217 474 228 482 c 0,10,11
 262 508 262 508 290 508 c 0,12,13
 387 508 387 508 443 434 c 0,14,15
 492 366 492 366 493 263 c 0,16,17
 494 120 494 120 429 47 c 0,18,19
 371 -18 371 -18 272 -18 c 0,20,21
 231 -18 231 -18 203 -4 c 0,0,1
173 302 m 1,22,-1
 173 111 l 1,23,24
 187 98 187 98 218.5 85.5 c 128,-1,25
 250 73 250 73 272 73 c 0,26,27
 324 73 324 73 352 130 c 0,28,29
 377 180 377 180 377 253 c 0,30,31
 377 319 377 319 355 362 c 0,32,33
 329 413 329 413 277 413 c 0,34,35
 251 413 251 413 218 374 c 0,36,37
 192 342 192 342 173 302 c 1,22,-1
EndSplineSet
EndChar
StartChar: minus
Encoding: 8722 173 238
AltUni: 8722
Width: 498
Flags: W
Fore
52 348 m 1,0,-1
 446 348 l 1,1,-1
 446 285 l 1,2,-1
 52 285 l 1,3,-1
 52 348 l 1,0,-1
EndSplineSet
EndChar
